G75*
G70*
%OFA0B0*%
%FSLAX24Y24*%
%IPPOS*%
%LPD*%
%AMOC8*
5,1,8,0,0,1.08239X$1,22.5*
%
%ADD10C,0.0000*%
%ADD11C,0.0740*%
%ADD12R,0.0236X0.0197*%
%ADD13R,0.0236X0.0157*%
%ADD14R,0.0354X0.0276*%
%ADD15R,0.0354X0.0197*%
%ADD16C,0.0260*%
%ADD17C,0.0100*%
%ADD18C,0.0160*%
%ADD19C,0.0030*%
D10*
X000180Y002995D02*
X000180Y008995D01*
X007180Y008995D01*
X007180Y002995D01*
X000180Y002995D01*
D11*
X000680Y003495D03*
X000680Y004495D03*
X000680Y005495D03*
X000680Y006495D03*
X000680Y007495D03*
X000680Y008495D03*
X006680Y008495D03*
X006680Y007495D03*
X006680Y006495D03*
X006680Y005495D03*
X006680Y004495D03*
X006680Y003495D03*
D12*
X002954Y004800D03*
X002954Y005390D03*
X002206Y005390D03*
X002206Y004800D03*
X002206Y007200D03*
X002206Y007790D03*
X002954Y007790D03*
X002954Y007200D03*
D13*
X002954Y007495D03*
X002206Y007495D03*
X002206Y005095D03*
X002954Y005095D03*
D14*
X004065Y005607D03*
X004695Y005607D03*
X004695Y004583D03*
X004065Y004583D03*
X004065Y006983D03*
X004695Y006983D03*
X004695Y008007D03*
X004065Y008007D03*
D15*
X004065Y007652D03*
X004065Y007337D03*
X004695Y007337D03*
X004695Y007652D03*
X004695Y005252D03*
X004695Y004937D03*
X004065Y004937D03*
X004065Y005252D03*
D16*
X003480Y005395D03*
X003480Y005795D03*
X002880Y006495D03*
X003580Y006795D03*
X004080Y006495D03*
X003480Y007795D03*
X003480Y008195D03*
X002180Y008195D03*
X001480Y007995D03*
X002180Y006795D03*
X002180Y005795D03*
X001480Y004995D03*
X002180Y004395D03*
X002880Y004095D03*
X003580Y004395D03*
X004080Y004095D03*
X005180Y005095D03*
X005980Y004995D03*
X005980Y005995D03*
X005180Y007495D03*
X005980Y007995D03*
X005980Y003995D03*
D17*
X005780Y003795D01*
X003980Y003795D01*
X003580Y004195D01*
X003580Y004395D01*
X003580Y004795D01*
X003723Y004937D01*
X004065Y004937D01*
X004080Y004607D02*
X004065Y004583D01*
X004080Y004568D01*
X004080Y004095D01*
X004695Y004937D02*
X004695Y005252D01*
X004065Y005252D02*
X003623Y005252D01*
X003480Y005395D01*
X003385Y005390D01*
X002954Y005390D01*
X002954Y004800D02*
X002954Y004169D01*
X002880Y004095D01*
X002206Y004421D02*
X002206Y004800D01*
X002206Y004421D02*
X002180Y004395D01*
X001480Y004995D02*
X001875Y005390D01*
X002206Y005390D01*
X002206Y005769D01*
X002180Y005795D01*
X002880Y006495D02*
X002954Y006569D01*
X002954Y007200D01*
X002980Y007154D01*
X003580Y007195D02*
X003580Y006795D01*
X003580Y006495D01*
X003880Y006195D01*
X005780Y006195D01*
X005980Y005995D01*
X006680Y005495D02*
X006180Y004995D01*
X005980Y004995D01*
X006680Y003495D02*
X006380Y003195D01*
X000980Y003195D01*
X000680Y003495D01*
X003480Y005795D02*
X003668Y005607D01*
X004065Y005607D01*
X004080Y006495D02*
X004080Y006968D01*
X004065Y006983D01*
X004080Y007007D01*
X004065Y007012D02*
X004065Y006983D01*
X004065Y007337D02*
X003723Y007337D01*
X003580Y007195D01*
X003623Y007652D02*
X003480Y007795D01*
X003385Y007790D01*
X002954Y007790D01*
X003480Y008195D02*
X003668Y008007D01*
X004065Y008007D01*
X004065Y007652D02*
X003623Y007652D01*
X004695Y007652D02*
X004695Y007337D01*
X005980Y007995D02*
X006480Y007495D01*
X006680Y007495D01*
X002206Y007790D02*
X002206Y008169D01*
X002180Y008195D01*
X002206Y007790D02*
X001685Y007790D01*
X001480Y007995D01*
X002206Y007200D02*
X002206Y006821D01*
X002180Y006795D01*
D18*
X001917Y006619D02*
X002004Y006532D01*
X002118Y006485D01*
X002242Y006485D01*
X002356Y006532D01*
X002443Y006619D01*
X002490Y006733D01*
X002490Y006857D01*
X002444Y006967D01*
X002504Y007027D01*
X002504Y007373D01*
X002500Y007377D01*
X002504Y007392D01*
X002504Y007495D01*
X002504Y007597D01*
X002500Y007613D01*
X002504Y007617D01*
X002504Y007963D01*
X002444Y008023D01*
X002490Y008133D01*
X002490Y008257D01*
X002443Y008370D01*
X002356Y008458D01*
X002242Y008505D01*
X002118Y008505D01*
X002004Y008458D01*
X001917Y008370D01*
X001870Y008257D01*
X001870Y008133D01*
X001917Y008020D01*
X001790Y008020D01*
X001790Y008057D01*
X001743Y008170D01*
X001656Y008258D01*
X001542Y008305D01*
X001418Y008305D01*
X001304Y008258D01*
X001217Y008170D01*
X001170Y008057D01*
X001170Y007933D01*
X001217Y007819D01*
X001304Y007732D01*
X001418Y007685D01*
X001465Y007685D01*
X001589Y007560D01*
X001908Y007560D01*
X001908Y007495D01*
X002206Y007495D01*
X002504Y007495D01*
X002206Y007495D01*
X002206Y007495D01*
X002206Y007495D01*
X001908Y007495D01*
X001908Y007392D01*
X001912Y007377D01*
X001908Y007373D01*
X001908Y007027D01*
X001941Y006994D01*
X001917Y006970D01*
X001870Y006857D01*
X001870Y006733D01*
X001917Y006619D01*
X001908Y006640D02*
X001215Y006640D01*
X001230Y006604D02*
X001146Y006806D01*
X000992Y006961D01*
X000910Y006995D01*
X000992Y007029D01*
X001146Y007183D01*
X001230Y007385D01*
X001230Y007604D01*
X001146Y007806D01*
X000992Y007961D01*
X000910Y007995D01*
X000968Y008024D01*
X001038Y008075D01*
X001100Y008137D01*
X001150Y008207D01*
X001190Y008284D01*
X001216Y008366D01*
X001230Y008452D01*
X001230Y008475D01*
X000700Y008475D01*
X000700Y008515D01*
X006130Y008515D01*
X006130Y008385D01*
X006202Y008211D01*
X006156Y008258D01*
X006042Y008305D01*
X005918Y008305D01*
X005804Y008258D01*
X005717Y008170D01*
X005670Y008057D01*
X005670Y007933D01*
X005717Y007819D01*
X005804Y007732D01*
X005918Y007685D01*
X005965Y007685D01*
X006130Y007520D01*
X006130Y007385D01*
X006214Y007183D01*
X006368Y007029D01*
X006450Y006995D01*
X006368Y006961D01*
X006214Y006806D01*
X006130Y006604D01*
X006130Y006385D01*
X006202Y006211D01*
X006156Y006258D01*
X006042Y006305D01*
X005995Y006305D01*
X005875Y006425D01*
X004387Y006425D01*
X004390Y006433D01*
X004390Y006557D01*
X004343Y006670D01*
X004332Y006681D01*
X004380Y006729D01*
X004407Y006701D01*
X004448Y006678D01*
X004494Y006665D01*
X004695Y006665D01*
X004896Y006665D01*
X004942Y006678D01*
X004983Y006701D01*
X005016Y006735D01*
X005040Y006776D01*
X005052Y006822D01*
X005052Y006983D01*
X004695Y006983D01*
X004695Y006665D01*
X004695Y006983D01*
X004695Y006983D01*
X004695Y006983D01*
X005052Y006983D01*
X005052Y007050D01*
X005461Y007050D01*
X005575Y007164D01*
X005575Y007826D01*
X005461Y007940D01*
X005052Y007940D01*
X005052Y008007D01*
X005052Y008168D01*
X005040Y008214D01*
X005016Y008255D01*
X004983Y008289D01*
X004942Y008312D01*
X004896Y008324D01*
X004695Y008324D01*
X004695Y008007D01*
X004695Y008007D01*
X004695Y008324D01*
X004494Y008324D01*
X004448Y008312D01*
X004407Y008289D01*
X004380Y008261D01*
X004317Y008324D01*
X003813Y008324D01*
X003777Y008288D01*
X003743Y008370D01*
X003656Y008458D01*
X003542Y008505D01*
X003418Y008505D01*
X003304Y008458D01*
X003217Y008370D01*
X003170Y008257D01*
X003170Y008133D01*
X003217Y008020D01*
X003195Y008020D01*
X003147Y008069D01*
X002761Y008069D01*
X002656Y007963D01*
X002656Y007617D01*
X002660Y007613D01*
X002656Y007597D01*
X002656Y007495D01*
X002954Y007495D01*
X002954Y007495D01*
X003252Y007495D01*
X003252Y007560D01*
X003276Y007560D01*
X003304Y007532D01*
X003418Y007485D01*
X003465Y007485D01*
X003505Y007445D01*
X003485Y007425D01*
X003350Y007290D01*
X003350Y007003D01*
X003317Y006970D01*
X003270Y006857D01*
X003270Y006733D01*
X003317Y006619D01*
X003350Y006586D01*
X003350Y006400D01*
X003650Y006100D01*
X003785Y005965D01*
X005670Y005965D01*
X005670Y005933D01*
X005717Y005819D01*
X005804Y005732D01*
X005918Y005685D01*
X006042Y005685D01*
X006156Y005732D01*
X006202Y005779D01*
X006130Y005604D01*
X006130Y005385D01*
X006164Y005304D01*
X006129Y005269D01*
X006042Y005305D01*
X005918Y005305D01*
X005804Y005258D01*
X005717Y005170D01*
X005670Y005057D01*
X005670Y004933D01*
X005717Y004819D01*
X005804Y004732D01*
X005918Y004685D01*
X006042Y004685D01*
X006156Y004732D01*
X006188Y004765D01*
X006197Y004765D01*
X006130Y004604D01*
X006130Y004385D01*
X006202Y004211D01*
X006156Y004258D01*
X006042Y004305D01*
X005918Y004305D01*
X005804Y004258D01*
X005717Y004170D01*
X005670Y004057D01*
X005670Y004025D01*
X004387Y004025D01*
X004390Y004033D01*
X004390Y004157D01*
X004343Y004270D01*
X004332Y004281D01*
X004380Y004329D01*
X004407Y004301D01*
X004448Y004278D01*
X004494Y004265D01*
X004695Y004265D01*
X004896Y004265D01*
X004942Y004278D01*
X004983Y004301D01*
X005016Y004335D01*
X005040Y004376D01*
X005052Y004422D01*
X005052Y004583D01*
X004695Y004583D01*
X004695Y004265D01*
X004695Y004583D01*
X004695Y004583D01*
X004695Y004583D01*
X005052Y004583D01*
X005052Y004650D01*
X005461Y004650D01*
X005575Y004764D01*
X005575Y005426D01*
X005461Y005540D01*
X005052Y005540D01*
X005052Y005607D01*
X005052Y005768D01*
X005040Y005814D01*
X005016Y005855D01*
X004983Y005889D01*
X004942Y005912D01*
X004896Y005924D01*
X004695Y005924D01*
X004695Y005607D01*
X004695Y005607D01*
X004695Y005924D01*
X004494Y005924D01*
X004448Y005912D01*
X004407Y005889D01*
X004380Y005861D01*
X004317Y005924D01*
X003813Y005924D01*
X003777Y005888D01*
X003743Y005970D01*
X003656Y006058D01*
X003542Y006105D01*
X003418Y006105D01*
X003304Y006058D01*
X003217Y005970D01*
X003170Y005857D01*
X003170Y005733D01*
X003217Y005620D01*
X003195Y005620D01*
X003147Y005669D01*
X002761Y005669D01*
X002656Y005563D01*
X002656Y005217D01*
X002660Y005213D01*
X002656Y005197D01*
X002656Y005095D01*
X002954Y005095D01*
X002954Y005095D01*
X003252Y005095D01*
X003252Y005160D01*
X003276Y005160D01*
X003304Y005132D01*
X003418Y005085D01*
X003465Y005085D01*
X003505Y005045D01*
X003485Y005025D01*
X003350Y004890D01*
X003350Y004603D01*
X003317Y004570D01*
X003270Y004457D01*
X003270Y004333D01*
X003317Y004219D01*
X003350Y004186D01*
X003350Y004100D01*
X003485Y003965D01*
X003750Y003700D01*
X003885Y003565D01*
X005875Y003565D01*
X005995Y003685D01*
X006042Y003685D01*
X006156Y003732D01*
X006202Y003779D01*
X006130Y003604D01*
X006130Y003475D01*
X001230Y003475D01*
X001230Y003604D01*
X001146Y003806D01*
X000992Y003961D01*
X000910Y003995D01*
X000992Y004029D01*
X001146Y004183D01*
X001230Y004385D01*
X001230Y004604D01*
X001146Y004806D01*
X000992Y004961D01*
X000910Y004995D01*
X000992Y005029D01*
X001146Y005183D01*
X001230Y005385D01*
X001230Y005604D01*
X001146Y005806D01*
X000992Y005961D01*
X000910Y005995D01*
X000992Y006029D01*
X001146Y006183D01*
X001230Y006385D01*
X001230Y006604D01*
X001230Y006482D02*
X002570Y006482D01*
X002570Y006433D02*
X002617Y006319D01*
X002704Y006232D01*
X002818Y006185D01*
X002942Y006185D01*
X003056Y006232D01*
X003143Y006319D01*
X003190Y006433D01*
X003190Y006557D01*
X003184Y006571D01*
X003184Y006959D01*
X003252Y007027D01*
X003252Y007373D01*
X003248Y007377D01*
X003252Y007392D01*
X003252Y007495D01*
X002954Y007495D01*
X002954Y007495D01*
X002656Y007495D01*
X002656Y007392D01*
X002660Y007377D01*
X002656Y007373D01*
X002656Y007027D01*
X002724Y006959D01*
X002724Y006766D01*
X002704Y006758D01*
X002617Y006670D01*
X002570Y006557D01*
X002570Y006433D01*
X002615Y006323D02*
X001204Y006323D01*
X001128Y006165D02*
X003585Y006165D01*
X003707Y006006D02*
X003743Y006006D01*
X003426Y006323D02*
X003145Y006323D01*
X003190Y006482D02*
X003350Y006482D01*
X003308Y006640D02*
X003184Y006640D01*
X003184Y006799D02*
X003270Y006799D01*
X003312Y006957D02*
X003184Y006957D01*
X003252Y007116D02*
X003350Y007116D01*
X003350Y007274D02*
X003252Y007274D01*
X003252Y007433D02*
X003493Y007433D01*
X003197Y008067D02*
X003148Y008067D01*
X003170Y008225D02*
X002490Y008225D01*
X002429Y008384D02*
X003231Y008384D01*
X003729Y008384D02*
X006131Y008384D01*
X006188Y008225D02*
X006196Y008225D01*
X006254Y008143D02*
X006368Y008029D01*
X006450Y007995D01*
X006368Y007961D01*
X006354Y007946D01*
X006290Y008010D01*
X006290Y008057D01*
X006254Y008143D01*
X006286Y008067D02*
X006330Y008067D01*
X006058Y007591D02*
X005575Y007591D01*
X005575Y007433D02*
X006130Y007433D01*
X006176Y007274D02*
X005575Y007274D01*
X005527Y007116D02*
X006281Y007116D01*
X006365Y006957D02*
X005052Y006957D01*
X005046Y006799D02*
X006211Y006799D01*
X006145Y006640D02*
X004355Y006640D01*
X004390Y006482D02*
X006130Y006482D01*
X006156Y006323D02*
X005977Y006323D01*
X006254Y006143D02*
X006368Y006029D01*
X006450Y005995D01*
X006368Y005961D01*
X006254Y005847D01*
X006290Y005933D01*
X006290Y006057D01*
X006254Y006143D01*
X006290Y006006D02*
X006422Y006006D01*
X006255Y005848D02*
X006255Y005848D01*
X006165Y005689D02*
X006053Y005689D01*
X005907Y005689D02*
X005052Y005689D01*
X005052Y005607D02*
X004695Y005607D01*
X004695Y005607D01*
X005052Y005607D01*
X005020Y005848D02*
X005705Y005848D01*
X005470Y005531D02*
X006130Y005531D01*
X006135Y005372D02*
X005575Y005372D01*
X005575Y005214D02*
X005761Y005214D01*
X005670Y005055D02*
X005575Y005055D01*
X005575Y004897D02*
X005685Y004897D01*
X005798Y004738D02*
X005549Y004738D01*
X005817Y004263D02*
X004346Y004263D01*
X004390Y004104D02*
X005690Y004104D01*
X006143Y004263D02*
X006181Y004263D01*
X006254Y004143D02*
X006368Y004029D01*
X006450Y003995D01*
X006368Y003961D01*
X006254Y003847D01*
X006290Y003933D01*
X006290Y004057D01*
X006254Y004143D01*
X006270Y004104D02*
X006293Y004104D01*
X006290Y003946D02*
X006353Y003946D01*
X006140Y003629D02*
X005939Y003629D01*
X006130Y004421D02*
X005052Y004421D01*
X005052Y004580D02*
X006130Y004580D01*
X006162Y004738D02*
X006186Y004738D01*
X004695Y004580D02*
X004695Y004580D01*
X004695Y004421D02*
X004695Y004421D01*
X003821Y003629D02*
X001220Y003629D01*
X001154Y003787D02*
X002812Y003787D01*
X002818Y003785D02*
X002942Y003785D01*
X003056Y003832D01*
X003143Y003919D01*
X003190Y004033D01*
X003190Y004157D01*
X003184Y004171D01*
X003184Y004559D01*
X003252Y004627D01*
X003252Y004973D01*
X003248Y004977D01*
X003252Y004992D01*
X003252Y005095D01*
X002954Y005095D01*
X002954Y005095D01*
X002656Y005095D01*
X002656Y004992D01*
X002660Y004977D01*
X002656Y004973D01*
X002656Y004627D01*
X002724Y004559D01*
X002724Y004366D01*
X002704Y004358D01*
X002617Y004270D01*
X002570Y004157D01*
X002570Y004033D01*
X002617Y003919D01*
X002704Y003832D01*
X002818Y003785D01*
X002948Y003787D02*
X003662Y003787D01*
X003504Y003946D02*
X003154Y003946D01*
X003190Y004104D02*
X003350Y004104D01*
X003299Y004263D02*
X003184Y004263D01*
X003184Y004421D02*
X003270Y004421D01*
X003327Y004580D02*
X003205Y004580D01*
X003252Y004738D02*
X003350Y004738D01*
X003357Y004897D02*
X003252Y004897D01*
X003252Y005055D02*
X003494Y005055D01*
X003188Y005689D02*
X002472Y005689D01*
X002490Y005733D02*
X002490Y005857D01*
X002443Y005970D01*
X002356Y006058D01*
X002242Y006105D01*
X002118Y006105D01*
X002004Y006058D01*
X001917Y005970D01*
X001870Y005857D01*
X001870Y005733D01*
X001917Y005620D01*
X001780Y005620D01*
X001465Y005305D01*
X001418Y005305D01*
X001304Y005258D01*
X001217Y005170D01*
X001170Y005057D01*
X001170Y004933D01*
X001217Y004819D01*
X001304Y004732D01*
X001418Y004685D01*
X001542Y004685D01*
X001656Y004732D01*
X001743Y004819D01*
X001790Y004933D01*
X001790Y004980D01*
X001908Y005097D01*
X001908Y005095D01*
X002206Y005095D01*
X002504Y005095D01*
X002504Y005197D01*
X002500Y005213D01*
X002504Y005217D01*
X002504Y005563D01*
X002444Y005623D01*
X002490Y005733D01*
X002490Y005848D02*
X003170Y005848D01*
X003253Y006006D02*
X002407Y006006D01*
X002504Y005531D02*
X002656Y005531D01*
X002656Y005372D02*
X002504Y005372D01*
X002501Y005214D02*
X002659Y005214D01*
X002656Y005055D02*
X002504Y005055D01*
X002504Y005095D02*
X002504Y004992D01*
X002500Y004977D01*
X002504Y004973D01*
X002504Y004627D01*
X002444Y004567D01*
X002490Y004457D01*
X002490Y004333D01*
X002443Y004219D01*
X002356Y004132D01*
X002242Y004085D01*
X002118Y004085D01*
X002004Y004132D01*
X001917Y004219D01*
X001870Y004333D01*
X001870Y004457D01*
X001917Y004570D01*
X001941Y004594D01*
X001908Y004627D01*
X001908Y004973D01*
X001912Y004977D01*
X001908Y004992D01*
X001908Y005095D01*
X002206Y005095D01*
X002206Y005095D01*
X002206Y005095D01*
X002504Y005095D01*
X002504Y004897D02*
X002656Y004897D01*
X002656Y004738D02*
X002504Y004738D01*
X002457Y004580D02*
X002703Y004580D01*
X002724Y004421D02*
X002490Y004421D01*
X002461Y004263D02*
X002614Y004263D01*
X002570Y004104D02*
X002289Y004104D01*
X002071Y004104D02*
X001067Y004104D01*
X001179Y004263D02*
X001899Y004263D01*
X001870Y004421D02*
X001230Y004421D01*
X001230Y004580D02*
X001927Y004580D01*
X001908Y004738D02*
X001662Y004738D01*
X001775Y004897D02*
X001908Y004897D01*
X001908Y005055D02*
X001866Y005055D01*
X001532Y005372D02*
X001225Y005372D01*
X001230Y005531D02*
X001691Y005531D01*
X001888Y005689D02*
X001195Y005689D01*
X001105Y005848D02*
X001870Y005848D01*
X001953Y006006D02*
X000938Y006006D01*
X001149Y006799D02*
X001870Y006799D01*
X001912Y006957D02*
X000995Y006957D01*
X001079Y007116D02*
X001908Y007116D01*
X001908Y007274D02*
X001184Y007274D01*
X001230Y007433D02*
X001908Y007433D01*
X001558Y007591D02*
X001230Y007591D01*
X001287Y007750D02*
X001170Y007750D01*
X001180Y007908D02*
X001044Y007908D01*
X001027Y008067D02*
X001174Y008067D01*
X001160Y008225D02*
X001272Y008225D01*
X001219Y008384D02*
X001931Y008384D01*
X001870Y008225D02*
X001688Y008225D01*
X001786Y008067D02*
X001897Y008067D01*
X002463Y008067D02*
X002760Y008067D01*
X002656Y007908D02*
X002504Y007908D01*
X002504Y007750D02*
X002656Y007750D01*
X002656Y007591D02*
X002504Y007591D01*
X002504Y007433D02*
X002656Y007433D01*
X002656Y007274D02*
X002504Y007274D01*
X002504Y007116D02*
X002656Y007116D01*
X002724Y006957D02*
X002448Y006957D01*
X002490Y006799D02*
X002724Y006799D01*
X002605Y006640D02*
X002452Y006640D01*
X001261Y005214D02*
X001159Y005214D01*
X001170Y005055D02*
X001018Y005055D01*
X001056Y004897D02*
X001185Y004897D01*
X001174Y004738D02*
X001298Y004738D01*
X001007Y003946D02*
X002606Y003946D01*
X004695Y005689D02*
X004695Y005689D01*
X004695Y005848D02*
X004695Y005848D01*
X004695Y006799D02*
X004695Y006799D01*
X004695Y006957D02*
X004695Y006957D01*
X005492Y007908D02*
X005680Y007908D01*
X005575Y007750D02*
X005787Y007750D01*
X005674Y008067D02*
X005052Y008067D01*
X005052Y008007D02*
X004695Y008007D01*
X004695Y008007D01*
X005052Y008007D01*
X005033Y008225D02*
X005772Y008225D01*
X004695Y008225D02*
X004695Y008225D01*
X004695Y008067D02*
X004695Y008067D01*
D19*
X004520Y007745D02*
X005380Y007745D01*
X005380Y007245D01*
X004520Y007245D01*
X004520Y007745D01*
X004520Y007726D02*
X005380Y007726D01*
X005380Y007697D02*
X004520Y007697D01*
X004520Y007669D02*
X005380Y007669D01*
X005380Y007640D02*
X004520Y007640D01*
X004520Y007612D02*
X005380Y007612D01*
X005380Y007583D02*
X004520Y007583D01*
X004520Y007555D02*
X005380Y007555D01*
X005380Y007526D02*
X004520Y007526D01*
X004520Y007498D02*
X005380Y007498D01*
X005380Y007469D02*
X004520Y007469D01*
X004520Y007441D02*
X005380Y007441D01*
X005380Y007412D02*
X004520Y007412D01*
X004520Y007384D02*
X005380Y007384D01*
X005380Y007355D02*
X004520Y007355D01*
X004520Y007327D02*
X005380Y007327D01*
X005380Y007298D02*
X004520Y007298D01*
X004520Y007270D02*
X005380Y007270D01*
X005380Y005345D02*
X004520Y005345D01*
X004520Y004845D01*
X005380Y004845D01*
X005380Y005345D01*
X005380Y005332D02*
X004520Y005332D01*
X004520Y005303D02*
X005380Y005303D01*
X005380Y005275D02*
X004520Y005275D01*
X004520Y005246D02*
X005380Y005246D01*
X005380Y005218D02*
X004520Y005218D01*
X004520Y005189D02*
X005380Y005189D01*
X005380Y005161D02*
X004520Y005161D01*
X004520Y005132D02*
X005380Y005132D01*
X005380Y005104D02*
X004520Y005104D01*
X004520Y005075D02*
X005380Y005075D01*
X005380Y005047D02*
X004520Y005047D01*
X004520Y005018D02*
X005380Y005018D01*
X005380Y004990D02*
X004520Y004990D01*
X004520Y004961D02*
X005380Y004961D01*
X005380Y004933D02*
X004520Y004933D01*
X004520Y004904D02*
X005380Y004904D01*
X005380Y004876D02*
X004520Y004876D01*
X004520Y004847D02*
X005380Y004847D01*
M02*
