%
M48
M72
T01C0.0100
T02C0.0400
%
T01
X1480Y4995
X2180Y4395
X2880Y4095
X3580Y4395
X4080Y4095
X3480Y5395
X3480Y5795
X2880Y6495
X3580Y6795
X4080Y6495
X3480Y7795
X3480Y8195
X2180Y8195
X1480Y7995
X2180Y6795
X2180Y5795
X5180Y5095
X5980Y4995
X5980Y5995
X5180Y7495
X5980Y7995
X5980Y3995
T02
X680Y3495
X680Y4495
X680Y5495
X680Y6495
X680Y7495
X680Y8495
X6680Y8495
X6680Y7495
X6680Y6495
X6680Y5495
X6680Y4495
X6680Y3495
M30
