G75*
G70*
%OFA0B0*%
%FSLAX24Y24*%
%IPPOS*%
%LPD*%
%AMOC8*
5,1,8,0,0,1.08239X$1,22.5*
%
%ADD10C,0.0000*%
%ADD11C,0.0820*%
%ADD12R,0.0316X0.0277*%
%ADD13R,0.0316X0.0237*%
%ADD14R,0.0394X0.0315*%
%ADD15R,0.0394X0.0236*%
D10*
X000180Y002995D02*
X000180Y008995D01*
X007180Y008995D01*
X007180Y002995D01*
X000180Y002995D01*
D11*
X000680Y003495D03*
X000680Y004495D03*
X000680Y005495D03*
X000680Y006495D03*
X000680Y007495D03*
X000680Y008495D03*
X006680Y008495D03*
X006680Y007495D03*
X006680Y006495D03*
X006680Y005495D03*
X006680Y004495D03*
X006680Y003495D03*
D12*
X002954Y004800D03*
X002954Y005390D03*
X002206Y005390D03*
X002206Y004800D03*
X002206Y007200D03*
X002206Y007790D03*
X002954Y007790D03*
X002954Y007200D03*
D13*
X002954Y007495D03*
X002206Y007495D03*
X002206Y005095D03*
X002954Y005095D03*
D14*
X004065Y005607D03*
X004695Y005607D03*
X004695Y004583D03*
X004065Y004583D03*
X004065Y006983D03*
X004695Y006983D03*
X004695Y008007D03*
X004065Y008007D03*
D15*
X004065Y007652D03*
X004065Y007337D03*
X004695Y007337D03*
X004695Y007652D03*
X004695Y005252D03*
X004695Y004937D03*
X004065Y004937D03*
X004065Y005252D03*
M02*
