G75*
G70*
%OFA0B0*%
%FSLAX24Y24*%
%IPPOS*%
%LPD*%
%AMOC8*
5,1,8,0,0,1.08239X$1,22.5*
%
%ADD10C,0.0000*%
%ADD11C,0.0050*%
%ADD12C,0.0080*%
%ADD13C,0.0120*%
%ADD14C,0.0060*%
%ADD15R,0.0002X0.0032*%
%ADD16R,0.0002X0.0050*%
%ADD17R,0.0002X0.0061*%
%ADD18R,0.0002X0.0067*%
%ADD19R,0.0002X0.0074*%
%ADD20R,0.0002X0.0078*%
%ADD21R,0.0002X0.0083*%
%ADD22R,0.0002X0.0086*%
%ADD23R,0.0002X0.0090*%
%ADD24R,0.0002X0.0014*%
%ADD25R,0.0002X0.0016*%
%ADD26R,0.0002X0.0093*%
%ADD27R,0.0002X0.0027*%
%ADD28R,0.0002X0.0002*%
%ADD29R,0.0002X0.0094*%
%ADD30R,0.0002X0.0030*%
%ADD31R,0.0002X0.0022*%
%ADD32R,0.0002X0.0098*%
%ADD33R,0.0002X0.0032*%
%ADD34R,0.0002X0.0032*%
%ADD35R,0.0002X0.0029*%
%ADD36R,0.0002X0.0099*%
%ADD37R,0.0002X0.0032*%
%ADD38R,0.0002X0.0035*%
%ADD39R,0.0002X0.0034*%
%ADD40R,0.0002X0.0056*%
%ADD41R,0.0002X0.0034*%
%ADD42R,0.0002X0.0042*%
%ADD43R,0.0002X0.0048*%
%ADD44R,0.0002X0.0045*%
%ADD45R,0.0002X0.0029*%
%ADD46R,0.0002X0.0042*%
%ADD47R,0.0002X0.0046*%
%ADD48R,0.0002X0.0030*%
%ADD49R,0.0002X0.0040*%
%ADD50R,0.0002X0.0050*%
%ADD51R,0.0002X0.0029*%
%ADD52R,0.0002X0.0038*%
%ADD53R,0.0002X0.0051*%
%ADD54R,0.0002X0.0037*%
%ADD55R,0.0002X0.0053*%
%ADD56R,0.0002X0.0035*%
%ADD57R,0.0002X0.0054*%
%ADD58R,0.0002X0.0035*%
%ADD59R,0.0002X0.0053*%
%ADD60R,0.0002X0.0030*%
%ADD61R,0.0002X0.0010*%
%ADD62R,0.0002X0.0030*%
%ADD63R,0.0002X0.0026*%
%ADD64R,0.0002X0.0024*%
%ADD65R,0.0002X0.0022*%
%ADD66R,0.0002X0.0021*%
%ADD67R,0.0002X0.0016*%
%ADD68R,0.0002X0.0029*%
%ADD69R,0.0002X0.0014*%
%ADD70R,0.0002X0.0011*%
%ADD71R,0.0002X0.0006*%
%ADD72R,0.0002X0.0003*%
%ADD73R,0.0002X0.0035*%
%ADD74R,0.0002X0.0003*%
%ADD75R,0.0002X0.0002*%
%ADD76R,0.0002X0.0005*%
%ADD77R,0.0002X0.0026*%
%ADD78R,0.0002X0.0027*%
%ADD79R,0.0002X0.0014*%
%ADD80R,0.0002X0.0008*%
%ADD81R,0.0002X0.0013*%
%ADD82R,0.0002X0.0037*%
%ADD83R,0.0002X0.0026*%
%ADD84R,0.0002X0.0019*%
%ADD85R,0.0002X0.0043*%
%ADD86R,0.0002X0.0018*%
%ADD87R,0.0002X0.0038*%
%ADD88R,0.0002X0.0040*%
%ADD89R,0.0002X0.0024*%
%ADD90R,0.0002X0.0021*%
%ADD91R,0.0002X0.0054*%
%ADD92R,0.0002X0.0019*%
%ADD93R,0.0002X0.0048*%
%ADD94R,0.0002X0.0042*%
%ADD95R,0.0002X0.0080*%
%ADD96R,0.0002X0.0043*%
%ADD97R,0.0002X0.0027*%
%ADD98R,0.0002X0.0056*%
%ADD99R,0.0002X0.0083*%
%ADD100R,0.0002X0.0061*%
%ADD101R,0.0002X0.0059*%
%ADD102R,0.0002X0.0051*%
%ADD103R,0.0002X0.0082*%
%ADD104R,0.0002X0.0051*%
%ADD105R,0.0002X0.0062*%
%ADD106R,0.0002X0.0086*%
%ADD107R,0.0002X0.0067*%
%ADD108R,0.0002X0.0066*%
%ADD109R,0.0002X0.0064*%
%ADD110R,0.0002X0.0058*%
%ADD111R,0.0002X0.0010*%
%ADD112R,0.0002X0.0085*%
%ADD113R,0.0002X0.0077*%
%ADD114R,0.0002X0.0056*%
%ADD115R,0.0002X0.0037*%
%ADD116R,0.0002X0.0069*%
%ADD117R,0.0002X0.0088*%
%ADD118R,0.0002X0.0074*%
%ADD119R,0.0002X0.0072*%
%ADD120R,0.0002X0.0062*%
%ADD121R,0.0002X0.0070*%
%ADD122R,0.0002X0.0069*%
%ADD123R,0.0002X0.0099*%
%ADD124R,0.0002X0.0098*%
%ADD125R,0.0002X0.0072*%
%ADD126R,0.0002X0.0090*%
%ADD127R,0.0002X0.0077*%
%ADD128R,0.0002X0.0075*%
%ADD129R,0.0002X0.0096*%
%ADD130R,0.0002X0.0091*%
%ADD131R,0.0002X0.0072*%
%ADD132R,0.0002X0.0102*%
%ADD133R,0.0002X0.0077*%
%ADD134R,0.0002X0.0093*%
%ADD135R,0.0002X0.0080*%
%ADD136R,0.0002X0.0070*%
%ADD137R,0.0002X0.0026*%
%ADD138R,0.0002X0.0091*%
%ADD139R,0.0002X0.0038*%
%ADD140R,0.0002X0.0098*%
%ADD141R,0.0002X0.0024*%
%ADD142R,0.0002X0.0106*%
%ADD143R,0.0002X0.0101*%
%ADD144R,0.0002X0.0082*%
%ADD145R,0.0002X0.0094*%
%ADD146R,0.0002X0.0085*%
%ADD147R,0.0002X0.0101*%
%ADD148R,0.0002X0.0093*%
%ADD149R,0.0002X0.0099*%
%ADD150R,0.0002X0.0082*%
%ADD151R,0.0002X0.0107*%
%ADD152R,0.0002X0.0102*%
%ADD153R,0.0002X0.0085*%
%ADD154R,0.0002X0.0096*%
%ADD155R,0.0002X0.0104*%
%ADD156R,0.0002X0.0088*%
%ADD157R,0.0002X0.0094*%
%ADD158R,0.0002X0.0101*%
%ADD159R,0.0002X0.0085*%
%ADD160R,0.0002X0.0104*%
%ADD161R,0.0002X0.0109*%
%ADD162R,0.0002X0.0102*%
%ADD163R,0.0002X0.0088*%
%ADD164R,0.0002X0.0106*%
%ADD165R,0.0002X0.0104*%
%ADD166R,0.0002X0.0088*%
%ADD167R,0.0002X0.0110*%
%ADD168R,0.0002X0.0090*%
%ADD169R,0.0002X0.0110*%
%ADD170R,0.0002X0.0091*%
%ADD171R,0.0002X0.0106*%
%ADD172R,0.0002X0.0038*%
%ADD173R,0.0002X0.0112*%
%ADD174R,0.0002X0.0106*%
%ADD175R,0.0002X0.0094*%
%ADD176R,0.0002X0.0101*%
%ADD177R,0.0002X0.0107*%
%ADD178R,0.0002X0.0114*%
%ADD179R,0.0002X0.0104*%
%ADD180R,0.0002X0.0046*%
%ADD181R,0.0002X0.0045*%
%ADD182R,0.0002X0.0109*%
%ADD183R,0.0002X0.0002*%
%ADD184R,0.0002X0.0042*%
%ADD185R,0.0002X0.0050*%
%ADD186R,0.0002X0.0053*%
%ADD187R,0.0002X0.0048*%
%ADD188R,0.0002X0.0003*%
%ADD189R,0.0002X0.0013*%
%ADD190R,0.0002X0.0008*%
%ADD191R,0.0002X0.0045*%
%ADD192R,0.0002X0.0010*%
%ADD193R,0.0002X0.0069*%
%ADD194R,0.0002X0.0005*%
%ADD195R,0.0002X0.0051*%
%ADD196R,0.0002X0.0058*%
%ADD197R,0.0002X0.0059*%
%ADD198R,0.0002X0.0066*%
%ADD199R,0.0002X0.0034*%
%ADD200R,0.0002X0.0078*%
%ADD201R,0.0002X0.0034*%
%ADD202R,0.0002X0.0002*%
%ADD203R,0.0002X0.0090*%
%ADD204R,0.0002X0.0048*%
%ADD205R,0.0002X0.0096*%
%ADD206R,0.0002X0.0091*%
%ADD207R,0.0002X0.0078*%
%ADD208R,0.0002X0.0075*%
%ADD209R,0.0002X0.0053*%
%ADD210R,0.0002X0.0006*%
%ADD211R,0.0002X0.0045*%
%ADD212R,0.0002X0.0011*%
%ADD213R,0.0002X0.0011*%
%ADD214R,0.0002X0.0037*%
%ADD215R,0.0002X0.0022*%
%ADD216R,0.0002X0.0022*%
%ADD217R,0.0002X0.0018*%
%ADD218R,0.0002X0.0019*%
%ADD219R,0.0002X0.0054*%
%ADD220R,0.0002X0.0109*%
%ADD221R,0.0002X0.0107*%
%ADD222R,0.0002X0.0107*%
%ADD223R,0.0002X0.0098*%
%ADD224R,0.0002X0.0078*%
%ADD225R,0.0002X0.0086*%
%ADD226R,0.0002X0.0109*%
%ADD227R,0.0002X0.0082*%
%ADD228R,0.0002X0.0102*%
%ADD229R,0.0002X0.0074*%
%ADD230R,0.0002X0.0075*%
%ADD231R,0.0002X0.0070*%
%ADD232R,0.0002X0.0067*%
%ADD233R,0.0002X0.0066*%
%ADD234R,0.0002X0.0099*%
%ADD235R,0.0002X0.0013*%
%ADD236R,0.0002X0.0066*%
%ADD237R,0.0002X0.0016*%
%ADD238R,0.0002X0.0062*%
%ADD239R,0.0002X0.0062*%
%ADD240R,0.0002X0.0008*%
%ADD241R,0.0002X0.0018*%
%ADD242R,0.0002X0.0005*%
%ADD243R,0.0002X0.2134*%
%ADD244R,0.0002X0.2155*%
%ADD245R,0.0002X0.2168*%
%ADD246R,0.0002X0.2178*%
%ADD247R,0.0002X0.2186*%
%ADD248R,0.0002X0.2194*%
%ADD249R,0.0002X0.2202*%
%ADD250R,0.0002X0.2206*%
%ADD251R,0.0002X0.2211*%
%ADD252R,0.0002X0.2218*%
%ADD253R,0.0002X0.2222*%
%ADD254R,0.0002X0.2227*%
%ADD255R,0.0002X0.2230*%
%ADD256R,0.0002X0.2235*%
%ADD257R,0.0002X0.2238*%
%ADD258R,0.0002X0.2243*%
%ADD259R,0.0002X0.2246*%
%ADD260R,0.0002X0.2250*%
%ADD261R,0.0002X0.2253*%
%ADD262R,0.0002X0.2256*%
%ADD263R,0.0002X0.2258*%
%ADD264R,0.0002X0.2261*%
%ADD265R,0.0002X0.2262*%
%ADD266R,0.0002X0.2266*%
%ADD267R,0.0002X0.2269*%
%ADD268R,0.0002X0.2270*%
%ADD269R,0.0002X0.2272*%
%ADD270R,0.0002X0.2275*%
%ADD271R,0.0002X0.2277*%
%ADD272R,0.0002X0.2278*%
%ADD273R,0.0002X0.2282*%
%ADD274R,0.0002X0.2283*%
%ADD275R,0.0002X0.2285*%
%ADD276R,0.0002X0.2285*%
%ADD277R,0.0002X0.2288*%
%ADD278R,0.0002X0.2288*%
%ADD279R,0.0002X0.2291*%
%ADD280R,0.0002X0.2291*%
%ADD281R,0.0002X0.2293*%
%ADD282R,0.0002X0.2294*%
%ADD283R,0.0002X0.2294*%
%ADD284R,0.0002X0.2296*%
%ADD285R,0.0002X0.2298*%
%ADD286R,0.0002X0.2298*%
%ADD287R,0.0002X0.2299*%
%ADD288R,0.0002X0.2301*%
%ADD289R,0.0002X0.2301*%
%ADD290R,0.0002X0.2302*%
%ADD291R,0.0002X0.2302*%
%ADD292R,0.0002X0.2304*%
%ADD293R,0.0002X0.2304*%
%ADD294R,0.0002X0.2306*%
%ADD295R,0.0002X0.2306*%
%ADD296R,0.0002X0.2307*%
%ADD297R,0.0002X0.2307*%
%ADD298R,0.0002X0.0491*%
%ADD299R,0.0002X0.1787*%
%ADD300R,0.0002X0.0485*%
%ADD301R,0.0002X0.1781*%
%ADD302R,0.0002X0.0485*%
%ADD303R,0.0002X0.1776*%
%ADD304R,0.0002X0.1774*%
%ADD305R,0.0002X0.1773*%
%ADD306R,0.0002X0.1773*%
%ADD307R,0.0002X0.0483*%
%ADD308R,0.0002X0.0483*%
%ADD309R,0.0002X0.0147*%
%ADD310R,0.0002X0.0126*%
%ADD311R,0.0002X0.0333*%
%ADD312R,0.0002X0.0437*%
%ADD313R,0.0002X0.0118*%
%ADD314R,0.0002X0.0170*%
%ADD315R,0.0002X0.0158*%
%ADD316R,0.0002X0.0134*%
%ADD317R,0.0002X0.0112*%
%ADD318R,0.0002X0.0317*%
%ADD319R,0.0002X0.0414*%
%ADD320R,0.0002X0.0150*%
%ADD321R,0.0002X0.0149*%
%ADD322R,0.0002X0.0126*%
%ADD323R,0.0002X0.0302*%
%ADD324R,0.0002X0.0402*%
%ADD325R,0.0002X0.0136*%
%ADD326R,0.0002X0.0142*%
%ADD327R,0.0002X0.0125*%
%ADD328R,0.0002X0.0118*%
%ADD329R,0.0002X0.0093*%
%ADD330R,0.0002X0.0163*%
%ADD331R,0.0002X0.0229*%
%ADD332R,0.0002X0.0125*%
%ADD333R,0.0002X0.0138*%
%ADD334R,0.0002X0.0114*%
%ADD335R,0.0002X0.0192*%
%ADD336R,0.0002X0.0117*%
%ADD337R,0.0002X0.0133*%
%ADD338R,0.0002X0.0179*%
%ADD339R,0.0002X0.0061*%
%ADD340R,0.0002X0.0064*%
%ADD341R,0.0002X0.0130*%
%ADD342R,0.0002X0.0138*%
%ADD343R,0.0002X0.0176*%
%ADD344R,0.0002X0.0054*%
%ADD345R,0.0002X0.0126*%
%ADD346R,0.0002X0.0133*%
%ADD347R,0.0002X0.0174*%
%ADD348R,0.0002X0.0123*%
%ADD349R,0.0002X0.0130*%
%ADD350R,0.0002X0.0171*%
%ADD351R,0.0002X0.0120*%
%ADD352R,0.0002X0.0064*%
%ADD353R,0.0002X0.0123*%
%ADD354R,0.0002X0.0168*%
%ADD355R,0.0002X0.0115*%
%ADD356R,0.0002X0.0120*%
%ADD357R,0.0002X0.0163*%
%ADD358R,0.0002X0.0118*%
%ADD359R,0.0002X0.0162*%
%ADD360R,0.0002X0.0058*%
%ADD361R,0.0002X0.0117*%
%ADD362R,0.0002X0.0162*%
%ADD363R,0.0002X0.0115*%
%ADD364R,0.0002X0.0160*%
%ADD365R,0.0002X0.0158*%
%ADD366R,0.0002X0.0157*%
%ADD367R,0.0002X0.0064*%
%ADD368R,0.0002X0.0157*%
%ADD369R,0.0002X0.0155*%
%ADD370R,0.0002X0.0155*%
%ADD371R,0.0002X0.0058*%
%ADD372R,0.0002X0.0157*%
%ADD373R,0.0002X0.0157*%
%ADD374R,0.0002X0.0014*%
%ADD375R,0.0002X0.0061*%
%ADD376R,0.0002X0.0136*%
%ADD377R,0.0002X0.0158*%
%ADD378R,0.0002X0.0158*%
%ADD379R,0.0002X0.0139*%
%ADD380R,0.0002X0.0139*%
%ADD381R,0.0002X0.0050*%
%ADD382R,0.0002X0.0141*%
%ADD383R,0.0002X0.0096*%
%ADD384R,0.0002X0.0160*%
%ADD385R,0.0002X0.0142*%
%ADD386R,0.0002X0.0253*%
%ADD387R,0.0002X0.0254*%
%ADD388R,0.0002X0.0144*%
%ADD389R,0.0002X0.0254*%
%ADD390R,0.0002X0.0134*%
%ADD391R,0.0002X0.0144*%
%ADD392R,0.0002X0.0256*%
%ADD393R,0.0002X0.0134*%
%ADD394R,0.0002X0.0146*%
%ADD395R,0.0002X0.0258*%
%ADD396R,0.0002X0.0027*%
%ADD397R,0.0002X0.0258*%
%ADD398R,0.0002X0.0133*%
%ADD399R,0.0002X0.0147*%
%ADD400R,0.0002X0.0069*%
%ADD401R,0.0002X0.0259*%
%ADD402R,0.0002X0.0149*%
%ADD403R,0.0002X0.0259*%
%ADD404R,0.0002X0.0261*%
%ADD405R,0.0002X0.0150*%
%ADD406R,0.0002X0.0261*%
%ADD407R,0.0002X0.0152*%
%ADD408R,0.0002X0.0152*%
%ADD409R,0.0002X0.0262*%
%ADD410R,0.0002X0.0154*%
%ADD411R,0.0002X0.0262*%
%ADD412R,0.0002X0.0128*%
%ADD413R,0.0002X0.0013*%
%ADD414R,0.0002X0.0128*%
%ADD415R,0.0002X0.0072*%
%ADD416R,0.0002X0.0264*%
%ADD417R,0.0002X0.0125*%
%ADD418R,0.0002X0.0070*%
%ADD419R,0.0002X0.0264*%
%ADD420R,0.0002X0.0074*%
%ADD421R,0.0002X0.0122*%
%ADD422R,0.0002X0.0075*%
%ADD423R,0.0002X0.0266*%
%ADD424R,0.0002X0.0266*%
%ADD425R,0.0002X0.0077*%
%ADD426R,0.0002X0.0115*%
%ADD427R,0.0002X0.0165*%
%ADD428R,0.0002X0.0122*%
%ADD429R,0.0002X0.0165*%
%ADD430R,0.0002X0.0122*%
%ADD431R,0.0002X0.0166*%
%ADD432R,0.0002X0.0166*%
%ADD433R,0.0002X0.0168*%
%ADD434R,0.0002X0.0125*%
%ADD435R,0.0002X0.0170*%
%ADD436R,0.0002X0.0267*%
%ADD437R,0.0002X0.0171*%
%ADD438R,0.0002X0.0267*%
%ADD439R,0.0002X0.0171*%
%ADD440R,0.0002X0.0173*%
%ADD441R,0.0002X0.0174*%
%ADD442R,0.0002X0.0214*%
%ADD443R,0.0002X0.0174*%
%ADD444R,0.0002X0.0192*%
%ADD445R,0.0002X0.0182*%
%ADD446R,0.0002X0.0083*%
%ADD447R,0.0002X0.0176*%
%ADD448R,0.0002X0.0131*%
%ADD449R,0.0002X0.0178*%
%ADD450R,0.0002X0.0179*%
%ADD451R,0.0002X0.0162*%
%ADD452R,0.0002X0.0181*%
%ADD453R,0.0002X0.0181*%
%ADD454R,0.0002X0.0182*%
%ADD455R,0.0002X0.0184*%
%ADD456R,0.0002X0.0141*%
%ADD457R,0.0002X0.0186*%
%ADD458R,0.0002X0.0186*%
%ADD459R,0.0002X0.0150*%
%ADD460R,0.0002X0.0184*%
%ADD461R,0.0002X0.0154*%
%ADD462R,0.0002X0.0178*%
%ADD463R,0.0002X0.0144*%
%ADD464R,0.0002X0.0189*%
%ADD465R,0.0002X0.0067*%
%ADD466R,0.0002X0.0197*%
%ADD467R,0.0002X0.0173*%
%ADD468R,0.0002X0.0227*%
%ADD469R,0.0002X0.0227*%
%ADD470R,0.0002X0.0168*%
%ADD471R,0.0002X0.0226*%
%ADD472R,0.0002X0.0226*%
%ADD473R,0.0002X0.0059*%
%ADD474R,0.0002X0.0059*%
%ADD475R,0.0002X0.0138*%
%ADD476R,0.0002X0.0018*%
%ADD477R,0.0002X0.0016*%
%ADD478R,0.0002X0.0162*%
%ADD479R,0.0002X0.0131*%
%ADD480R,0.0002X0.0165*%
%ADD481R,0.0002X0.0168*%
%ADD482R,0.0002X0.0005*%
%ADD483R,0.0002X0.0171*%
%ADD484R,0.0002X0.0146*%
%ADD485R,0.0002X0.0147*%
%ADD486R,0.0002X0.0150*%
%ADD487R,0.0002X0.0181*%
%ADD488R,0.0002X0.0184*%
%ADD489R,0.0002X0.0112*%
%ADD490R,0.0002X0.0187*%
%ADD491R,0.0002X0.0190*%
%ADD492R,0.0002X0.0246*%
%ADD493R,0.0002X0.0181*%
%ADD494R,0.0002X0.0195*%
%ADD495R,0.0002X0.0422*%
%ADD496R,0.0002X0.0195*%
%ADD497R,0.0002X0.0202*%
%ADD498R,0.0002X0.0190*%
%ADD499R,0.0002X0.0430*%
%ADD500R,0.0002X0.0346*%
%ADD501R,0.0002X0.0211*%
%ADD502R,0.0002X0.0202*%
%ADD503R,0.0002X0.0568*%
%ADD504R,0.0002X0.0725*%
%ADD505R,0.0002X0.0330*%
%ADD506R,0.0002X0.0395*%
%ADD507R,0.0002X0.0568*%
%ADD508R,0.0002X0.0725*%
%ADD509R,0.0002X0.0330*%
%ADD510R,0.0002X0.0395*%
%ADD511R,0.0002X0.0491*%
%ADD512R,0.0002X0.0482*%
%ADD513R,0.0002X0.0480*%
%ADD514R,0.0002X0.0478*%
%ADD515R,0.0002X0.0477*%
%ADD516R,0.0002X0.0477*%
%ADD517R,0.0002X0.0475*%
%ADD518R,0.0002X0.0475*%
%ADD519R,0.0002X0.0474*%
%ADD520R,0.0002X0.0474*%
%ADD521R,0.0002X0.0723*%
%ADD522R,0.0002X0.0723*%
%ADD523R,0.0002X0.0470*%
%ADD524R,0.0002X0.0086*%
%ADD525R,0.0002X0.0470*%
%ADD526R,0.0002X0.0328*%
%ADD527R,0.0002X0.0328*%
%ADD528R,0.0002X0.0726*%
%ADD529R,0.0002X0.0728*%
%ADD530R,0.0002X0.0730*%
%ADD531R,0.0002X0.0331*%
%ADD532R,0.0002X0.0733*%
%ADD533R,0.0002X0.0331*%
%ADD534R,0.0002X0.0738*%
%ADD535R,0.0002X0.0706*%
%ADD536R,0.0002X0.0750*%
%ADD537R,0.0002X0.0334*%
%ADD538R,0.0002X0.0706*%
%ADD539R,0.0002X0.1104*%
%ADD540R,0.0002X0.1104*%
%ADD541R,0.0002X0.0397*%
%ADD542R,0.0002X0.0397*%
%ADD543R,0.0002X0.0707*%
%ADD544R,0.0002X0.1106*%
%ADD545R,0.0002X0.0707*%
%ADD546R,0.0002X0.1109*%
%ADD547R,0.0002X0.0709*%
%ADD548R,0.0002X0.1109*%
%ADD549R,0.0002X0.0710*%
%ADD550R,0.0002X0.1110*%
%ADD551R,0.0002X0.0712*%
%ADD552R,0.0002X0.1114*%
%ADD553R,0.0002X0.0398*%
%ADD554R,0.0002X0.0714*%
%ADD555R,0.0002X0.1115*%
%ADD556R,0.0002X0.0398*%
%ADD557R,0.0002X0.0717*%
%ADD558R,0.0002X0.1118*%
%ADD559R,0.0002X0.1126*%
%ADD560R,0.0002X0.0733*%
%ADD561R,0.0002X0.1134*%
%ADD562R,0.0002X0.0400*%
%ADD563R,0.0002X0.2299*%
%ADD564R,0.0002X0.2296*%
%ADD565R,0.0002X0.2293*%
%ADD566R,0.0002X0.2286*%
%ADD567R,0.0002X0.2283*%
%ADD568R,0.0002X0.2282*%
%ADD569R,0.0002X0.2278*%
%ADD570R,0.0002X0.2277*%
%ADD571R,0.0002X0.2275*%
%ADD572R,0.0002X0.2272*%
%ADD573R,0.0002X0.2270*%
%ADD574R,0.0002X0.2269*%
%ADD575R,0.0002X0.2266*%
%ADD576R,0.0002X0.2264*%
%ADD577R,0.0002X0.2261*%
%ADD578R,0.0002X0.2259*%
%ADD579R,0.0002X0.2256*%
%ADD580R,0.0002X0.2253*%
%ADD581R,0.0002X0.2250*%
%ADD582R,0.0002X0.2243*%
%ADD583R,0.0002X0.2240*%
%ADD584R,0.0002X0.2235*%
%ADD585R,0.0002X0.2230*%
%ADD586R,0.0002X0.2227*%
%ADD587R,0.0002X0.2222*%
%ADD588R,0.0002X0.2218*%
%ADD589R,0.0002X0.2213*%
%ADD590R,0.0002X0.2208*%
%ADD591R,0.0002X0.2202*%
%ADD592R,0.0002X0.2195*%
%ADD593R,0.0002X0.2189*%
%ADD594R,0.0002X0.2179*%
%ADD595R,0.0002X0.2170*%
%ADD596R,0.0002X0.2158*%
%ADD597R,0.0002X0.2142*%
D10*
X000180Y002995D02*
X000180Y008995D01*
X007180Y008995D01*
X007180Y002995D01*
X000180Y002995D01*
D11*
X004245Y006021D02*
X004455Y006021D01*
X004455Y006056D02*
X004455Y005986D01*
X004455Y006155D02*
X004350Y006155D01*
X004315Y006190D01*
X004315Y006261D01*
X004385Y006261D02*
X004385Y006155D01*
X004455Y006155D02*
X004455Y006261D01*
X004420Y006296D01*
X004385Y006261D01*
X004350Y006395D02*
X004315Y006430D01*
X004315Y006535D01*
X004455Y006535D01*
X004420Y006634D02*
X004350Y006634D01*
X004315Y006669D01*
X004315Y006739D01*
X004350Y006774D01*
X004420Y006774D01*
X004455Y006739D01*
X004455Y006669D01*
X004420Y006634D01*
X004455Y006864D02*
X004455Y006934D01*
X004455Y006899D02*
X004315Y006899D01*
X004315Y006934D01*
X004245Y006899D02*
X004210Y006899D01*
X004315Y007023D02*
X004315Y007094D01*
X004280Y007059D02*
X004420Y007059D01*
X004455Y007023D01*
X004455Y007193D02*
X004455Y007298D01*
X004420Y007333D01*
X004350Y007333D01*
X004315Y007298D01*
X004315Y007193D01*
X004350Y007432D02*
X004385Y007432D01*
X004385Y007572D01*
X004420Y007572D02*
X004350Y007572D01*
X004315Y007537D01*
X004315Y007467D01*
X004350Y007432D01*
X004455Y007467D02*
X004455Y007537D01*
X004420Y007572D01*
X004315Y007667D02*
X004315Y007702D01*
X004385Y007772D01*
X004455Y007772D02*
X004315Y007772D01*
X004315Y007896D02*
X004455Y007896D01*
X004455Y007931D02*
X004455Y007861D01*
X004315Y007896D02*
X004315Y007931D01*
X004245Y007896D02*
X004210Y007896D01*
X004245Y008031D02*
X004455Y008031D01*
X004455Y008136D01*
X004420Y008171D01*
X004350Y008171D01*
X004315Y008136D01*
X004315Y008031D01*
X004315Y008295D02*
X004455Y008295D01*
X004455Y008330D02*
X004455Y008260D01*
X004315Y008295D02*
X004315Y008330D01*
X004245Y008295D02*
X004210Y008295D01*
X004280Y008430D02*
X004245Y008465D01*
X004245Y008570D01*
X004455Y008570D01*
X004455Y008465D01*
X004420Y008430D01*
X004385Y008430D01*
X004350Y008465D01*
X004350Y008570D01*
X004350Y008465D02*
X004315Y008430D01*
X004280Y008430D01*
X004745Y008570D02*
X004955Y008570D01*
X004955Y008430D01*
X004920Y008330D02*
X004850Y008330D01*
X004815Y008295D01*
X004815Y008225D01*
X004850Y008190D01*
X004920Y008190D01*
X004955Y008225D01*
X004955Y008295D01*
X004920Y008330D01*
X004920Y008091D02*
X004850Y008091D01*
X004815Y008056D01*
X004815Y007951D01*
X004990Y007951D01*
X005025Y007986D01*
X005025Y008021D01*
X004955Y008056D02*
X004955Y007951D01*
X004955Y007852D02*
X004955Y007782D01*
X004955Y007817D02*
X004815Y007817D01*
X004815Y007852D01*
X004745Y007817D02*
X004710Y007817D01*
X004850Y007692D02*
X004815Y007657D01*
X004815Y007552D01*
X004955Y007552D02*
X004955Y007657D01*
X004920Y007692D01*
X004850Y007692D01*
X004955Y008056D02*
X004920Y008091D01*
X004955Y007213D02*
X004745Y007213D01*
X004955Y007213D02*
X004955Y007073D01*
X004920Y006974D02*
X004850Y006974D01*
X004815Y006939D01*
X004815Y006869D01*
X004850Y006834D01*
X004885Y006834D01*
X004885Y006974D01*
X004920Y006974D02*
X004955Y006939D01*
X004955Y006869D01*
X004815Y006734D02*
X004955Y006664D01*
X004815Y006594D01*
X004850Y006495D02*
X004815Y006460D01*
X004815Y006390D01*
X004850Y006355D01*
X004885Y006355D01*
X004885Y006495D01*
X004920Y006495D02*
X004850Y006495D01*
X004920Y006495D02*
X004955Y006460D01*
X004955Y006390D01*
X004955Y006256D02*
X004955Y006186D01*
X004955Y006221D02*
X004745Y006221D01*
X004745Y006256D01*
X004455Y006395D02*
X004350Y006395D01*
X004245Y006056D02*
X004245Y006021D01*
X004745Y005822D02*
X004745Y005752D01*
X004780Y005717D01*
X004745Y005822D02*
X004780Y005857D01*
X004920Y005857D01*
X004955Y005822D01*
X004955Y005752D01*
X004920Y005717D01*
X004920Y005617D02*
X004850Y005617D01*
X004815Y005582D01*
X004815Y005512D01*
X004850Y005477D01*
X004920Y005477D01*
X004955Y005512D01*
X004955Y005582D01*
X004920Y005617D01*
X004955Y005378D02*
X004815Y005378D01*
X004815Y005273D01*
X004850Y005238D01*
X004955Y005238D01*
X004955Y005068D02*
X004815Y004998D01*
X004850Y004899D02*
X004815Y004864D01*
X004815Y004794D01*
X004850Y004759D01*
X004885Y004759D01*
X004885Y004899D01*
X004920Y004899D02*
X004850Y004899D01*
X004920Y004899D02*
X004955Y004864D01*
X004955Y004794D01*
X004955Y004660D02*
X004815Y004660D01*
X004885Y004660D02*
X004815Y004590D01*
X004815Y004555D01*
X004815Y004460D02*
X004815Y004390D01*
X004780Y004425D02*
X004920Y004425D01*
X004955Y004390D01*
X004920Y004301D02*
X004850Y004301D01*
X004815Y004265D01*
X004815Y004195D01*
X004850Y004160D01*
X004885Y004160D01*
X004885Y004301D01*
X004920Y004301D02*
X004955Y004265D01*
X004955Y004195D01*
X004955Y004061D02*
X004815Y004061D01*
X004885Y004061D02*
X004815Y003991D01*
X004815Y003956D01*
X004955Y005068D02*
X004815Y005138D01*
D12*
X003780Y004115D02*
X003810Y003955D01*
X003930Y003905D01*
X004070Y003995D01*
X004160Y003905D01*
X004070Y003775D01*
X004120Y003655D01*
X004270Y003625D01*
X004270Y003495D01*
X004130Y003465D01*
X004070Y003335D01*
X004160Y003205D01*
X004070Y003115D01*
X003950Y003195D01*
X003890Y003165D01*
X003800Y003395D01*
X003640Y003395D02*
X003540Y003165D01*
X003490Y003195D01*
X003370Y003115D01*
X003280Y003205D01*
X003360Y003335D01*
X003310Y003465D01*
X003160Y003495D01*
X003160Y003625D01*
X003310Y003645D01*
X003370Y003775D01*
X003280Y003905D01*
X003370Y003995D01*
X003500Y003905D01*
X003620Y003955D01*
X003650Y004115D01*
X003780Y004115D01*
X003800Y003395D02*
X003822Y003408D01*
X003842Y003424D01*
X003860Y003443D01*
X003875Y003465D01*
X003886Y003488D01*
X003894Y003513D01*
X003898Y003538D01*
X003899Y003564D01*
X003896Y003590D01*
X003889Y003615D01*
X003878Y003638D01*
X003865Y003660D01*
X003848Y003680D01*
X003829Y003697D01*
X003807Y003712D01*
X003783Y003722D01*
X003759Y003730D01*
X003733Y003734D01*
X003707Y003734D01*
X003681Y003730D01*
X003657Y003722D01*
X003633Y003712D01*
X003611Y003697D01*
X003592Y003680D01*
X003575Y003660D01*
X003562Y003638D01*
X003551Y003615D01*
X003544Y003590D01*
X003541Y003564D01*
X003542Y003538D01*
X003546Y003513D01*
X003554Y003488D01*
X003565Y003465D01*
X003580Y003443D01*
X003598Y003424D01*
X003618Y003408D01*
X003640Y003395D01*
X003580Y003395D02*
X003500Y003235D01*
X003420Y003275D01*
X003340Y003235D01*
X003380Y003195D01*
X003460Y003215D01*
X001180Y003245D02*
X000930Y002995D01*
X000430Y002995D01*
X000180Y003245D01*
X000180Y003745D01*
X000430Y003995D01*
X000180Y004245D01*
X000180Y004745D01*
X000430Y004995D01*
X000180Y005245D01*
X000180Y005745D01*
X000430Y005995D01*
X000180Y006245D01*
X000180Y006745D01*
X000430Y006995D01*
X000180Y007245D01*
X000180Y007745D01*
X000430Y007995D01*
X000180Y008245D01*
X000180Y008745D01*
X000430Y008995D01*
X000930Y008995D01*
X001180Y008745D01*
X001180Y008245D01*
X000930Y007995D01*
X001180Y007745D01*
X001180Y007245D01*
X000930Y006995D01*
X001180Y006745D01*
X001180Y006245D01*
X000930Y005995D01*
X001180Y005745D01*
X001180Y005245D01*
X000930Y004995D01*
X001180Y004745D01*
X001180Y004245D01*
X000930Y003995D01*
X001180Y003745D01*
X001180Y003245D01*
X006180Y003245D02*
X006180Y003745D01*
X006430Y003995D01*
X006180Y004245D01*
X006180Y004745D01*
X006430Y004995D01*
X006180Y005245D01*
X006180Y005745D01*
X006430Y005995D01*
X006180Y006245D01*
X006180Y006745D01*
X006430Y006995D01*
X006180Y007245D01*
X006180Y007745D01*
X006430Y007995D01*
X006180Y008245D01*
X006180Y008745D01*
X006430Y008995D01*
X006930Y008995D01*
X007180Y008745D01*
X007180Y008245D01*
X006930Y007995D01*
X007180Y007745D01*
X007180Y007245D01*
X006930Y006995D01*
X007180Y006745D01*
X007180Y006245D01*
X006930Y005995D01*
X007180Y005745D01*
X007180Y005245D01*
X006930Y004995D01*
X007180Y004745D01*
X007180Y004245D01*
X006930Y003995D01*
X007180Y003745D01*
X007180Y003245D01*
X006930Y002995D01*
X006430Y002995D01*
X006180Y003245D01*
D13*
X004220Y003595D02*
X004180Y003555D01*
X004060Y003595D01*
X003980Y003355D01*
X004060Y003195D01*
X003940Y003235D01*
X003900Y003355D01*
X003940Y003435D01*
X003980Y003635D01*
X003860Y003795D01*
X003620Y003755D01*
X003540Y003875D01*
X003540Y003715D01*
X003380Y003915D01*
X003500Y003515D01*
X003500Y003755D01*
X003460Y003755D01*
X003340Y003515D01*
X003220Y003555D01*
X003380Y003595D01*
X003500Y003435D01*
X003380Y003435D01*
X003460Y003475D01*
X003420Y003315D01*
X003580Y003395D01*
X003780Y003835D02*
X003700Y003995D01*
X003700Y004035D01*
X003700Y004075D01*
X003700Y004035D02*
X003820Y003915D01*
X003620Y003915D01*
X003660Y003875D01*
X004060Y003795D01*
X004060Y003915D01*
X003940Y003875D01*
X004020Y003675D01*
X004100Y003555D01*
X004060Y003435D01*
D14*
X005187Y003368D02*
X005187Y003542D01*
X005231Y003585D01*
X005361Y003585D01*
X005361Y003325D01*
X005231Y003325D01*
X005187Y003368D01*
X005482Y003325D02*
X005482Y003585D01*
X005655Y003585D02*
X005482Y003325D01*
X005655Y003325D02*
X005655Y003585D01*
X005777Y003542D02*
X005820Y003585D01*
X005907Y003585D01*
X005950Y003542D01*
X005950Y003368D01*
X005907Y003325D01*
X005820Y003325D01*
X005777Y003368D01*
X005777Y003455D01*
X005863Y003455D01*
X005777Y004325D02*
X005777Y004585D01*
X005777Y004455D02*
X005950Y004455D01*
X005950Y004325D02*
X005950Y004585D01*
X005655Y004455D02*
X005482Y004455D01*
X005525Y004325D02*
X005525Y004585D01*
X005655Y004455D01*
X005612Y005325D02*
X005525Y005325D01*
X005482Y005368D01*
X005482Y005412D01*
X005525Y005455D01*
X005569Y005455D01*
X005525Y005455D02*
X005482Y005498D01*
X005482Y005542D01*
X005525Y005585D01*
X005612Y005585D01*
X005655Y005542D01*
X005777Y005585D02*
X005777Y005325D01*
X005655Y005368D02*
X005612Y005325D01*
X005777Y005455D02*
X005950Y005455D01*
X005950Y005325D02*
X005950Y005585D01*
X005950Y006325D02*
X005950Y006585D01*
X005950Y006455D02*
X005777Y006455D01*
X005777Y006585D02*
X005777Y006325D01*
X005655Y006325D02*
X005482Y006498D01*
X005482Y006542D01*
X005525Y006585D01*
X005612Y006585D01*
X005655Y006542D01*
X005655Y006325D02*
X005482Y006325D01*
X005482Y007325D02*
X005655Y007325D01*
X005569Y007325D02*
X005569Y007585D01*
X005655Y007498D01*
X005777Y007455D02*
X005950Y007455D01*
X005950Y007325D02*
X005950Y007585D01*
X005777Y007585D02*
X005777Y007325D01*
X005777Y008325D02*
X005777Y008585D01*
X005655Y008585D02*
X005655Y008412D01*
X005569Y008325D01*
X005482Y008412D01*
X005482Y008585D01*
X005777Y008455D02*
X005950Y008455D01*
X005950Y008325D02*
X005950Y008585D01*
X001850Y008585D02*
X001850Y008325D01*
X001677Y008325D01*
X001555Y008412D02*
X001469Y008325D01*
X001382Y008412D01*
X001382Y008585D01*
X001555Y008585D02*
X001555Y008412D01*
X001469Y007585D02*
X001469Y007325D01*
X001555Y007325D02*
X001382Y007325D01*
X001555Y007498D02*
X001469Y007585D01*
X001677Y007325D02*
X001850Y007325D01*
X001850Y007585D01*
X001850Y006585D02*
X001850Y006325D01*
X001677Y006325D01*
X001555Y006325D02*
X001382Y006498D01*
X001382Y006542D01*
X001425Y006585D01*
X001512Y006585D01*
X001555Y006542D01*
X001555Y006325D02*
X001382Y006325D01*
X001425Y005585D02*
X001382Y005542D01*
X001382Y005498D01*
X001425Y005455D01*
X001382Y005412D01*
X001382Y005368D01*
X001425Y005325D01*
X001512Y005325D01*
X001555Y005368D01*
X001677Y005325D02*
X001850Y005325D01*
X001850Y005585D01*
X001555Y005542D02*
X001512Y005585D01*
X001425Y005585D01*
X001425Y005455D02*
X001469Y005455D01*
X001425Y004585D02*
X001555Y004455D01*
X001382Y004455D01*
X001425Y004325D02*
X001425Y004585D01*
X001677Y004325D02*
X001850Y004325D01*
X001850Y004585D01*
X001855Y003585D02*
X001682Y003325D01*
X001682Y003585D01*
X001561Y003585D02*
X001431Y003585D01*
X001387Y003542D01*
X001387Y003368D01*
X001431Y003325D01*
X001561Y003325D01*
X001561Y003585D01*
X001855Y003585D02*
X001855Y003325D01*
X001977Y003368D02*
X001977Y003455D01*
X002063Y003455D01*
X001977Y003542D02*
X002020Y003585D01*
X002107Y003585D01*
X002150Y003542D01*
X002150Y003368D01*
X002107Y003325D01*
X002020Y003325D01*
X001977Y003368D01*
D15*
X003490Y005819D03*
X003494Y005819D03*
X003359Y005884D03*
X003386Y006198D03*
X003390Y006198D03*
X003393Y006198D03*
X003396Y006198D03*
X003399Y006198D03*
X003401Y006198D03*
X003404Y006198D03*
X003473Y006198D03*
X003510Y006251D03*
X003519Y006251D03*
X003534Y006257D03*
X003537Y006259D03*
X003540Y006262D03*
X003577Y006328D03*
X003497Y006425D03*
X003494Y006425D03*
X003444Y006441D03*
X003433Y006444D03*
X003430Y006444D03*
X003420Y006448D03*
X003410Y006451D03*
X003404Y006452D03*
X003399Y006454D03*
X003390Y006457D03*
X003396Y006395D03*
X003386Y006392D03*
X003383Y006392D03*
X003374Y006388D03*
X003370Y006388D03*
X003390Y006337D03*
X003393Y006337D03*
X003396Y006337D03*
X003399Y006337D03*
X003401Y006337D03*
X003404Y006337D03*
X003386Y006336D03*
X003380Y006334D03*
X003377Y006332D03*
X003390Y006265D03*
X003420Y006265D03*
X003423Y006265D03*
X003457Y006592D03*
X003457Y006648D03*
X003460Y006648D03*
X003463Y006648D03*
X003466Y006648D03*
X003470Y006648D03*
X003473Y006648D03*
X003476Y006648D03*
X003454Y006648D03*
X003450Y006648D03*
X003447Y006648D03*
X003444Y006648D03*
X003441Y006648D03*
X003439Y006648D03*
X003436Y006648D03*
X003433Y006648D03*
X003430Y006648D03*
X003426Y006648D03*
X003423Y006648D03*
X003420Y006648D03*
X003417Y006648D03*
X003414Y006648D03*
X003410Y006648D03*
X003407Y006648D03*
X003404Y006648D03*
X003401Y006648D03*
X003399Y006648D03*
X003396Y006648D03*
X003393Y006648D03*
X003390Y006648D03*
X003386Y006648D03*
X003383Y006648D03*
X003380Y006648D03*
X003377Y006648D03*
X003374Y006648D03*
X003370Y006648D03*
X003367Y006648D03*
X003364Y006648D03*
X003361Y006648D03*
X003359Y006648D03*
X003356Y006648D03*
X003353Y006648D03*
X003350Y006648D03*
X003346Y006648D03*
X003343Y006648D03*
X003340Y006648D03*
X003337Y006648D03*
X003334Y006648D03*
X003330Y006648D03*
X003327Y006648D03*
X003324Y006648D03*
X003321Y006648D03*
X003319Y006648D03*
X003316Y006648D03*
X003313Y006648D03*
X003310Y006648D03*
X003300Y006648D03*
X003297Y006648D03*
X003287Y006648D03*
X003386Y006921D03*
X003410Y006995D03*
X003410Y007201D03*
X003407Y007201D03*
X003404Y007201D03*
X003401Y007201D03*
X003399Y007201D03*
X003396Y007201D03*
X003393Y007201D03*
X003390Y007201D03*
X003386Y007201D03*
X003414Y007201D03*
X003417Y007201D03*
X003420Y007201D03*
X003423Y007201D03*
X003426Y007201D03*
X003430Y007201D03*
X003433Y007201D03*
X003436Y007201D03*
X003439Y007201D03*
X003441Y007201D03*
X003444Y007201D03*
X003447Y007201D03*
X003450Y007201D03*
X003454Y007201D03*
X003457Y007201D03*
X003463Y007201D03*
X003361Y007268D03*
X003436Y007345D03*
X003439Y007345D03*
X003441Y007345D03*
X003473Y007732D03*
X003404Y007732D03*
X003399Y007732D03*
X003494Y007811D03*
X003386Y007868D03*
X003407Y007942D03*
X002996Y008132D03*
X002993Y008132D03*
X002961Y008342D03*
X002764Y008075D03*
X003490Y008435D03*
X003494Y008435D03*
X003550Y006792D03*
X003553Y006792D03*
X003556Y006792D03*
X003559Y006792D03*
X002826Y006542D03*
X002823Y006542D03*
D16*
X002791Y006546D03*
X002905Y006864D03*
X002954Y006869D03*
X002994Y006948D03*
X003354Y006744D03*
X003468Y006424D03*
X003575Y006325D03*
X003498Y005933D03*
X003354Y005770D03*
X003478Y007096D03*
X003438Y007557D03*
X003434Y007560D03*
X003354Y007760D03*
X003354Y008032D03*
X003354Y008386D03*
X002935Y007917D03*
X002978Y007804D03*
X002958Y007708D03*
X002945Y007597D03*
X002942Y007597D03*
X002812Y007597D03*
X002806Y007917D03*
X002791Y008143D03*
D17*
X002814Y008342D03*
X002974Y008249D03*
X002793Y007812D03*
X002950Y007708D03*
X002783Y007608D03*
X003356Y007569D03*
X003356Y007448D03*
X003356Y007065D03*
X002946Y006657D03*
X002780Y006768D03*
X003356Y006065D03*
X003574Y006324D03*
D18*
X003572Y006323D03*
X002935Y006654D03*
X002812Y006654D03*
X002842Y007348D03*
X002846Y007348D03*
X002849Y007348D03*
X002975Y007606D03*
X002818Y007707D03*
X002938Y008032D03*
X002978Y008249D03*
X002822Y008340D03*
X003415Y008518D03*
X003358Y007569D03*
X003358Y007448D03*
X003495Y007451D03*
D19*
X003494Y007451D03*
X003377Y007182D03*
X003361Y007065D03*
X003494Y007070D03*
X003417Y006542D03*
X003359Y006552D03*
X003444Y006300D03*
X003570Y006323D03*
X003377Y006179D03*
X002986Y006564D03*
X002916Y006651D03*
X002913Y006651D03*
X002830Y006651D03*
X002826Y006651D03*
X002764Y006774D03*
X002774Y007609D03*
X002826Y007707D03*
X002934Y007708D03*
X002777Y007806D03*
X002770Y007929D03*
X002823Y008028D03*
X002919Y008028D03*
X002921Y008028D03*
X002983Y008249D03*
X003353Y005619D03*
D20*
X003569Y006320D03*
X002889Y006517D03*
X002772Y006546D03*
X003362Y007066D03*
X003362Y007180D03*
X003362Y007570D03*
X002954Y007327D03*
X002762Y007420D03*
X002772Y007804D03*
X002842Y008026D03*
X002846Y008026D03*
X002849Y008026D03*
X002852Y008026D03*
X002855Y008026D03*
X002858Y008026D03*
X002862Y008026D03*
X002865Y008026D03*
X002868Y008026D03*
X002871Y008026D03*
X002874Y008026D03*
X002878Y008026D03*
X002882Y008026D03*
X002886Y008026D03*
X002889Y008026D03*
X002892Y008026D03*
X002895Y008026D03*
X002982Y007930D03*
X003362Y008183D03*
D21*
X003364Y008184D03*
X003367Y007900D03*
X003370Y007574D03*
X003367Y007572D03*
X003490Y007580D03*
X003364Y007448D03*
X003370Y007070D03*
X003367Y007068D03*
X003367Y006953D03*
X003487Y007072D03*
X002959Y007020D03*
X002953Y007326D03*
X002761Y007419D03*
X002770Y007609D03*
X002854Y007708D03*
X002906Y007708D03*
X002910Y007708D03*
X002764Y007934D03*
X002844Y008158D03*
X002903Y008158D03*
X003423Y008526D03*
X003567Y006320D03*
X003364Y006065D03*
D22*
X003366Y006065D03*
X003438Y006300D03*
X003474Y006312D03*
X003566Y006320D03*
X003425Y006548D03*
X003366Y006555D03*
X002991Y006566D03*
X002895Y006515D03*
X003002Y006750D03*
X002758Y006780D03*
X002874Y007480D03*
X002878Y007480D03*
X002882Y007480D03*
X002886Y007480D03*
X002889Y007480D03*
X002892Y007480D03*
X002895Y007480D03*
X002898Y007480D03*
X002902Y007480D03*
X002988Y007932D03*
X002898Y008160D03*
X002849Y008160D03*
X002994Y008249D03*
X002762Y007936D03*
X003366Y008184D03*
X003366Y008532D03*
X003366Y007448D03*
X003486Y007072D03*
D23*
X002930Y007478D03*
X002927Y007478D03*
X002924Y007478D03*
X002921Y007478D03*
X002854Y007478D03*
X002850Y007478D03*
X002847Y007478D03*
X002844Y007478D03*
X002983Y008555D03*
X002986Y008555D03*
X002990Y008555D03*
X003564Y006318D03*
D24*
X003495Y005884D03*
X003358Y007204D03*
X003474Y007610D03*
X003562Y008084D03*
X002822Y008244D03*
D25*
X002932Y008249D03*
X003358Y008083D03*
X003351Y007344D03*
X003495Y007267D03*
X003562Y006793D03*
X003351Y006156D03*
D26*
X003562Y006316D03*
X002942Y007476D03*
X002938Y007476D03*
X002834Y007476D03*
X002831Y007476D03*
D27*
X002980Y006951D03*
X003001Y006839D03*
X003380Y006583D03*
X003561Y006792D03*
X003479Y007044D03*
X003353Y007160D03*
X003524Y006320D03*
X003353Y006157D03*
X003561Y008082D03*
X003380Y008560D03*
D28*
X003386Y008568D03*
X003350Y008532D03*
X003356Y008439D03*
X003356Y008436D03*
X003350Y008384D03*
X003350Y008178D03*
X003350Y007759D03*
X003503Y007594D03*
X003350Y006956D03*
X003350Y006554D03*
X003503Y006516D03*
X003561Y006461D03*
X003350Y006295D03*
X003481Y006064D03*
X003350Y006058D03*
X003353Y005885D03*
X003356Y005821D03*
X003356Y005818D03*
X003350Y005642D03*
D29*
X003370Y006064D03*
X003561Y006316D03*
X003481Y006956D03*
X003479Y006956D03*
X003370Y007448D03*
X002946Y007476D03*
X002826Y007476D03*
X002823Y007476D03*
X002810Y007471D03*
X002767Y007608D03*
X002670Y008552D03*
D30*
X002964Y008343D03*
X003559Y008080D03*
X003359Y007268D03*
X003497Y007204D03*
X003534Y006442D03*
X003527Y006437D03*
X003524Y006436D03*
X003521Y006434D03*
X003519Y006434D03*
X003516Y006432D03*
X003513Y006431D03*
X003510Y006429D03*
X003506Y006429D03*
X003503Y006428D03*
X003447Y006440D03*
X003441Y006442D03*
X003447Y006408D03*
X003436Y006405D03*
X003430Y006404D03*
X003426Y006402D03*
X003423Y006402D03*
X003420Y006400D03*
X003417Y006400D03*
X003414Y006399D03*
X003410Y006399D03*
X003407Y006397D03*
X003399Y006396D03*
X003359Y006386D03*
X003457Y006330D03*
X003460Y006333D03*
X003463Y006336D03*
X003527Y006324D03*
X003530Y006327D03*
X003534Y006330D03*
X003527Y006253D03*
X003516Y006250D03*
X003513Y006250D03*
X003497Y006200D03*
X003361Y005885D03*
X003287Y005599D03*
X002796Y006444D03*
X002756Y006672D03*
D31*
X002796Y006654D03*
X002964Y006873D03*
X002970Y006953D03*
X003559Y006464D03*
X003500Y005824D03*
X003361Y005822D03*
X002937Y008249D03*
X002983Y008350D03*
X002814Y008243D03*
X003500Y008440D03*
D32*
X002993Y007933D03*
X002956Y007474D03*
X002817Y007474D03*
X003004Y006749D03*
X002903Y006509D03*
X003559Y006314D03*
X003370Y005631D03*
D33*
X003462Y005600D03*
X003468Y005600D03*
X003495Y005740D03*
X003468Y005886D03*
X003465Y005886D03*
X003462Y005886D03*
X003458Y005886D03*
X003455Y005886D03*
X003452Y005886D03*
X003449Y005886D03*
X003446Y005886D03*
X003442Y005886D03*
X003438Y005886D03*
X003434Y005886D03*
X003431Y005886D03*
X003428Y005886D03*
X003425Y005886D03*
X003422Y005886D03*
X003418Y005886D03*
X003415Y005886D03*
X003412Y005886D03*
X003409Y005886D03*
X003406Y005886D03*
X003402Y005886D03*
X003398Y005886D03*
X003394Y005886D03*
X003391Y005886D03*
X003388Y005886D03*
X003385Y005886D03*
X003382Y005886D03*
X003382Y005960D03*
X003358Y005963D03*
X003492Y006200D03*
X003495Y006200D03*
X003538Y006260D03*
X003492Y006424D03*
X003502Y006427D03*
X003535Y006443D03*
X003438Y006443D03*
X003428Y006446D03*
X003425Y006446D03*
X003415Y006449D03*
X003415Y006400D03*
X003402Y006396D03*
X003391Y006393D03*
X003388Y006393D03*
X003378Y006390D03*
X003375Y006390D03*
X003366Y006387D03*
X003362Y006387D03*
X003358Y006467D03*
X003385Y006523D03*
X003378Y006580D03*
X003455Y006523D03*
X003458Y006523D03*
X003462Y006523D03*
X003465Y006523D03*
X003468Y006523D03*
X003425Y006267D03*
X003415Y006264D03*
X003412Y006264D03*
X003409Y006264D03*
X003406Y006264D03*
X003402Y006264D03*
X003398Y006264D03*
X003394Y006264D03*
X003385Y006267D03*
X003351Y006744D03*
X003391Y006920D03*
X003394Y006920D03*
X003398Y006920D03*
X003402Y006920D03*
X003406Y006920D03*
X003409Y006920D03*
X003412Y006920D03*
X003495Y007203D03*
X003502Y007316D03*
X003358Y007347D03*
X003388Y007809D03*
X003391Y007809D03*
X003394Y007809D03*
X003398Y007809D03*
X003402Y007809D03*
X003406Y007809D03*
X003409Y007809D03*
X003412Y007809D03*
X003415Y007809D03*
X003418Y007809D03*
X003422Y007809D03*
X003425Y007809D03*
X003428Y007809D03*
X003431Y007809D03*
X003434Y007809D03*
X003438Y007809D03*
X003442Y007809D03*
X003446Y007809D03*
X003449Y007809D03*
X003452Y007809D03*
X003455Y007809D03*
X003458Y007809D03*
X003462Y007809D03*
X003465Y007809D03*
X003468Y007809D03*
X003471Y007809D03*
X003474Y007809D03*
X003478Y007809D03*
X003482Y007809D03*
X003412Y007867D03*
X003409Y007867D03*
X003406Y007867D03*
X003402Y007867D03*
X003398Y007867D03*
X003394Y007867D03*
X003391Y007867D03*
X003351Y008033D03*
X003548Y008080D03*
X003551Y008080D03*
X003554Y008080D03*
X003558Y008080D03*
X003495Y008356D03*
X003465Y008500D03*
X003462Y008500D03*
X003458Y008500D03*
X003455Y008500D03*
X003452Y008500D03*
X003449Y008500D03*
X003446Y008500D03*
X003442Y008500D03*
X003438Y008500D03*
X003434Y008500D03*
X003409Y008500D03*
X003406Y008500D03*
X003402Y008500D03*
X003398Y008500D03*
X003394Y008500D03*
X003391Y008500D03*
X003388Y008500D03*
X003385Y008500D03*
X003452Y008569D03*
X003455Y008569D03*
X002806Y008243D03*
X002798Y007344D03*
X002834Y006540D03*
D34*
X002828Y006542D03*
X002825Y006542D03*
X002798Y006654D03*
X003289Y006648D03*
X003302Y006648D03*
X003308Y006648D03*
X003311Y006648D03*
X003314Y006648D03*
X003318Y006648D03*
X003322Y006648D03*
X003326Y006648D03*
X003329Y006648D03*
X003332Y006648D03*
X003335Y006648D03*
X003338Y006648D03*
X003342Y006648D03*
X003345Y006648D03*
X003348Y006648D03*
X003351Y006648D03*
X003354Y006648D03*
X003358Y006648D03*
X003362Y006648D03*
X003366Y006648D03*
X003369Y006648D03*
X003372Y006648D03*
X003375Y006648D03*
X003378Y006648D03*
X003382Y006648D03*
X003385Y006648D03*
X003388Y006648D03*
X003391Y006648D03*
X003394Y006648D03*
X003398Y006648D03*
X003402Y006648D03*
X003406Y006648D03*
X003409Y006648D03*
X003412Y006648D03*
X003415Y006648D03*
X003418Y006648D03*
X003422Y006648D03*
X003425Y006648D03*
X003428Y006648D03*
X003431Y006648D03*
X003434Y006648D03*
X003438Y006648D03*
X003442Y006648D03*
X003446Y006648D03*
X003449Y006648D03*
X003452Y006648D03*
X003455Y006648D03*
X003458Y006648D03*
X003462Y006648D03*
X003465Y006648D03*
X003468Y006648D03*
X003471Y006648D03*
X003474Y006648D03*
X003458Y006592D03*
X003455Y006592D03*
X003406Y006452D03*
X003394Y006456D03*
X003422Y006448D03*
X003431Y006444D03*
X003434Y006444D03*
X003409Y006398D03*
X003398Y006395D03*
X003394Y006395D03*
X003385Y006392D03*
X003382Y006392D03*
X003372Y006388D03*
X003369Y006388D03*
X003385Y006336D03*
X003382Y006334D03*
X003378Y006332D03*
X003375Y006331D03*
X003391Y006337D03*
X003394Y006337D03*
X003398Y006337D03*
X003465Y006337D03*
X003428Y006268D03*
X003422Y006265D03*
X003391Y006265D03*
X003388Y006265D03*
X003382Y006268D03*
X003388Y006198D03*
X003391Y006198D03*
X003394Y006198D03*
X003398Y006198D03*
X003402Y006198D03*
X003514Y006251D03*
X003518Y006251D03*
X003535Y006259D03*
X003554Y006345D03*
X003505Y006428D03*
X003495Y006425D03*
X003505Y006792D03*
X003558Y006792D03*
X003478Y006924D03*
X003385Y006921D03*
X003351Y006952D03*
X003394Y006992D03*
X003409Y006995D03*
X003409Y007201D03*
X003412Y007201D03*
X003415Y007201D03*
X003418Y007201D03*
X003422Y007201D03*
X003425Y007201D03*
X003428Y007201D03*
X003431Y007201D03*
X003434Y007201D03*
X003438Y007201D03*
X003442Y007201D03*
X003446Y007201D03*
X003449Y007201D03*
X003452Y007201D03*
X003455Y007201D03*
X003458Y007201D03*
X003468Y007201D03*
X003486Y007201D03*
X003489Y007201D03*
X003406Y007201D03*
X003402Y007201D03*
X003398Y007201D03*
X003394Y007201D03*
X003391Y007201D03*
X003388Y007201D03*
X003362Y007268D03*
X003434Y007345D03*
X003495Y007811D03*
X003478Y007872D03*
X003385Y007868D03*
X003351Y007899D03*
X003394Y007939D03*
X003409Y007942D03*
X002991Y008132D03*
X003489Y008435D03*
X003492Y008435D03*
X003391Y006792D03*
X003502Y005934D03*
X003492Y005819D03*
X003489Y005819D03*
D35*
X003351Y005769D03*
X003351Y006300D03*
X003428Y006403D03*
X003438Y006406D03*
X003449Y006409D03*
X003518Y006433D03*
X003558Y006464D03*
X003545Y006340D03*
X003538Y006336D03*
X003535Y006332D03*
X003526Y006323D03*
X002892Y006854D03*
X003498Y007732D03*
X002966Y008344D03*
X002809Y008243D03*
D36*
X002668Y008550D03*
X003558Y006313D03*
D37*
X003500Y006427D03*
X003490Y006424D03*
X003439Y006443D03*
X003436Y006443D03*
X003426Y006446D03*
X003417Y006449D03*
X003404Y006396D03*
X003401Y006396D03*
X003393Y006393D03*
X003390Y006393D03*
X003380Y006390D03*
X003377Y006390D03*
X003367Y006387D03*
X003364Y006387D03*
X003361Y006387D03*
X003386Y006267D03*
X003396Y006264D03*
X003399Y006264D03*
X003401Y006264D03*
X003404Y006264D03*
X003407Y006264D03*
X003410Y006264D03*
X003414Y006264D03*
X003417Y006264D03*
X003426Y006267D03*
X003494Y006200D03*
X003447Y005963D03*
X003380Y005960D03*
X003390Y005886D03*
X003393Y005886D03*
X003396Y005886D03*
X003399Y005886D03*
X003401Y005886D03*
X003404Y005886D03*
X003407Y005886D03*
X003410Y005886D03*
X003414Y005886D03*
X003417Y005886D03*
X003420Y005886D03*
X003423Y005886D03*
X003426Y005886D03*
X003430Y005886D03*
X003433Y005886D03*
X003436Y005886D03*
X003439Y005886D03*
X003441Y005886D03*
X003444Y005886D03*
X003447Y005886D03*
X003450Y005886D03*
X003454Y005886D03*
X003457Y005886D03*
X003460Y005886D03*
X003463Y005886D03*
X003466Y005886D03*
X003494Y005740D03*
X003497Y005740D03*
X003470Y005600D03*
X003294Y005600D03*
X003290Y005600D03*
X003450Y006523D03*
X003454Y006523D03*
X003457Y006523D03*
X003460Y006523D03*
X003463Y006523D03*
X003466Y006523D03*
X003470Y006523D03*
X003410Y006920D03*
X003407Y006920D03*
X003404Y006920D03*
X003401Y006920D03*
X003399Y006920D03*
X003396Y006920D03*
X003393Y006920D03*
X003399Y006993D03*
X003494Y007203D03*
X002983Y006950D03*
X002833Y006540D03*
X003386Y007809D03*
X003390Y007809D03*
X003393Y007809D03*
X003396Y007809D03*
X003399Y007809D03*
X003401Y007809D03*
X003404Y007809D03*
X003407Y007809D03*
X003410Y007809D03*
X003414Y007809D03*
X003417Y007809D03*
X003420Y007809D03*
X003423Y007809D03*
X003426Y007809D03*
X003430Y007809D03*
X003433Y007809D03*
X003436Y007809D03*
X003439Y007809D03*
X003441Y007809D03*
X003444Y007809D03*
X003447Y007809D03*
X003450Y007809D03*
X003454Y007809D03*
X003457Y007809D03*
X003460Y007809D03*
X003463Y007809D03*
X003466Y007809D03*
X003470Y007809D03*
X003473Y007809D03*
X003476Y007809D03*
X003479Y007809D03*
X003410Y007867D03*
X003407Y007867D03*
X003404Y007867D03*
X003401Y007867D03*
X003399Y007867D03*
X003396Y007867D03*
X003393Y007867D03*
X003399Y007940D03*
X003439Y007944D03*
X003393Y008080D03*
X003390Y008080D03*
X003553Y008080D03*
X003556Y008080D03*
X003497Y008356D03*
X003494Y008356D03*
X003466Y008500D03*
X003463Y008500D03*
X003460Y008500D03*
X003457Y008500D03*
X003454Y008500D03*
X003450Y008500D03*
X003447Y008500D03*
X003444Y008500D03*
X003441Y008500D03*
X003439Y008500D03*
X003436Y008500D03*
X003433Y008500D03*
X003407Y008500D03*
X003404Y008500D03*
X003401Y008500D03*
X003399Y008500D03*
X003396Y008500D03*
X003393Y008500D03*
X003390Y008500D03*
X003386Y008500D03*
X002946Y008249D03*
D38*
X002950Y008249D03*
X002986Y008134D03*
X003390Y008144D03*
X003393Y008144D03*
X003404Y008140D03*
X003407Y008140D03*
X003410Y008140D03*
X003439Y008140D03*
X003441Y008140D03*
X003444Y008140D03*
X003473Y008150D03*
X003473Y008080D03*
X003463Y008003D03*
X003454Y008000D03*
X003441Y007996D03*
X003439Y007996D03*
X003436Y007996D03*
X003433Y007996D03*
X003430Y007996D03*
X003407Y007996D03*
X003404Y007996D03*
X003401Y007996D03*
X003399Y007996D03*
X003383Y007934D03*
X003380Y007932D03*
X003466Y007937D03*
X003386Y007734D03*
X003479Y007603D03*
X003466Y007544D03*
X003463Y007544D03*
X003460Y007544D03*
X003457Y007544D03*
X003454Y007492D03*
X003450Y007492D03*
X003447Y007492D03*
X003444Y007492D03*
X003441Y007494D03*
X003436Y007494D03*
X003433Y007494D03*
X003430Y007494D03*
X003426Y007494D03*
X003423Y007494D03*
X003420Y007494D03*
X003417Y007494D03*
X003414Y007494D03*
X003410Y007492D03*
X003407Y007492D03*
X003404Y007492D03*
X003393Y007489D03*
X003374Y007550D03*
X003463Y007489D03*
X003473Y007414D03*
X003470Y007412D03*
X003450Y007406D03*
X003447Y007406D03*
X003404Y007406D03*
X003401Y007406D03*
X003390Y007409D03*
X003374Y007344D03*
X003466Y007344D03*
X003470Y007270D03*
X003457Y007110D03*
X003454Y007110D03*
X003433Y007113D03*
X003430Y007113D03*
X003426Y007113D03*
X003423Y007113D03*
X003420Y007113D03*
X003401Y007110D03*
X003393Y007107D03*
X003383Y006987D03*
X003460Y006993D03*
X003466Y006990D03*
X003383Y006790D03*
X003404Y006707D03*
X003407Y006707D03*
X003410Y006707D03*
X003414Y006707D03*
X003417Y006707D03*
X003420Y006707D03*
X003423Y006707D03*
X003426Y006707D03*
X003430Y006707D03*
X003433Y006707D03*
X003447Y006710D03*
X003450Y006710D03*
X003460Y006713D03*
X003473Y006590D03*
X003441Y006587D03*
X003370Y006464D03*
X003361Y006467D03*
X003374Y006329D03*
X003417Y006336D03*
X003420Y006334D03*
X003556Y006464D03*
X003460Y006107D03*
X003447Y006110D03*
X003444Y006110D03*
X003441Y006110D03*
X003439Y006110D03*
X003436Y006110D03*
X003433Y006110D03*
X003430Y006110D03*
X003426Y006110D03*
X003423Y006110D03*
X003420Y006110D03*
X003417Y006110D03*
X003414Y006110D03*
X003410Y006110D03*
X003407Y006110D03*
X003396Y006107D03*
X003386Y006104D03*
X003390Y006027D03*
X003396Y006024D03*
X003399Y006024D03*
X003463Y006027D03*
X003470Y006030D03*
X003470Y005960D03*
X003390Y005960D03*
X003383Y005744D03*
X003404Y005680D03*
X003407Y005680D03*
X003396Y005676D03*
X003433Y005683D03*
X003436Y005683D03*
X003377Y005600D03*
X003497Y005593D03*
X002814Y006544D03*
X002799Y007344D03*
X003390Y008224D03*
X003393Y008224D03*
X003399Y008227D03*
X003401Y008227D03*
X003404Y008227D03*
X003450Y008227D03*
X003454Y008227D03*
X003383Y008360D03*
D39*
X003386Y008359D03*
X003390Y008359D03*
X003393Y008357D03*
X003396Y008357D03*
X003399Y008357D03*
X003401Y008357D03*
X003404Y008357D03*
X003407Y008357D03*
X003410Y008357D03*
X003414Y008357D03*
X003417Y008357D03*
X003420Y008357D03*
X003423Y008357D03*
X003426Y008357D03*
X003430Y008357D03*
X003433Y008357D03*
X003436Y008357D03*
X003439Y008357D03*
X003441Y008357D03*
X003444Y008357D03*
X003447Y008357D03*
X003450Y008357D03*
X003454Y008357D03*
X003457Y008357D03*
X003460Y008357D03*
X003463Y008357D03*
X003466Y008357D03*
X003470Y008357D03*
X003473Y008357D03*
X003476Y008357D03*
X003479Y008357D03*
X003481Y008357D03*
X003484Y008357D03*
X003487Y008357D03*
X003490Y008357D03*
X003487Y008434D03*
X003484Y008434D03*
X003481Y008434D03*
X003479Y008434D03*
X003476Y008434D03*
X003473Y008434D03*
X003470Y008434D03*
X003466Y008434D03*
X003463Y008434D03*
X003460Y008434D03*
X003457Y008434D03*
X003454Y008434D03*
X003450Y008434D03*
X003447Y008434D03*
X003444Y008434D03*
X003441Y008434D03*
X003439Y008434D03*
X003436Y008434D03*
X003433Y008434D03*
X003430Y008434D03*
X003426Y008434D03*
X003423Y008434D03*
X003420Y008434D03*
X003417Y008434D03*
X003414Y008434D03*
X003410Y008434D03*
X003407Y008434D03*
X003404Y008434D03*
X003401Y008434D03*
X003399Y008434D03*
X003396Y008434D03*
X003393Y008434D03*
X003390Y008434D03*
X003386Y008434D03*
X003383Y008501D03*
X003470Y008501D03*
X003497Y008495D03*
X003470Y008568D03*
X003466Y008570D03*
X003463Y008570D03*
X003460Y008570D03*
X003457Y008570D03*
X003454Y008570D03*
X003450Y008568D03*
X003447Y008568D03*
X003444Y008567D03*
X003407Y008228D03*
X003401Y008141D03*
X003414Y008140D03*
X003417Y008140D03*
X003420Y008140D03*
X003430Y008140D03*
X003433Y008140D03*
X003436Y008140D03*
X003447Y008141D03*
X003450Y008141D03*
X003457Y008143D03*
X003460Y008144D03*
X003466Y008146D03*
X003470Y008148D03*
X003470Y008080D03*
X003466Y008080D03*
X003463Y008080D03*
X003460Y008080D03*
X003457Y008080D03*
X003454Y008080D03*
X003450Y008080D03*
X003447Y008080D03*
X003444Y008080D03*
X003441Y008080D03*
X003439Y008080D03*
X003436Y008080D03*
X003433Y008080D03*
X003430Y008080D03*
X003426Y008080D03*
X003423Y008080D03*
X003420Y008080D03*
X003417Y008080D03*
X003414Y008080D03*
X003410Y008080D03*
X003407Y008080D03*
X003404Y008080D03*
X003401Y008080D03*
X003399Y008080D03*
X003396Y008080D03*
X003386Y008080D03*
X003420Y007996D03*
X003426Y007996D03*
X003450Y007999D03*
X003450Y007943D03*
X003447Y007943D03*
X003444Y007943D03*
X003441Y007943D03*
X003454Y007941D03*
X003457Y007941D03*
X003460Y007940D03*
X003414Y007943D03*
X003410Y007943D03*
X003404Y007941D03*
X003401Y007941D03*
X003396Y007940D03*
X003393Y007938D03*
X003390Y007938D03*
X003380Y007871D03*
X003383Y007869D03*
X003390Y007868D03*
X003481Y007810D03*
X003484Y007810D03*
X003487Y007810D03*
X003490Y007810D03*
X003490Y007732D03*
X003487Y007732D03*
X003484Y007732D03*
X003481Y007732D03*
X003479Y007732D03*
X003476Y007732D03*
X003470Y007732D03*
X003466Y007732D03*
X003463Y007732D03*
X003460Y007732D03*
X003457Y007732D03*
X003454Y007732D03*
X003450Y007732D03*
X003447Y007732D03*
X003444Y007732D03*
X003441Y007732D03*
X003439Y007732D03*
X003436Y007732D03*
X003433Y007732D03*
X003430Y007732D03*
X003426Y007732D03*
X003423Y007732D03*
X003420Y007732D03*
X003417Y007732D03*
X003414Y007732D03*
X003410Y007732D03*
X003407Y007732D03*
X003401Y007732D03*
X003494Y007732D03*
X003401Y007492D03*
X003399Y007407D03*
X003407Y007405D03*
X003439Y007405D03*
X003441Y007405D03*
X003444Y007405D03*
X003454Y007407D03*
X003460Y007408D03*
X003463Y007410D03*
X003457Y007346D03*
X003460Y007344D03*
X003463Y007344D03*
X003454Y007346D03*
X003450Y007346D03*
X003447Y007346D03*
X003444Y007346D03*
X003433Y007344D03*
X003430Y007344D03*
X003426Y007344D03*
X003423Y007344D03*
X003420Y007344D03*
X003417Y007344D03*
X003414Y007344D03*
X003410Y007344D03*
X003407Y007344D03*
X003404Y007343D03*
X003401Y007343D03*
X003399Y007343D03*
X003396Y007343D03*
X003393Y007343D03*
X003390Y007343D03*
X003386Y007343D03*
X003383Y007343D03*
X003380Y007343D03*
X003377Y007343D03*
X003370Y007344D03*
X003367Y007344D03*
X003364Y007346D03*
X003361Y007346D03*
X003359Y007346D03*
X003364Y007269D03*
X003367Y007269D03*
X003370Y007269D03*
X003374Y007269D03*
X003377Y007269D03*
X003380Y007269D03*
X003383Y007269D03*
X003386Y007269D03*
X003390Y007269D03*
X003393Y007269D03*
X003396Y007269D03*
X003399Y007269D03*
X003401Y007269D03*
X003404Y007269D03*
X003407Y007269D03*
X003410Y007269D03*
X003414Y007269D03*
X003417Y007269D03*
X003420Y007269D03*
X003423Y007269D03*
X003426Y007269D03*
X003430Y007269D03*
X003433Y007269D03*
X003436Y007269D03*
X003439Y007269D03*
X003441Y007269D03*
X003444Y007269D03*
X003447Y007269D03*
X003450Y007269D03*
X003454Y007269D03*
X003457Y007269D03*
X003460Y007269D03*
X003463Y007269D03*
X003466Y007269D03*
X003466Y007202D03*
X003470Y007202D03*
X003473Y007202D03*
X003476Y007202D03*
X003479Y007202D03*
X003481Y007202D03*
X003484Y007202D03*
X003487Y007202D03*
X003490Y007202D03*
X003460Y007202D03*
X003444Y007112D03*
X003441Y007112D03*
X003439Y007112D03*
X003436Y007112D03*
X003417Y007112D03*
X003414Y007112D03*
X003404Y007111D03*
X003399Y007109D03*
X003414Y006996D03*
X003407Y006994D03*
X003404Y006994D03*
X003401Y006994D03*
X003396Y006992D03*
X003393Y006991D03*
X003390Y006991D03*
X003386Y006989D03*
X003439Y006996D03*
X003441Y006996D03*
X003444Y006996D03*
X003447Y006996D03*
X003450Y006996D03*
X003454Y006994D03*
X003457Y006994D03*
X003390Y006920D03*
X003383Y006922D03*
X003380Y006924D03*
X003386Y006791D03*
X003390Y006791D03*
X003393Y006791D03*
X003396Y006791D03*
X003399Y006791D03*
X003401Y006791D03*
X003404Y006791D03*
X003407Y006791D03*
X003410Y006791D03*
X003414Y006791D03*
X003417Y006791D03*
X003420Y006791D03*
X003423Y006791D03*
X003426Y006791D03*
X003430Y006791D03*
X003433Y006791D03*
X003436Y006791D03*
X003439Y006791D03*
X003441Y006791D03*
X003444Y006791D03*
X003447Y006791D03*
X003450Y006791D03*
X003454Y006791D03*
X003457Y006791D03*
X003460Y006791D03*
X003463Y006791D03*
X003466Y006791D03*
X003470Y006791D03*
X003473Y006791D03*
X003503Y006791D03*
X003506Y006791D03*
X003510Y006791D03*
X003513Y006791D03*
X003516Y006791D03*
X003519Y006791D03*
X003521Y006791D03*
X003524Y006791D03*
X003527Y006791D03*
X003530Y006791D03*
X003534Y006791D03*
X003537Y006791D03*
X003540Y006791D03*
X003543Y006791D03*
X003546Y006791D03*
X003436Y006708D03*
X003479Y006647D03*
X003497Y006642D03*
X003470Y006591D03*
X003466Y006591D03*
X003463Y006592D03*
X003460Y006592D03*
X003454Y006591D03*
X003450Y006591D03*
X003447Y006589D03*
X003447Y006522D03*
X003444Y006522D03*
X003441Y006522D03*
X003439Y006522D03*
X003436Y006522D03*
X003433Y006522D03*
X003410Y006522D03*
X003407Y006522D03*
X003404Y006522D03*
X003401Y006522D03*
X003399Y006522D03*
X003396Y006522D03*
X003393Y006522D03*
X003390Y006522D03*
X003386Y006522D03*
X003383Y006524D03*
X003380Y006524D03*
X003367Y006464D03*
X003374Y006463D03*
X003377Y006461D03*
X003380Y006460D03*
X003383Y006460D03*
X003386Y006458D03*
X003396Y006455D03*
X003407Y006452D03*
X003414Y006450D03*
X003423Y006447D03*
X003359Y006466D03*
X003497Y006517D03*
X003537Y006445D03*
X003556Y006344D03*
X003466Y006338D03*
X003430Y006269D03*
X003393Y006264D03*
X003383Y006268D03*
X003380Y006269D03*
X003407Y006199D03*
X003410Y006199D03*
X003414Y006199D03*
X003417Y006199D03*
X003420Y006199D03*
X003423Y006199D03*
X003426Y006199D03*
X003430Y006199D03*
X003433Y006199D03*
X003436Y006199D03*
X003439Y006199D03*
X003441Y006199D03*
X003444Y006199D03*
X003447Y006199D03*
X003450Y006199D03*
X003454Y006199D03*
X003457Y006199D03*
X003460Y006199D03*
X003463Y006199D03*
X003466Y006199D03*
X003470Y006199D03*
X003476Y006199D03*
X003479Y006199D03*
X003481Y006199D03*
X003484Y006199D03*
X003487Y006199D03*
X003490Y006199D03*
X003506Y006252D03*
X003393Y006106D03*
X003401Y006023D03*
X003404Y006023D03*
X003417Y006021D03*
X003420Y006021D03*
X003423Y006021D03*
X003426Y006021D03*
X003430Y006021D03*
X003433Y006021D03*
X003436Y006021D03*
X003441Y006021D03*
X003447Y006023D03*
X003450Y006023D03*
X003454Y006024D03*
X003457Y006024D03*
X003460Y006026D03*
X003466Y006028D03*
X003460Y005962D03*
X003457Y005962D03*
X003454Y005962D03*
X003450Y005962D03*
X003444Y005962D03*
X003441Y005962D03*
X003439Y005962D03*
X003436Y005962D03*
X003433Y005962D03*
X003430Y005962D03*
X003426Y005962D03*
X003423Y005962D03*
X003417Y005960D03*
X003414Y005960D03*
X003410Y005960D03*
X003407Y005960D03*
X003404Y005960D03*
X003401Y005960D03*
X003399Y005960D03*
X003396Y005960D03*
X003393Y005960D03*
X003386Y005960D03*
X003383Y005960D03*
X003377Y005960D03*
X003374Y005960D03*
X003370Y005960D03*
X003367Y005962D03*
X003364Y005962D03*
X003361Y005964D03*
X003359Y005964D03*
X003364Y005885D03*
X003367Y005885D03*
X003370Y005885D03*
X003374Y005885D03*
X003377Y005885D03*
X003380Y005885D03*
X003383Y005885D03*
X003386Y005885D03*
X003386Y005818D03*
X003390Y005818D03*
X003393Y005818D03*
X003396Y005818D03*
X003399Y005818D03*
X003401Y005818D03*
X003404Y005818D03*
X003407Y005818D03*
X003410Y005818D03*
X003414Y005818D03*
X003417Y005818D03*
X003420Y005818D03*
X003423Y005818D03*
X003426Y005818D03*
X003430Y005818D03*
X003433Y005818D03*
X003436Y005818D03*
X003439Y005818D03*
X003441Y005818D03*
X003444Y005818D03*
X003447Y005818D03*
X003450Y005818D03*
X003454Y005818D03*
X003457Y005818D03*
X003460Y005818D03*
X003463Y005818D03*
X003466Y005818D03*
X003470Y005818D03*
X003473Y005818D03*
X003476Y005818D03*
X003479Y005818D03*
X003481Y005818D03*
X003484Y005818D03*
X003487Y005818D03*
X003470Y005887D03*
X003466Y005960D03*
X003466Y005741D03*
X003463Y005741D03*
X003460Y005741D03*
X003457Y005741D03*
X003454Y005741D03*
X003450Y005741D03*
X003447Y005741D03*
X003444Y005741D03*
X003441Y005741D03*
X003439Y005741D03*
X003436Y005741D03*
X003433Y005741D03*
X003430Y005741D03*
X003426Y005741D03*
X003423Y005741D03*
X003420Y005741D03*
X003417Y005741D03*
X003414Y005741D03*
X003410Y005741D03*
X003407Y005741D03*
X003404Y005741D03*
X003401Y005741D03*
X003399Y005741D03*
X003396Y005741D03*
X003386Y005743D03*
X003410Y005680D03*
X003423Y005682D03*
X003426Y005682D03*
X003470Y005741D03*
X003473Y005741D03*
X003476Y005741D03*
X003479Y005741D03*
X003481Y005741D03*
X003484Y005741D03*
X003487Y005741D03*
X003490Y005741D03*
X003466Y005599D03*
X003463Y005599D03*
X003460Y005599D03*
X003457Y005599D03*
X003454Y005599D03*
X003450Y005599D03*
X003447Y005599D03*
X003444Y005599D03*
X003441Y005599D03*
X003439Y005599D03*
X003436Y005599D03*
X003433Y005599D03*
X003430Y005599D03*
X003426Y005599D03*
X003423Y005599D03*
X003420Y005599D03*
X003417Y005599D03*
X003414Y005599D03*
X003410Y005599D03*
X003407Y005599D03*
X003404Y005599D03*
X003401Y005599D03*
X003399Y005599D03*
X003396Y005599D03*
X003393Y005599D03*
X003390Y005599D03*
X003386Y005599D03*
X003383Y005599D03*
X003380Y005599D03*
X003350Y005599D03*
X003346Y005599D03*
X003343Y005599D03*
X003340Y005599D03*
X003337Y005599D03*
X003334Y005599D03*
X003330Y005599D03*
X003327Y005599D03*
X003324Y005599D03*
X003321Y005599D03*
X003319Y005599D03*
X003316Y005599D03*
X003313Y005599D03*
X003310Y005599D03*
X003306Y005599D03*
X003303Y005599D03*
X003300Y005599D03*
X003297Y005599D03*
X002839Y006540D03*
X002836Y006540D03*
X002830Y006541D03*
X002820Y006543D03*
X002817Y006543D03*
X002801Y006863D03*
X003290Y006648D03*
X003294Y006648D03*
X003303Y006648D03*
X003306Y006648D03*
X002964Y008036D03*
X002804Y008244D03*
X003500Y008080D03*
X003503Y008080D03*
X003506Y008080D03*
X003510Y008080D03*
X003513Y008080D03*
X003516Y008080D03*
X003519Y008080D03*
X003521Y008080D03*
X003524Y008080D03*
X003527Y008080D03*
X003530Y008080D03*
X003534Y008080D03*
X003537Y008080D03*
X003540Y008080D03*
X003543Y008080D03*
X003546Y008080D03*
X003550Y008080D03*
D40*
X002801Y007815D03*
X002799Y007815D03*
X003540Y006458D03*
X003556Y006288D03*
D41*
X003542Y006263D03*
X003511Y006250D03*
X003489Y006199D03*
X003486Y006199D03*
X003482Y006199D03*
X003478Y006199D03*
X003474Y006199D03*
X003471Y006199D03*
X003468Y006199D03*
X003465Y006199D03*
X003462Y006199D03*
X003458Y006199D03*
X003455Y006199D03*
X003452Y006199D03*
X003449Y006199D03*
X003446Y006199D03*
X003442Y006199D03*
X003438Y006199D03*
X003434Y006199D03*
X003431Y006199D03*
X003428Y006199D03*
X003425Y006199D03*
X003422Y006199D03*
X003418Y006199D03*
X003415Y006199D03*
X003412Y006199D03*
X003409Y006199D03*
X003406Y006199D03*
X003385Y006197D03*
X003354Y006157D03*
X003406Y006109D03*
X003434Y006111D03*
X003465Y006028D03*
X003462Y006026D03*
X003455Y006024D03*
X003449Y006023D03*
X003446Y006023D03*
X003438Y006021D03*
X003434Y006021D03*
X003431Y006021D03*
X003428Y006021D03*
X003425Y006021D03*
X003422Y006021D03*
X003418Y006021D03*
X003415Y006021D03*
X003402Y006023D03*
X003394Y006024D03*
X003351Y006064D03*
X003362Y005962D03*
X003366Y005962D03*
X003369Y005960D03*
X003372Y005960D03*
X003375Y005960D03*
X003378Y005960D03*
X003385Y005959D03*
X003388Y005959D03*
X003394Y005960D03*
X003398Y005960D03*
X003402Y005960D03*
X003406Y005960D03*
X003409Y005960D03*
X003412Y005960D03*
X003415Y005960D03*
X003418Y005960D03*
X003422Y005962D03*
X003425Y005962D03*
X003428Y005962D03*
X003431Y005962D03*
X003434Y005962D03*
X003438Y005962D03*
X003442Y005962D03*
X003446Y005962D03*
X003449Y005962D03*
X003452Y005962D03*
X003455Y005962D03*
X003458Y005962D03*
X003462Y005962D03*
X003378Y005885D03*
X003375Y005885D03*
X003372Y005885D03*
X003369Y005885D03*
X003366Y005885D03*
X003362Y005885D03*
X003388Y005818D03*
X003391Y005818D03*
X003394Y005818D03*
X003398Y005818D03*
X003402Y005818D03*
X003406Y005818D03*
X003409Y005818D03*
X003412Y005818D03*
X003415Y005818D03*
X003418Y005818D03*
X003422Y005818D03*
X003425Y005818D03*
X003428Y005818D03*
X003431Y005818D03*
X003434Y005818D03*
X003438Y005818D03*
X003442Y005818D03*
X003446Y005818D03*
X003449Y005818D03*
X003452Y005818D03*
X003455Y005818D03*
X003458Y005818D03*
X003462Y005818D03*
X003465Y005818D03*
X003468Y005818D03*
X003471Y005818D03*
X003474Y005818D03*
X003478Y005818D03*
X003482Y005818D03*
X003486Y005818D03*
X003486Y005741D03*
X003489Y005741D03*
X003492Y005741D03*
X003482Y005741D03*
X003478Y005741D03*
X003474Y005741D03*
X003471Y005741D03*
X003468Y005741D03*
X003465Y005741D03*
X003462Y005741D03*
X003458Y005741D03*
X003455Y005741D03*
X003452Y005741D03*
X003449Y005741D03*
X003446Y005741D03*
X003442Y005741D03*
X003438Y005741D03*
X003434Y005741D03*
X003431Y005741D03*
X003428Y005741D03*
X003425Y005741D03*
X003422Y005741D03*
X003418Y005741D03*
X003415Y005741D03*
X003412Y005741D03*
X003409Y005741D03*
X003406Y005741D03*
X003402Y005741D03*
X003398Y005741D03*
X003394Y005741D03*
X003388Y005743D03*
X003402Y005679D03*
X003398Y005677D03*
X003409Y005680D03*
X003409Y005599D03*
X003412Y005599D03*
X003415Y005599D03*
X003418Y005599D03*
X003422Y005599D03*
X003425Y005599D03*
X003428Y005599D03*
X003431Y005599D03*
X003434Y005599D03*
X003438Y005599D03*
X003442Y005599D03*
X003446Y005599D03*
X003449Y005599D03*
X003452Y005599D03*
X003455Y005599D03*
X003458Y005599D03*
X003465Y005599D03*
X003471Y005599D03*
X003502Y005642D03*
X003406Y005599D03*
X003402Y005599D03*
X003398Y005599D03*
X003394Y005599D03*
X003391Y005599D03*
X003388Y005599D03*
X003385Y005599D03*
X003382Y005599D03*
X003378Y005599D03*
X003351Y005599D03*
X003348Y005599D03*
X003345Y005599D03*
X003342Y005599D03*
X003338Y005599D03*
X003335Y005599D03*
X003332Y005599D03*
X003329Y005599D03*
X003326Y005599D03*
X003322Y005599D03*
X003318Y005599D03*
X003314Y005599D03*
X003311Y005599D03*
X003308Y005599D03*
X003305Y005599D03*
X003302Y005599D03*
X003298Y005599D03*
X003295Y005599D03*
X003292Y005599D03*
X003431Y006271D03*
X003406Y006338D03*
X003402Y006338D03*
X003489Y006424D03*
X003418Y006448D03*
X003412Y006450D03*
X003409Y006452D03*
X003398Y006455D03*
X003388Y006458D03*
X003385Y006458D03*
X003382Y006460D03*
X003378Y006461D03*
X003375Y006461D03*
X003372Y006463D03*
X003362Y006466D03*
X003382Y006524D03*
X003388Y006522D03*
X003391Y006522D03*
X003394Y006522D03*
X003398Y006522D03*
X003402Y006522D03*
X003406Y006522D03*
X003409Y006522D03*
X003434Y006522D03*
X003438Y006522D03*
X003442Y006522D03*
X003446Y006522D03*
X003449Y006522D03*
X003452Y006522D03*
X003471Y006524D03*
X003468Y006591D03*
X003465Y006591D03*
X003462Y006592D03*
X003452Y006591D03*
X003449Y006591D03*
X003446Y006589D03*
X003478Y006647D03*
X003434Y006708D03*
X003434Y006791D03*
X003431Y006791D03*
X003428Y006791D03*
X003425Y006791D03*
X003422Y006791D03*
X003418Y006791D03*
X003415Y006791D03*
X003412Y006791D03*
X003409Y006791D03*
X003406Y006791D03*
X003402Y006791D03*
X003398Y006791D03*
X003394Y006791D03*
X003388Y006791D03*
X003385Y006791D03*
X003438Y006791D03*
X003442Y006791D03*
X003446Y006791D03*
X003449Y006791D03*
X003452Y006791D03*
X003455Y006791D03*
X003458Y006791D03*
X003462Y006791D03*
X003465Y006791D03*
X003468Y006791D03*
X003471Y006791D03*
X003502Y006791D03*
X003508Y006791D03*
X003511Y006791D03*
X003514Y006791D03*
X003518Y006791D03*
X003522Y006791D03*
X003526Y006791D03*
X003529Y006791D03*
X003532Y006791D03*
X003535Y006791D03*
X003538Y006791D03*
X003542Y006791D03*
X003545Y006791D03*
X003548Y006791D03*
X003551Y006791D03*
X003554Y006791D03*
X003388Y006920D03*
X003382Y006922D03*
X003378Y006924D03*
X003382Y006986D03*
X003385Y006988D03*
X003388Y006989D03*
X003391Y006991D03*
X003398Y006992D03*
X003402Y006994D03*
X003406Y006994D03*
X003412Y006996D03*
X003442Y006996D03*
X003446Y006996D03*
X003449Y006996D03*
X003452Y006994D03*
X003455Y006994D03*
X003462Y006992D03*
X003351Y007064D03*
X003398Y007109D03*
X003402Y007111D03*
X003406Y007111D03*
X003412Y007112D03*
X003415Y007112D03*
X003418Y007112D03*
X003434Y007112D03*
X003442Y007112D03*
X003446Y007112D03*
X003462Y007202D03*
X003465Y007202D03*
X003471Y007202D03*
X003474Y007202D03*
X003478Y007202D03*
X003482Y007202D03*
X003492Y007202D03*
X003468Y007269D03*
X003465Y007269D03*
X003462Y007269D03*
X003458Y007269D03*
X003455Y007269D03*
X003452Y007269D03*
X003449Y007269D03*
X003446Y007269D03*
X003442Y007269D03*
X003438Y007269D03*
X003434Y007269D03*
X003431Y007269D03*
X003428Y007269D03*
X003425Y007269D03*
X003422Y007269D03*
X003418Y007269D03*
X003415Y007269D03*
X003412Y007269D03*
X003409Y007269D03*
X003406Y007269D03*
X003402Y007269D03*
X003398Y007269D03*
X003394Y007269D03*
X003391Y007269D03*
X003388Y007269D03*
X003385Y007269D03*
X003382Y007269D03*
X003378Y007269D03*
X003375Y007269D03*
X003372Y007269D03*
X003369Y007269D03*
X003366Y007269D03*
X003385Y007200D03*
X003354Y007160D03*
X003375Y007343D03*
X003372Y007344D03*
X003369Y007344D03*
X003366Y007344D03*
X003362Y007346D03*
X003378Y007343D03*
X003382Y007343D03*
X003385Y007343D03*
X003388Y007343D03*
X003391Y007343D03*
X003394Y007343D03*
X003398Y007343D03*
X003402Y007343D03*
X003409Y007344D03*
X003412Y007344D03*
X003415Y007344D03*
X003418Y007344D03*
X003422Y007344D03*
X003425Y007344D03*
X003428Y007344D03*
X003431Y007344D03*
X003438Y007346D03*
X003442Y007346D03*
X003446Y007346D03*
X003449Y007346D03*
X003452Y007346D03*
X003455Y007346D03*
X003458Y007344D03*
X003462Y007344D03*
X003465Y007344D03*
X003452Y007407D03*
X003458Y007408D03*
X003465Y007410D03*
X003468Y007412D03*
X003446Y007405D03*
X003442Y007405D03*
X003412Y007405D03*
X003409Y007405D03*
X003398Y007407D03*
X003468Y007544D03*
X003388Y007602D03*
X003402Y007732D03*
X003406Y007732D03*
X003409Y007732D03*
X003412Y007732D03*
X003415Y007732D03*
X003418Y007732D03*
X003422Y007732D03*
X003425Y007732D03*
X003428Y007732D03*
X003431Y007732D03*
X003434Y007732D03*
X003438Y007732D03*
X003442Y007732D03*
X003446Y007732D03*
X003449Y007732D03*
X003452Y007732D03*
X003455Y007732D03*
X003458Y007732D03*
X003462Y007732D03*
X003465Y007732D03*
X003468Y007732D03*
X003471Y007732D03*
X003474Y007732D03*
X003478Y007732D03*
X003482Y007732D03*
X003486Y007732D03*
X003489Y007732D03*
X003492Y007732D03*
X003495Y007732D03*
X003492Y007810D03*
X003489Y007810D03*
X003486Y007810D03*
X003385Y007808D03*
X003388Y007868D03*
X003382Y007869D03*
X003378Y007871D03*
X003385Y007935D03*
X003391Y007938D03*
X003398Y007940D03*
X003402Y007941D03*
X003406Y007941D03*
X003412Y007943D03*
X003438Y007943D03*
X003442Y007943D03*
X003446Y007943D03*
X003449Y007943D03*
X003455Y007941D03*
X003462Y007940D03*
X003431Y007996D03*
X003418Y007996D03*
X003412Y007996D03*
X003412Y008080D03*
X003409Y008080D03*
X003406Y008080D03*
X003402Y008080D03*
X003398Y008080D03*
X003394Y008080D03*
X003391Y008080D03*
X003388Y008080D03*
X003385Y008080D03*
X003415Y008080D03*
X003418Y008080D03*
X003422Y008080D03*
X003425Y008080D03*
X003428Y008080D03*
X003431Y008080D03*
X003434Y008080D03*
X003438Y008080D03*
X003442Y008080D03*
X003446Y008080D03*
X003449Y008080D03*
X003452Y008080D03*
X003455Y008080D03*
X003458Y008080D03*
X003462Y008080D03*
X003465Y008080D03*
X003468Y008080D03*
X003471Y008080D03*
X003502Y008080D03*
X003505Y008080D03*
X003508Y008080D03*
X003511Y008080D03*
X003514Y008080D03*
X003518Y008080D03*
X003522Y008080D03*
X003526Y008080D03*
X003529Y008080D03*
X003532Y008080D03*
X003535Y008080D03*
X003538Y008080D03*
X003542Y008080D03*
X003545Y008080D03*
X003465Y008146D03*
X003462Y008144D03*
X003458Y008143D03*
X003455Y008143D03*
X003449Y008141D03*
X003446Y008141D03*
X003438Y008140D03*
X003434Y008140D03*
X003431Y008140D03*
X003425Y008140D03*
X003422Y008140D03*
X003418Y008140D03*
X003415Y008140D03*
X003412Y008140D03*
X003402Y008141D03*
X003394Y008143D03*
X003351Y008183D03*
X003434Y008229D03*
X003434Y008357D03*
X003431Y008357D03*
X003428Y008357D03*
X003425Y008357D03*
X003422Y008357D03*
X003418Y008357D03*
X003415Y008357D03*
X003412Y008357D03*
X003409Y008357D03*
X003406Y008357D03*
X003402Y008357D03*
X003398Y008357D03*
X003394Y008357D03*
X003388Y008359D03*
X003438Y008357D03*
X003442Y008357D03*
X003446Y008357D03*
X003449Y008357D03*
X003452Y008357D03*
X003455Y008357D03*
X003458Y008357D03*
X003462Y008357D03*
X003465Y008357D03*
X003468Y008357D03*
X003471Y008357D03*
X003474Y008357D03*
X003478Y008357D03*
X003482Y008357D03*
X003486Y008357D03*
X003489Y008357D03*
X003492Y008357D03*
X003486Y008434D03*
X003482Y008434D03*
X003478Y008434D03*
X003474Y008434D03*
X003471Y008434D03*
X003468Y008434D03*
X003465Y008434D03*
X003462Y008434D03*
X003458Y008434D03*
X003455Y008434D03*
X003452Y008434D03*
X003449Y008434D03*
X003446Y008434D03*
X003442Y008434D03*
X003438Y008434D03*
X003434Y008434D03*
X003431Y008434D03*
X003428Y008434D03*
X003425Y008434D03*
X003422Y008434D03*
X003418Y008434D03*
X003415Y008434D03*
X003412Y008434D03*
X003409Y008434D03*
X003406Y008434D03*
X003402Y008434D03*
X003398Y008434D03*
X003394Y008434D03*
X003391Y008434D03*
X003388Y008434D03*
X003382Y008501D03*
X003378Y008559D03*
X003446Y008567D03*
X003449Y008568D03*
X003458Y008570D03*
X003462Y008570D03*
X003465Y008570D03*
X003471Y008568D03*
X003471Y008501D03*
X003468Y008501D03*
X002798Y007708D03*
X002966Y006666D03*
X002838Y006540D03*
X002831Y006541D03*
X002822Y006543D03*
X002818Y006543D03*
X003292Y006648D03*
X003295Y006648D03*
X003298Y006648D03*
X003305Y006648D03*
D42*
X003482Y006643D03*
X003478Y006787D03*
X003554Y006464D03*
X002982Y006756D03*
X003378Y007097D03*
X003474Y007273D03*
X003478Y007550D03*
X003446Y007550D03*
X003402Y007596D03*
X003375Y007596D03*
X003378Y008006D03*
X003478Y008076D03*
X002975Y008137D03*
X002954Y008249D03*
X002782Y008140D03*
X002831Y007913D03*
X002834Y007913D03*
X002838Y007913D03*
X002895Y007913D03*
X002898Y007913D03*
X002902Y007913D03*
X002905Y007913D03*
X002905Y007593D03*
X002908Y007593D03*
X002911Y007593D03*
X002914Y007593D03*
X002849Y007593D03*
X002846Y007593D03*
X002842Y007593D03*
X002794Y007436D03*
D43*
X002782Y007430D03*
X002815Y007596D03*
X002938Y007596D03*
X002932Y007916D03*
X002929Y007916D03*
X002809Y007916D03*
X002962Y008140D03*
X002962Y008249D03*
X002791Y008243D03*
X003412Y007587D03*
X003375Y006723D03*
X003354Y006300D03*
X003554Y006283D03*
X003478Y005667D03*
D44*
X003380Y006193D03*
X003553Y006464D03*
X003377Y006720D03*
X002990Y006756D03*
X002986Y006756D03*
X002860Y006532D03*
X002799Y006443D03*
X002826Y007820D03*
X002830Y007820D03*
X002937Y007820D03*
X002940Y007820D03*
X002959Y008249D03*
X002793Y008243D03*
X003410Y008507D03*
X003481Y008160D03*
X003500Y008040D03*
X003479Y008016D03*
X003476Y007929D03*
D45*
X003356Y007345D03*
X003444Y006408D03*
X003433Y006404D03*
X003356Y006385D03*
X003546Y006342D03*
X003553Y006345D03*
D46*
X003553Y006278D03*
X003500Y006256D03*
X003479Y006425D03*
X003479Y006096D03*
X003380Y005814D03*
X003377Y005748D03*
X002857Y006534D03*
X002801Y006545D03*
X002799Y006545D03*
X002990Y006948D03*
X003374Y006979D03*
X003377Y007096D03*
X003473Y007102D03*
X003476Y007339D03*
X003404Y007595D03*
X003380Y008004D03*
X003479Y008214D03*
X003377Y008364D03*
X003353Y008385D03*
X003377Y008555D03*
X003476Y008505D03*
X002801Y008028D03*
X002839Y007822D03*
X002841Y007822D03*
X002844Y007822D03*
X002921Y007822D03*
X002924Y007822D03*
X002927Y007822D03*
D47*
X002945Y007820D03*
X002926Y007916D03*
X002815Y007916D03*
X002812Y007916D03*
X002822Y007820D03*
X002802Y007708D03*
X002818Y007596D03*
X002822Y007596D03*
X002932Y007596D03*
X002935Y007596D03*
X002806Y007344D03*
X002902Y006863D03*
X002991Y006756D03*
X002862Y006532D03*
X002794Y006546D03*
X003478Y006528D03*
X003498Y006565D03*
X003551Y006463D03*
X003471Y006424D03*
X003471Y006332D03*
X003478Y005605D03*
X003442Y007552D03*
X003409Y007591D03*
X002966Y008140D03*
X002788Y008141D03*
X002802Y008029D03*
X003478Y008506D03*
X003498Y008543D03*
D48*
X003502Y008543D03*
X003495Y008436D03*
X002962Y008343D03*
X002945Y008250D03*
X003351Y007760D03*
X002966Y007708D03*
X003358Y007268D03*
X002982Y006951D03*
X003502Y006565D03*
X003498Y006517D03*
X003532Y006440D03*
X003529Y006439D03*
X003526Y006437D03*
X003522Y006436D03*
X003511Y006431D03*
X003508Y006429D03*
X003498Y006426D03*
X003449Y006440D03*
X003446Y006440D03*
X003442Y006442D03*
X003442Y006407D03*
X003431Y006404D03*
X003425Y006402D03*
X003418Y006400D03*
X003412Y006399D03*
X003406Y006397D03*
X003358Y006386D03*
X003388Y006336D03*
X003455Y006328D03*
X003418Y006264D03*
X003526Y006253D03*
X003532Y006256D03*
X003529Y006325D03*
X003532Y006328D03*
X003548Y006343D03*
X003551Y006344D03*
X003358Y005884D03*
X003495Y005820D03*
X003351Y005636D03*
X003289Y005599D03*
X003498Y005594D03*
D49*
X003471Y005674D03*
X003378Y005666D03*
X003474Y005957D03*
X003378Y006032D03*
X003478Y006098D03*
X003502Y006068D03*
X003551Y006276D03*
X003431Y006328D03*
X003482Y006424D03*
X003538Y006450D03*
X003478Y006586D03*
X003486Y006644D03*
X003489Y006644D03*
X003471Y007103D03*
X003502Y007450D03*
X003502Y007581D03*
X003378Y007738D03*
X003382Y008004D03*
X003478Y008013D03*
X003378Y008151D03*
X003375Y008213D03*
X003478Y008216D03*
X003502Y008186D03*
X003378Y008362D03*
X003478Y008564D03*
X002978Y008136D03*
X002962Y008036D03*
X002892Y007912D03*
X002889Y007912D03*
X002886Y007912D03*
X002882Y007912D03*
X002878Y007912D03*
X002874Y007912D03*
X002871Y007912D03*
X002868Y007912D03*
X002865Y007912D03*
X002862Y007912D03*
X002858Y007912D03*
X002855Y007912D03*
X002852Y007912D03*
X002849Y007912D03*
X002846Y007912D03*
X002842Y007912D03*
X002849Y007823D03*
X002852Y007823D03*
X002855Y007823D03*
X002858Y007823D03*
X002908Y007823D03*
X002911Y007823D03*
X002914Y007823D03*
X002918Y007823D03*
X002962Y007708D03*
X002902Y007592D03*
X002898Y007592D03*
X002895Y007592D03*
X002892Y007592D03*
X002889Y007592D03*
X002886Y007592D03*
X002882Y007592D03*
X002878Y007592D03*
X002874Y007592D03*
X002871Y007592D03*
X002868Y007592D03*
X002865Y007592D03*
X002862Y007592D03*
X002858Y007592D03*
X002855Y007592D03*
X002852Y007592D03*
X002802Y007344D03*
X002802Y006864D03*
X002972Y006757D03*
X002975Y006757D03*
X002978Y006757D03*
X002802Y006544D03*
X002754Y006668D03*
X002798Y008244D03*
D50*
X002793Y008143D03*
X002804Y008029D03*
X002804Y007917D03*
X002937Y007917D03*
X002959Y008036D03*
X002959Y008141D03*
X002961Y008141D03*
X002804Y007708D03*
X002810Y007597D03*
X002943Y007597D03*
X002780Y007429D03*
X002961Y007330D03*
X003414Y007584D03*
X003436Y007559D03*
X003481Y007474D03*
X003500Y008186D03*
X003481Y008210D03*
X002967Y006762D03*
X002959Y006663D03*
X002866Y006530D03*
X003377Y006263D03*
X003466Y006424D03*
X003550Y006463D03*
X003500Y006068D03*
D51*
X003356Y005963D03*
X003356Y005883D03*
X003497Y005820D03*
X003537Y006334D03*
X003540Y006337D03*
X003543Y006339D03*
X003550Y006344D03*
X003530Y006440D03*
X003441Y006406D03*
X003439Y006406D03*
X003356Y006467D03*
X003503Y007067D03*
X003356Y007267D03*
X002796Y007344D03*
X002796Y007707D03*
X002807Y008243D03*
X002943Y008249D03*
X002967Y008344D03*
X002999Y008360D03*
X003497Y008436D03*
D52*
X003476Y008566D03*
X003436Y008560D03*
X003473Y008220D03*
X003383Y008003D03*
X002953Y008249D03*
X002799Y008243D03*
X002780Y008140D03*
X002774Y008137D03*
X002860Y007824D03*
X002863Y007824D03*
X002866Y007824D03*
X002870Y007824D03*
X002873Y007824D03*
X002876Y007824D03*
X002879Y007824D03*
X002881Y007824D03*
X002884Y007824D03*
X002887Y007824D03*
X002890Y007824D03*
X002894Y007824D03*
X002897Y007824D03*
X002900Y007824D03*
X002903Y007824D03*
X002801Y007344D03*
X003380Y007483D03*
X003476Y007483D03*
X003479Y007420D03*
X003466Y007107D03*
X003473Y006720D03*
X003490Y006643D03*
X003383Y006713D03*
X003377Y006526D03*
X003430Y006329D03*
X003550Y006273D03*
X003473Y005889D03*
X003466Y005676D03*
X002847Y006537D03*
D53*
X002958Y006662D03*
X002908Y006865D03*
X002806Y006868D03*
X002778Y007428D03*
X002806Y007598D03*
X002809Y007598D03*
X002948Y007598D03*
X002942Y007918D03*
X002938Y007918D03*
X002802Y007918D03*
X002766Y008128D03*
X002958Y008142D03*
X003428Y007568D03*
X003431Y007564D03*
X003354Y006952D03*
X003548Y006462D03*
X003465Y006425D03*
D54*
X003486Y006424D03*
X003495Y006517D03*
X003474Y006589D03*
X003495Y006642D03*
X003458Y006712D03*
X003468Y006717D03*
X003471Y006719D03*
X003502Y006751D03*
X003402Y006708D03*
X003394Y006709D03*
X003388Y006711D03*
X003385Y006712D03*
X003375Y006927D03*
X003378Y006984D03*
X003468Y006989D03*
X003462Y007108D03*
X003458Y007109D03*
X003385Y007103D03*
X003471Y007271D03*
X003471Y007343D03*
X003478Y007418D03*
X003471Y007485D03*
X003468Y007487D03*
X003465Y007488D03*
X003455Y007544D03*
X003382Y007484D03*
X003382Y007413D03*
X003385Y007412D03*
X003388Y007410D03*
X003375Y007874D03*
X003378Y007932D03*
X003398Y007997D03*
X003391Y007999D03*
X003388Y008000D03*
X003465Y008004D03*
X003468Y008005D03*
X003471Y008007D03*
X003502Y008040D03*
X003474Y008079D03*
X003474Y008151D03*
X003471Y008221D03*
X003468Y008223D03*
X003449Y008228D03*
X003385Y008221D03*
X003382Y008220D03*
X003385Y008146D03*
X003382Y008360D03*
X003351Y008525D03*
X003474Y008567D03*
X003468Y007936D03*
X002895Y006858D03*
X002846Y006538D03*
X002849Y006536D03*
X002809Y006544D03*
X003425Y006333D03*
X003548Y006271D03*
X003468Y006104D03*
X003471Y006103D03*
X003478Y006036D03*
X003474Y006032D03*
X003471Y005959D03*
X003471Y005887D03*
X003382Y005744D03*
X003385Y005671D03*
X003382Y005669D03*
X003434Y005682D03*
X003438Y005682D03*
X003452Y005680D03*
X003458Y005679D03*
X003382Y006101D03*
X003385Y006103D03*
D55*
X003546Y006461D03*
X003497Y006565D03*
X002961Y006471D03*
X002956Y006661D03*
X002956Y006764D03*
X002959Y006764D03*
X002961Y006764D03*
X002950Y006764D03*
X002946Y006764D03*
X002943Y006764D03*
X002940Y006764D03*
X002937Y006764D03*
X002934Y006764D03*
X002930Y006764D03*
X002927Y006764D03*
X002924Y006764D03*
X002921Y006764D03*
X002919Y006764D03*
X002916Y006764D03*
X002913Y006764D03*
X002910Y006764D03*
X002906Y006764D03*
X002903Y006764D03*
X002900Y006764D03*
X002897Y006764D03*
X002894Y006764D03*
X002890Y006764D03*
X002887Y006764D03*
X002884Y006764D03*
X002881Y006764D03*
X002879Y006764D03*
X002876Y006764D03*
X002873Y006764D03*
X002870Y006764D03*
X002866Y006764D03*
X002863Y006764D03*
X002860Y006764D03*
X002857Y006764D03*
X002854Y006764D03*
X002850Y006764D03*
X002847Y006764D03*
X002844Y006764D03*
X002841Y006764D03*
X002839Y006764D03*
X002836Y006764D03*
X002833Y006764D03*
X002830Y006764D03*
X002826Y006764D03*
X002823Y006764D03*
X002820Y006764D03*
X002817Y006764D03*
X002814Y006764D03*
X002810Y006764D03*
X002910Y006866D03*
X002814Y007346D03*
X002860Y007357D03*
X002777Y007428D03*
X002804Y007599D03*
X002950Y007599D03*
X002956Y007708D03*
X002980Y007804D03*
X002964Y007815D03*
X002943Y007919D03*
X002799Y007919D03*
X002796Y007919D03*
X002764Y008125D03*
X002786Y008242D03*
X002956Y008143D03*
X003420Y007578D03*
X003500Y007581D03*
D56*
X003470Y007545D03*
X003457Y007491D03*
X003399Y007491D03*
X003396Y007491D03*
X003390Y007488D03*
X003386Y007411D03*
X003393Y007408D03*
X003396Y007408D03*
X003410Y007404D03*
X003414Y007404D03*
X003417Y007404D03*
X003420Y007404D03*
X003423Y007404D03*
X003426Y007404D03*
X003430Y007404D03*
X003433Y007404D03*
X003436Y007404D03*
X003457Y007408D03*
X003466Y007411D03*
X003393Y007601D03*
X003390Y007601D03*
X003386Y007601D03*
X003383Y007601D03*
X003377Y007872D03*
X003463Y007939D03*
X003447Y007998D03*
X003444Y007998D03*
X003457Y008001D03*
X003460Y008001D03*
X003466Y008004D03*
X003423Y007995D03*
X003417Y007995D03*
X003410Y007995D03*
X003393Y007998D03*
X003423Y008139D03*
X003426Y008139D03*
X003399Y008142D03*
X003396Y008142D03*
X003386Y008145D03*
X003454Y008142D03*
X003463Y008145D03*
X003460Y008225D03*
X003447Y008228D03*
X003444Y008228D03*
X003441Y008228D03*
X003439Y008228D03*
X003436Y008228D03*
X003433Y008228D03*
X003430Y008228D03*
X003426Y008228D03*
X003423Y008228D03*
X003420Y008228D03*
X003417Y008228D03*
X003414Y008228D03*
X003410Y008228D03*
X003396Y008225D03*
X003386Y008222D03*
X003380Y008502D03*
X003441Y008564D03*
X003473Y008568D03*
X003473Y008502D03*
X002799Y008028D03*
X003390Y007105D03*
X003396Y007108D03*
X003407Y007112D03*
X003410Y007112D03*
X003447Y007112D03*
X003450Y007112D03*
X003463Y006992D03*
X003380Y006985D03*
X003377Y006924D03*
X003414Y006921D03*
X003454Y006712D03*
X003457Y006712D03*
X003444Y006708D03*
X003441Y006708D03*
X003439Y006708D03*
X003399Y006708D03*
X003396Y006708D03*
X003444Y006588D03*
X003439Y006585D03*
X003473Y006524D03*
X003364Y006465D03*
X003546Y006268D03*
X003543Y006265D03*
X003457Y006108D03*
X003454Y006108D03*
X003450Y006108D03*
X003404Y006108D03*
X003401Y006108D03*
X003399Y006108D03*
X003390Y006105D03*
X003393Y006025D03*
X003407Y006022D03*
X003410Y006022D03*
X003414Y006022D03*
X003439Y006022D03*
X003444Y006022D03*
X003473Y006032D03*
X003463Y005961D03*
X003420Y005961D03*
X003393Y005742D03*
X003390Y005742D03*
X003399Y005678D03*
X003401Y005678D03*
X003393Y005675D03*
X003414Y005681D03*
X003417Y005681D03*
X003420Y005681D03*
X003439Y005681D03*
X003441Y005681D03*
X003444Y005681D03*
X003447Y005681D03*
X002964Y006468D03*
X002841Y006539D03*
X002961Y006872D03*
D57*
X002951Y006868D03*
X002948Y006868D03*
X002951Y006764D03*
X002954Y006764D03*
X002954Y006660D03*
X002806Y006764D03*
X002802Y006764D03*
X003354Y007448D03*
X003354Y007569D03*
X002798Y007601D03*
X002802Y007816D03*
X002802Y008345D03*
X003545Y006460D03*
X003542Y006459D03*
X003458Y006425D03*
X003498Y006262D03*
X003354Y006065D03*
D58*
X003388Y006027D03*
X003398Y006024D03*
X003452Y006024D03*
X003471Y006030D03*
X003468Y005960D03*
X003391Y005960D03*
X003385Y005817D03*
X003385Y005744D03*
X003406Y005680D03*
X003394Y005676D03*
X003388Y005673D03*
X003431Y005683D03*
X003455Y005680D03*
X003458Y006107D03*
X003462Y006107D03*
X003449Y006110D03*
X003446Y006110D03*
X003442Y006110D03*
X003438Y006110D03*
X003431Y006110D03*
X003428Y006110D03*
X003425Y006110D03*
X003422Y006110D03*
X003418Y006110D03*
X003415Y006110D03*
X003412Y006110D03*
X003409Y006110D03*
X003398Y006107D03*
X003394Y006107D03*
X003388Y006104D03*
X003505Y006252D03*
X003545Y006267D03*
X003468Y006337D03*
X003422Y006334D03*
X003418Y006336D03*
X003415Y006336D03*
X003369Y006464D03*
X003351Y006547D03*
X003442Y006587D03*
X003471Y006590D03*
X003452Y006710D03*
X003449Y006710D03*
X003462Y006713D03*
X003431Y006707D03*
X003428Y006707D03*
X003425Y006707D03*
X003422Y006707D03*
X003418Y006707D03*
X003415Y006707D03*
X003412Y006707D03*
X003409Y006707D03*
X003406Y006707D03*
X003391Y006710D03*
X003474Y006790D03*
X003458Y006993D03*
X003455Y007110D03*
X003438Y007113D03*
X003431Y007113D03*
X003428Y007113D03*
X003425Y007113D03*
X003422Y007113D03*
X003391Y007107D03*
X003406Y007344D03*
X003468Y007344D03*
X003449Y007406D03*
X003462Y007409D03*
X003471Y007414D03*
X003474Y007416D03*
X003406Y007406D03*
X003402Y007406D03*
X003391Y007409D03*
X003385Y007486D03*
X003391Y007489D03*
X003394Y007489D03*
X003402Y007492D03*
X003406Y007492D03*
X003409Y007492D03*
X003415Y007494D03*
X003418Y007494D03*
X003422Y007494D03*
X003425Y007494D03*
X003428Y007494D03*
X003431Y007494D03*
X003434Y007494D03*
X003438Y007494D03*
X003446Y007492D03*
X003449Y007492D03*
X003452Y007492D03*
X003462Y007489D03*
X003462Y007544D03*
X003465Y007544D03*
X003458Y007544D03*
X003351Y007569D03*
X003385Y007734D03*
X003388Y007734D03*
X003398Y007732D03*
X003382Y007934D03*
X003402Y007996D03*
X003406Y007996D03*
X003409Y007996D03*
X003428Y007996D03*
X003434Y007996D03*
X003438Y007996D03*
X003442Y007996D03*
X003452Y008000D03*
X003455Y008000D03*
X003462Y008003D03*
X003458Y007940D03*
X003442Y008140D03*
X003468Y008147D03*
X003409Y008140D03*
X003406Y008140D03*
X003391Y008144D03*
X003391Y008224D03*
X003402Y008227D03*
X003406Y008227D03*
X003452Y008227D03*
X003455Y008227D03*
X003465Y008224D03*
X003385Y008360D03*
X003385Y008433D03*
X003442Y008566D03*
X003468Y008569D03*
X002948Y008249D03*
X002985Y008134D03*
X002802Y008243D03*
X002985Y006950D03*
X003002Y006840D03*
X002815Y006544D03*
X002812Y006544D03*
D59*
X003543Y006460D03*
X003426Y007570D03*
X003423Y007573D03*
X002807Y007816D03*
D60*
X002994Y008132D03*
X003498Y008495D03*
X003542Y006338D03*
X003462Y006335D03*
X003458Y006332D03*
X003522Y006252D03*
X003529Y006255D03*
D61*
X003538Y006476D03*
X003438Y006971D03*
X003378Y007540D03*
X002798Y006859D03*
X002825Y008243D03*
X002926Y008249D03*
D62*
X003497Y007812D03*
X003497Y007732D03*
X003383Y006335D03*
X003521Y006252D03*
X003524Y006252D03*
X003530Y006255D03*
D63*
X003522Y006320D03*
X002975Y008347D03*
D64*
X002977Y008348D03*
X002980Y008349D03*
X002990Y008352D03*
X002993Y008354D03*
X003361Y008437D03*
X003503Y008040D03*
X003361Y007813D03*
X003503Y007580D03*
X003500Y007207D03*
X003361Y007205D03*
X003503Y006952D03*
X003503Y006751D03*
X003361Y006796D03*
X003500Y006517D03*
X003521Y006319D03*
X003361Y006202D03*
X002974Y006952D03*
X002967Y007708D03*
D65*
X002986Y008352D03*
X002999Y006838D03*
X002967Y006665D03*
X003359Y006795D03*
X003519Y006318D03*
X003500Y006204D03*
X003503Y005641D03*
D66*
X003502Y005594D03*
X003455Y006301D03*
X003518Y006317D03*
X003282Y006644D03*
X002969Y006954D03*
X002966Y006954D03*
X002962Y006956D03*
X002794Y006445D03*
X002794Y007708D03*
X002815Y008244D03*
D67*
X002820Y008243D03*
X002930Y008249D03*
X003383Y008564D03*
X003383Y006587D03*
X003516Y006316D03*
D68*
X003446Y006408D03*
X003434Y006404D03*
X003422Y006401D03*
X003514Y006432D03*
X003498Y006201D03*
X003498Y006641D03*
X003286Y006648D03*
X002962Y006872D03*
X003498Y007204D03*
X003351Y008385D03*
X003286Y005598D03*
D69*
X003358Y005821D03*
X003358Y006200D03*
X003514Y006316D03*
X003474Y006917D03*
X003378Y007037D03*
X003351Y007160D03*
X003358Y007812D03*
X003474Y007864D03*
D70*
X003350Y008186D03*
X003513Y006316D03*
X003350Y005960D03*
X003350Y005634D03*
D71*
X003511Y006315D03*
X002922Y008249D03*
X002828Y008243D03*
D72*
X003510Y006315D03*
D73*
X003508Y006251D03*
X003378Y006268D03*
X003372Y006328D03*
X003366Y006465D03*
X003378Y006524D03*
X003398Y006708D03*
X003438Y006708D03*
X003442Y006708D03*
X003446Y006708D03*
X003455Y006712D03*
X003465Y006715D03*
X003465Y006992D03*
X003438Y006995D03*
X003449Y007112D03*
X003452Y007112D03*
X003409Y007112D03*
X003394Y007108D03*
X003388Y007105D03*
X003415Y007404D03*
X003418Y007404D03*
X003422Y007404D03*
X003425Y007404D03*
X003428Y007404D03*
X003431Y007404D03*
X003434Y007404D03*
X003438Y007404D03*
X003455Y007408D03*
X003394Y007408D03*
X003351Y007448D03*
X003388Y007488D03*
X003398Y007491D03*
X003455Y007491D03*
X003458Y007491D03*
X003471Y007545D03*
X003394Y007601D03*
X003391Y007601D03*
X003385Y007601D03*
X003382Y007601D03*
X003465Y007939D03*
X003452Y007942D03*
X003449Y007998D03*
X003446Y007998D03*
X003458Y008001D03*
X003425Y007995D03*
X003422Y007995D03*
X003415Y007995D03*
X003394Y007998D03*
X003398Y008142D03*
X003388Y008145D03*
X003428Y008139D03*
X003452Y008142D03*
X003471Y008148D03*
X003462Y008225D03*
X003458Y008225D03*
X003446Y008228D03*
X003442Y008228D03*
X003438Y008228D03*
X003431Y008228D03*
X003428Y008228D03*
X003425Y008228D03*
X003422Y008228D03*
X003418Y008228D03*
X003415Y008228D03*
X003412Y008228D03*
X003409Y008228D03*
X003398Y008225D03*
X003394Y008225D03*
X003388Y008222D03*
X003391Y008358D03*
X003378Y008502D03*
X002962Y007331D03*
X002842Y006539D03*
X003391Y006105D03*
X003402Y006108D03*
X003452Y006108D03*
X003455Y006108D03*
X003465Y006105D03*
X003468Y006028D03*
X003458Y006025D03*
X003442Y006022D03*
X003412Y006022D03*
X003409Y006022D03*
X003406Y006022D03*
X003391Y006025D03*
X003385Y006028D03*
X003465Y005961D03*
X003391Y005742D03*
X003412Y005681D03*
X003415Y005681D03*
X003418Y005681D03*
X003422Y005681D03*
X003425Y005681D03*
X003428Y005681D03*
X003442Y005681D03*
X003446Y005681D03*
X003449Y005681D03*
X003391Y005675D03*
D74*
X003350Y005771D03*
X003380Y006148D03*
X003353Y006377D03*
X003503Y006520D03*
X003410Y006550D03*
X003470Y006912D03*
X003473Y007033D03*
X003356Y007203D03*
X003353Y007268D03*
X003350Y007763D03*
X003470Y007859D03*
X003350Y008388D03*
X003503Y008539D03*
X003503Y008548D03*
X002919Y008249D03*
X002833Y008243D03*
D75*
X003350Y008517D03*
X003503Y008543D03*
X003350Y007903D03*
X003356Y007810D03*
X003350Y007576D03*
X003350Y007564D03*
X003374Y007447D03*
X003350Y007444D03*
X003350Y007440D03*
X003380Y007152D03*
X003380Y007149D03*
X003350Y007056D03*
X003479Y007060D03*
X003281Y006644D03*
X003350Y006540D03*
X003350Y006306D03*
X003500Y005733D03*
X003281Y005592D03*
X003281Y005589D03*
X003281Y005586D03*
X002767Y006687D03*
X002774Y007533D03*
D76*
X003001Y008063D03*
X003503Y008496D03*
X003380Y007036D03*
X002993Y006837D03*
D77*
X002977Y006952D03*
X002799Y006860D03*
X003500Y006641D03*
X003503Y007899D03*
X003361Y008084D03*
X003503Y008185D03*
X002970Y008345D03*
X002940Y008249D03*
D78*
X003503Y007450D03*
D79*
X003503Y007316D03*
X002793Y007344D03*
X002761Y006680D03*
X003353Y005876D03*
X003503Y005932D03*
D80*
X003503Y006642D03*
X002770Y007532D03*
X003473Y007612D03*
D81*
X003353Y007259D03*
X002996Y006838D03*
X003353Y006387D03*
X003503Y006564D03*
X003350Y006067D03*
X003503Y005595D03*
X003004Y008059D03*
X002927Y008249D03*
X002823Y008243D03*
D82*
X002801Y008244D03*
X002964Y007708D03*
X003380Y007736D03*
X003383Y007807D03*
X003414Y007869D03*
X003377Y007930D03*
X003396Y007997D03*
X003390Y007999D03*
X003386Y008000D03*
X003414Y007996D03*
X003470Y008007D03*
X003473Y008008D03*
X003383Y008079D03*
X003383Y008148D03*
X003380Y008149D03*
X003380Y008218D03*
X003383Y008220D03*
X003457Y008226D03*
X003463Y008224D03*
X003466Y008223D03*
X003470Y008221D03*
X003476Y008152D03*
X003383Y008432D03*
X003377Y008504D03*
X003439Y008564D03*
X003396Y007600D03*
X003380Y007600D03*
X003450Y007546D03*
X003454Y007544D03*
X003473Y007546D03*
X003460Y007490D03*
X003466Y007488D03*
X003470Y007487D03*
X003476Y007416D03*
X003470Y007343D03*
X003473Y007341D03*
X003383Y007412D03*
X003383Y007485D03*
X003386Y007487D03*
X003383Y007199D03*
X003386Y007104D03*
X003460Y007109D03*
X003463Y007108D03*
X003377Y006983D03*
X003470Y006717D03*
X003466Y006716D03*
X003463Y006714D03*
X003401Y006708D03*
X003393Y006709D03*
X003390Y006711D03*
X003386Y006712D03*
X003481Y006645D03*
X003494Y006642D03*
X003476Y006588D03*
X003487Y006424D03*
X003426Y006332D03*
X003423Y006333D03*
X003433Y006272D03*
X003503Y006253D03*
X003383Y006197D03*
X003383Y006101D03*
X003380Y006100D03*
X003380Y006031D03*
X003383Y006029D03*
X003386Y006028D03*
X003476Y006034D03*
X003470Y006103D03*
X003466Y006104D03*
X003463Y006106D03*
X003383Y005816D03*
X003430Y005682D03*
X003450Y005680D03*
X003454Y005680D03*
X003457Y005679D03*
X003460Y005679D03*
X003463Y005677D03*
X003390Y005674D03*
X003386Y005672D03*
X003383Y005671D03*
X003473Y005600D03*
X002844Y006538D03*
X002810Y006544D03*
X002807Y006544D03*
X002986Y006949D03*
D83*
X003284Y006646D03*
X003503Y006067D03*
X003284Y005596D03*
X003500Y005593D03*
X002810Y008243D03*
X002974Y008347D03*
X002996Y008356D03*
D84*
X002935Y008249D03*
X003006Y008056D03*
X003502Y008496D03*
X003502Y006641D03*
X003282Y005595D03*
D85*
X003375Y005663D03*
X003474Y005671D03*
X003474Y005890D03*
X003375Y006036D03*
X003358Y006160D03*
X003478Y006424D03*
X003434Y006580D03*
X003378Y006786D03*
X003502Y006952D03*
X003474Y006984D03*
X003502Y007068D03*
X003474Y007101D03*
X002985Y006757D03*
X002898Y006861D03*
X002858Y006533D03*
X002838Y007594D03*
X002834Y007594D03*
X002831Y007594D03*
X002918Y007594D03*
X002922Y007594D03*
X002929Y007821D03*
X002932Y007821D03*
X002935Y007821D03*
X002914Y007914D03*
X002911Y007914D03*
X002908Y007914D03*
X002828Y007914D03*
X002825Y007914D03*
X002831Y007821D03*
X002834Y007821D03*
X002785Y008141D03*
X002972Y008138D03*
X003375Y008154D03*
X003474Y007932D03*
X003502Y007900D03*
X003378Y007804D03*
X003434Y008557D03*
D86*
X002818Y008244D03*
X003478Y007039D03*
X003502Y006517D03*
X003354Y006244D03*
X003351Y005960D03*
D87*
X003382Y005816D03*
X003462Y005678D03*
X003468Y005675D03*
X003474Y005601D03*
X003375Y005601D03*
X003378Y006099D03*
X003382Y006195D03*
X003502Y006254D03*
X003428Y006331D03*
X003382Y006715D03*
X003382Y006788D03*
X003474Y006721D03*
X003468Y007105D03*
X003382Y007198D03*
X003378Y007416D03*
X003378Y007481D03*
X003474Y007484D03*
X003452Y007545D03*
X003382Y007736D03*
X003375Y007928D03*
X003385Y008001D03*
X003382Y008078D03*
X003382Y008148D03*
X003474Y008219D03*
X003382Y008432D03*
X003438Y008561D03*
X003471Y007934D03*
X002775Y008139D03*
X002988Y006948D03*
X002852Y006536D03*
X002806Y006545D03*
D88*
X002804Y006544D03*
X002854Y006535D03*
X002799Y006655D03*
X002970Y006757D03*
X002974Y006757D03*
X002977Y006757D03*
X002959Y006871D03*
X002897Y006860D03*
X003374Y006928D03*
X003473Y006986D03*
X003470Y007104D03*
X003356Y007162D03*
X003377Y007416D03*
X003377Y007480D03*
X003447Y007548D03*
X003401Y007597D03*
X003353Y007760D03*
X003374Y007876D03*
X003473Y007933D03*
X003476Y008012D03*
X003479Y008156D03*
X003476Y008218D03*
X003377Y008215D03*
X003377Y008152D03*
X003500Y008543D03*
X002977Y008136D03*
X002890Y007912D03*
X002887Y007912D03*
X002884Y007912D03*
X002881Y007912D03*
X002879Y007912D03*
X002876Y007912D03*
X002873Y007912D03*
X002870Y007912D03*
X002866Y007912D03*
X002863Y007912D03*
X002860Y007912D03*
X002857Y007912D03*
X002854Y007912D03*
X002850Y007912D03*
X002847Y007912D03*
X002844Y007912D03*
X002841Y007912D03*
X002847Y007823D03*
X002850Y007823D03*
X002854Y007823D03*
X002857Y007823D03*
X002906Y007823D03*
X002910Y007823D03*
X002913Y007823D03*
X002916Y007823D03*
X002919Y007823D03*
X002799Y007708D03*
X002854Y007592D03*
X002857Y007592D03*
X002860Y007592D03*
X002863Y007592D03*
X002866Y007592D03*
X002870Y007592D03*
X002873Y007592D03*
X002876Y007592D03*
X002879Y007592D03*
X002881Y007592D03*
X002884Y007592D03*
X002887Y007592D03*
X002890Y007592D03*
X002894Y007592D03*
X002897Y007592D03*
X002900Y007592D03*
X003380Y006788D03*
X003380Y006716D03*
X003476Y006722D03*
X003436Y006581D03*
X003377Y006578D03*
X003500Y006565D03*
X003481Y006424D03*
X003470Y006335D03*
X003353Y006300D03*
X003356Y006159D03*
X003377Y006096D03*
X003377Y006034D03*
X003479Y006037D03*
X003476Y006100D03*
X003476Y005956D03*
X003470Y005674D03*
X003473Y005672D03*
X003377Y005664D03*
D89*
X002890Y006852D03*
X003500Y007815D03*
X003500Y008495D03*
D90*
X003500Y008360D03*
X003359Y008084D03*
X003476Y007866D03*
X003353Y007344D03*
X003494Y007266D03*
X003476Y006919D03*
X003353Y006464D03*
X002967Y006954D03*
X002961Y006956D03*
X003353Y005960D03*
X003359Y005821D03*
X003494Y005882D03*
D91*
X003460Y006425D03*
X002961Y006552D03*
X002956Y006548D03*
X002870Y006528D03*
X002786Y006545D03*
X002799Y006764D03*
X002801Y006764D03*
X002804Y006764D03*
X002807Y006764D03*
X002953Y006764D03*
X002950Y006868D03*
X002946Y006868D03*
X003500Y006952D03*
X003500Y007068D03*
X002796Y007601D03*
X002774Y007425D03*
X002804Y007816D03*
X002967Y008249D03*
X003500Y007899D03*
D92*
X003359Y007812D03*
X003500Y007736D03*
X003476Y007609D03*
X003359Y007204D03*
X002964Y006955D03*
X002759Y006678D03*
X003359Y006201D03*
X003500Y005745D03*
X002934Y008249D03*
D93*
X003001Y008358D03*
X002790Y008142D03*
X002817Y007819D03*
X002950Y007819D03*
X002977Y007804D03*
X002959Y007708D03*
X002807Y007345D03*
X002993Y006755D03*
X002793Y006545D03*
X003353Y006548D03*
X003433Y006576D03*
X003470Y006425D03*
X003359Y006161D03*
X003481Y006092D03*
X003377Y005811D03*
X003374Y005659D03*
X003359Y007164D03*
X003500Y007451D03*
X003479Y007555D03*
X003410Y007588D03*
X003374Y008158D03*
D94*
X003380Y008076D03*
X003353Y008033D03*
X003374Y007926D03*
X003380Y007806D03*
X003500Y007316D03*
X003353Y006744D03*
X003484Y006643D03*
X003487Y006643D03*
X003433Y006326D03*
X003353Y005769D03*
X003476Y005603D03*
X002964Y006667D03*
X002980Y006756D03*
X002801Y007440D03*
X002799Y007440D03*
X002841Y007593D03*
X002844Y007593D03*
X002847Y007593D03*
X002850Y007593D03*
X002903Y007593D03*
X002906Y007593D03*
X002910Y007593D03*
X002913Y007593D03*
X002903Y007913D03*
X002900Y007913D03*
X002897Y007913D03*
X002894Y007913D03*
X002839Y007913D03*
X002836Y007913D03*
X002833Y007913D03*
X002830Y007913D03*
X002974Y008137D03*
X002956Y008249D03*
X002796Y008243D03*
X003380Y008430D03*
D95*
X002990Y008249D03*
X002910Y008156D03*
X002839Y008156D03*
X002983Y007931D03*
X002921Y007708D03*
X002919Y007708D03*
X003364Y007571D03*
X003490Y007451D03*
X003364Y007180D03*
X003364Y007067D03*
X003490Y007072D03*
X003500Y006768D03*
X003420Y006545D03*
X003364Y006179D03*
X002890Y006516D03*
D96*
X002983Y006757D03*
X003353Y006951D03*
X003353Y007064D03*
X003380Y007196D03*
X003479Y007479D03*
X003444Y007551D03*
X003377Y007740D03*
X003353Y007898D03*
X002970Y007807D03*
X002934Y007821D03*
X002930Y007821D03*
X002836Y007821D03*
X002833Y007821D03*
X002826Y007914D03*
X002823Y007914D03*
X002906Y007914D03*
X002910Y007914D03*
X002913Y007914D03*
X002961Y008036D03*
X002970Y008138D03*
X002783Y008141D03*
X002770Y008133D03*
X002801Y007708D03*
X002833Y007594D03*
X002836Y007594D03*
X002839Y007594D03*
X002916Y007594D03*
X002919Y007594D03*
X002921Y007594D03*
X002796Y007437D03*
X002793Y007436D03*
X002790Y007434D03*
X002804Y007344D03*
X003479Y006727D03*
X003476Y006527D03*
X003476Y006424D03*
X003481Y006040D03*
X003500Y005933D03*
X003500Y005644D03*
D97*
X003498Y005741D03*
X003498Y005821D03*
X003354Y005882D03*
X003354Y006466D03*
X002978Y006951D03*
X003375Y007042D03*
X003354Y007266D03*
X003498Y007812D03*
X003498Y008357D03*
X003498Y008437D03*
X002998Y008357D03*
X002972Y008346D03*
X002969Y008344D03*
X002966Y008036D03*
X002798Y008028D03*
D98*
X002791Y007920D03*
X002951Y007920D03*
X002954Y007708D03*
X002958Y007600D03*
X002794Y007602D03*
X002809Y007708D03*
X002772Y007424D03*
X002815Y007346D03*
X002918Y006868D03*
X002942Y006869D03*
X002945Y006869D03*
X002798Y006765D03*
X002794Y006765D03*
X002785Y006546D03*
X002871Y006527D03*
X002962Y006552D03*
X002966Y006554D03*
X003354Y006549D03*
X003412Y006533D03*
X003495Y006565D03*
X003455Y006424D03*
X003498Y006068D03*
X003498Y007450D03*
X003498Y008186D03*
X003412Y008512D03*
X003354Y008527D03*
X003495Y008543D03*
D99*
X003498Y008056D03*
X003372Y007574D03*
X003369Y007572D03*
X003489Y007451D03*
X003489Y007072D03*
X002908Y007708D03*
X002905Y007708D03*
X002855Y007708D03*
X002852Y007708D03*
X002769Y007801D03*
X002902Y008158D03*
X002991Y008249D03*
X002838Y008339D03*
X003358Y005624D03*
D100*
X003452Y006308D03*
X002948Y006657D03*
X002806Y006656D03*
X002782Y006768D03*
X002809Y006872D03*
X003498Y006952D03*
X003498Y007068D03*
X002785Y007606D03*
X002782Y007608D03*
X002791Y007812D03*
X002951Y008035D03*
X002972Y008249D03*
X002812Y008342D03*
X003498Y007899D03*
D101*
X003498Y007581D03*
X002962Y007602D03*
X002951Y007708D03*
X002958Y007922D03*
X002945Y008146D03*
X002806Y008146D03*
X002822Y007346D03*
X002874Y006525D03*
X003372Y006264D03*
X003452Y006424D03*
D102*
X003478Y006979D03*
X003498Y007316D03*
X003422Y007576D03*
X003415Y007584D03*
X003354Y007899D03*
X003478Y007926D03*
X002969Y007811D03*
X002962Y007816D03*
X002958Y007817D03*
X002809Y007817D03*
X002794Y008144D03*
X002788Y008243D03*
X002966Y006763D03*
X002802Y006656D03*
X002868Y006529D03*
X003498Y005643D03*
D103*
X003422Y006546D03*
X003498Y006767D03*
X002905Y008157D03*
X002842Y008157D03*
D104*
X002964Y008249D03*
X002959Y007817D03*
X002961Y007816D03*
X002956Y007817D03*
X002967Y007812D03*
X002810Y007817D03*
X003430Y007566D03*
X003433Y007563D03*
X003361Y007166D03*
X002964Y006763D03*
X003361Y006163D03*
X003497Y008544D03*
D105*
X003414Y008516D03*
X003356Y008183D03*
X003497Y008186D03*
X002950Y008034D03*
X002964Y007924D03*
X002783Y007924D03*
X002814Y007708D03*
X002967Y007604D03*
X002830Y007348D03*
X002943Y006656D03*
X002977Y006560D03*
X002780Y006546D03*
X003497Y006068D03*
X002810Y008148D03*
D106*
X002850Y008160D03*
X002897Y008160D03*
X002839Y008339D03*
X002767Y007800D03*
X002993Y007616D03*
X002900Y007480D03*
X002897Y007480D03*
X002894Y007480D03*
X002890Y007480D03*
X002887Y007480D03*
X002884Y007480D03*
X002881Y007480D03*
X002879Y007480D03*
X002876Y007480D03*
X002804Y007464D03*
X003374Y007072D03*
X003487Y007451D03*
X003487Y007579D03*
X003370Y007900D03*
X003497Y008054D03*
X003426Y008528D03*
X003364Y008532D03*
X003359Y005625D03*
D107*
X003359Y005771D03*
X003494Y005932D03*
X003447Y006302D03*
X003359Y006745D03*
X003497Y006952D03*
X003494Y007315D03*
X003359Y007763D03*
X003497Y007899D03*
X003359Y008387D03*
X002940Y008032D03*
X002970Y007926D03*
X002777Y007926D03*
X002783Y007809D03*
X002943Y007708D03*
X002777Y007609D03*
X002841Y007348D03*
X002844Y007348D03*
X002847Y007348D03*
X002999Y006947D03*
X002770Y006771D03*
X002934Y006654D03*
X002879Y006523D03*
X002774Y008243D03*
X002820Y008340D03*
D108*
X002817Y008341D03*
X002934Y008149D03*
X002943Y008032D03*
X002967Y007925D03*
X002810Y008031D03*
X002817Y007708D03*
X002974Y007605D03*
X002850Y007349D03*
X002839Y007348D03*
X002810Y006874D03*
X002810Y006655D03*
X002937Y006655D03*
X003359Y006952D03*
X003497Y007069D03*
X003497Y007581D03*
D109*
X003497Y007451D03*
X002970Y007604D03*
X002786Y007811D03*
X002780Y007924D03*
X002946Y008033D03*
X002777Y008243D03*
X002767Y007422D03*
X002774Y006769D03*
X002807Y006656D03*
X002940Y006656D03*
X002980Y006563D03*
X003356Y006550D03*
X003414Y006537D03*
X003450Y006305D03*
D110*
X003374Y006264D03*
X002996Y006753D03*
X002790Y006766D03*
X002786Y006766D03*
X002873Y006526D03*
X003479Y007091D03*
X003497Y007316D03*
X002820Y007347D03*
X002770Y007424D03*
X002796Y007814D03*
X002807Y008030D03*
X002783Y008243D03*
X002807Y008344D03*
X002970Y008249D03*
X003356Y008033D03*
D111*
X003356Y008083D03*
X003473Y007862D03*
X003350Y007344D03*
X003497Y007267D03*
X003350Y007065D03*
X003356Y006793D03*
X003350Y006547D03*
X003497Y005883D03*
X002924Y008249D03*
X002826Y008243D03*
X003350Y008524D03*
D112*
X002900Y008159D03*
X002847Y008159D03*
X002986Y007932D03*
X002903Y007708D03*
X002900Y007708D03*
X002897Y007708D03*
X002894Y007708D03*
X002890Y007708D03*
X002887Y007708D03*
X002884Y007708D03*
X002881Y007708D03*
X002879Y007708D03*
X002876Y007708D03*
X002873Y007708D03*
X002870Y007708D03*
X002866Y007708D03*
X002863Y007708D03*
X002860Y007708D03*
X002857Y007708D03*
X003497Y006765D03*
X003423Y006548D03*
X003439Y006301D03*
D113*
X003497Y006275D03*
X002996Y007795D03*
X002913Y008155D03*
X002833Y008155D03*
D114*
X002801Y008144D03*
X002799Y008144D03*
X002950Y008144D03*
X002804Y008344D03*
X002793Y007920D03*
X002953Y007920D03*
X002983Y007802D03*
X002956Y007600D03*
X002793Y007602D03*
X002817Y007346D03*
X002807Y006871D03*
X002796Y006765D03*
X002793Y006765D03*
X002804Y006656D03*
X002953Y006660D03*
X002967Y006556D03*
X002964Y006554D03*
X002959Y006551D03*
X002943Y006869D03*
X002921Y006868D03*
X002919Y006868D03*
X002916Y006868D03*
X003356Y006952D03*
X003356Y006744D03*
X003457Y006424D03*
X003497Y005933D03*
X003356Y005770D03*
X003497Y005644D03*
X003356Y007900D03*
X003356Y008386D03*
D115*
X003495Y008495D03*
X002982Y008135D03*
D116*
X002929Y008151D03*
X002822Y008151D03*
X002812Y008031D03*
X002775Y007927D03*
X002935Y008031D03*
X002972Y007927D03*
X003495Y008186D03*
X002812Y006876D03*
X002815Y006653D03*
X002929Y006653D03*
X002932Y006653D03*
X003358Y006551D03*
X003415Y006540D03*
D117*
X003495Y006764D03*
X003495Y006280D03*
X002769Y006546D03*
X003482Y007576D03*
X003489Y007900D03*
X003495Y008053D03*
X002895Y008160D03*
X002852Y008160D03*
D118*
X002769Y008243D03*
X002828Y008339D03*
X002825Y008028D03*
X002822Y008028D03*
X002918Y008028D03*
X002922Y008028D03*
X002978Y007929D03*
X002828Y007707D03*
X002982Y007609D03*
X003362Y007900D03*
X003495Y007899D03*
X003378Y007182D03*
X003495Y006952D03*
X002918Y006651D03*
X002914Y006651D03*
X002828Y006651D03*
X002825Y006651D03*
X002886Y006520D03*
X003378Y006179D03*
D119*
X003492Y005932D03*
X002922Y006652D03*
X002822Y006652D03*
X003006Y006845D03*
X003495Y007581D03*
X002994Y007796D03*
X002935Y007708D03*
X002825Y007708D03*
X002772Y007928D03*
X002825Y008152D03*
X002922Y008152D03*
D120*
X002938Y008148D03*
X002948Y008034D03*
X002962Y007924D03*
X002782Y007924D03*
X002948Y007708D03*
X002969Y007604D03*
X002778Y007610D03*
X002769Y007423D03*
X002828Y007348D03*
X002831Y007348D03*
X003358Y006952D03*
X003495Y007316D03*
X003358Y007762D03*
X003358Y007900D03*
X003358Y008034D03*
X003358Y008386D03*
X002809Y008148D03*
X002945Y006656D03*
X002958Y006472D03*
X002802Y006437D03*
X002782Y006546D03*
X003495Y005933D03*
X003358Y005770D03*
D121*
X003446Y006300D03*
X002985Y006564D03*
X002926Y006652D03*
X002818Y006652D03*
X002882Y006521D03*
X003495Y007070D03*
X002978Y007608D03*
X002938Y007708D03*
X002822Y007707D03*
X002775Y007609D03*
X002975Y007928D03*
X002932Y008030D03*
X002929Y008030D03*
X002815Y008030D03*
X002982Y008249D03*
X003358Y008529D03*
D122*
X002772Y008242D03*
X002782Y007808D03*
X002942Y007708D03*
X002766Y007421D03*
X002769Y006772D03*
X003495Y006068D03*
D123*
X003495Y005625D03*
X003372Y005632D03*
X002972Y006342D03*
X002905Y006508D03*
X002791Y006342D03*
X002772Y006342D03*
X002994Y007934D03*
X002874Y008166D03*
X002871Y008166D03*
X002842Y008344D03*
X003492Y008526D03*
X003486Y008048D03*
D124*
X003487Y008048D03*
X003494Y008525D03*
X002879Y008165D03*
X002903Y006341D03*
X002786Y006341D03*
X002783Y006341D03*
D125*
X002884Y006520D03*
X003361Y006746D03*
X002956Y007327D03*
X002764Y007420D03*
X002820Y008029D03*
X002924Y008029D03*
X002927Y008029D03*
X002826Y008340D03*
X003359Y008183D03*
X003494Y008186D03*
X003417Y008520D03*
D126*
X003430Y008529D03*
X003374Y008531D03*
X003370Y008532D03*
X003367Y008532D03*
X003367Y008184D03*
X003494Y008052D03*
X003487Y007900D03*
X003481Y007576D03*
X003367Y007448D03*
X002996Y007619D03*
X002990Y007932D03*
X002854Y008161D03*
X002841Y008340D03*
X002761Y007937D03*
X003487Y006953D03*
X003494Y006763D03*
X003374Y006553D03*
X003436Y006300D03*
X003367Y006065D03*
X002946Y006337D03*
X002943Y006337D03*
X002940Y006337D03*
X002937Y006337D03*
X002934Y006337D03*
X002930Y006337D03*
X002927Y006337D03*
X002924Y006337D03*
X002897Y006513D03*
X002993Y006566D03*
D127*
X002900Y006649D03*
X002897Y006649D03*
X002894Y006649D03*
X002890Y006649D03*
X002887Y006649D03*
X002850Y006649D03*
X002847Y006649D03*
X002844Y006649D03*
X002841Y006649D03*
X002839Y006649D03*
X003001Y006752D03*
X003001Y006948D03*
X003364Y006953D03*
X003494Y006952D03*
X003361Y007448D03*
X003364Y007900D03*
X003494Y007899D03*
X002986Y008249D03*
X002833Y008339D03*
X002833Y008027D03*
X002836Y008027D03*
X002839Y008027D03*
X002841Y008027D03*
X002900Y008027D03*
X002903Y008027D03*
X002906Y008027D03*
X002774Y007804D03*
X002833Y007707D03*
X002927Y007708D03*
D128*
X002930Y007708D03*
X002830Y007708D03*
X002830Y008028D03*
X002826Y008028D03*
X002910Y008028D03*
X002913Y008028D03*
X002916Y008028D03*
X002767Y008242D03*
X003494Y007581D03*
X003374Y007181D03*
X002814Y006879D03*
X002887Y006519D03*
X003374Y006178D03*
X003361Y006064D03*
D129*
X003367Y005630D03*
X002967Y006340D03*
X002964Y006340D03*
X002906Y006340D03*
X002780Y006340D03*
X002777Y006340D03*
X003494Y006547D03*
X003487Y006760D03*
X003433Y006964D03*
X002999Y007622D03*
X002814Y007473D03*
X002866Y008164D03*
X002881Y008164D03*
D130*
X002764Y007797D03*
X002836Y007477D03*
X002839Y007477D03*
X002841Y007477D03*
X002934Y007477D03*
X002937Y007477D03*
X003481Y007074D03*
X003484Y006954D03*
X003430Y006551D03*
X003370Y006554D03*
X003494Y006284D03*
X002767Y006546D03*
X002993Y008554D03*
X002996Y008554D03*
D131*
X002770Y008242D03*
X002826Y008152D03*
X002977Y007928D03*
X002937Y007708D03*
X002980Y007608D03*
X003361Y008034D03*
X003361Y008388D03*
X002921Y006652D03*
X002919Y006652D03*
X002823Y006652D03*
X002820Y006652D03*
X003359Y006064D03*
X003494Y006068D03*
X003361Y005772D03*
D132*
X003494Y005625D03*
X003490Y005918D03*
X003361Y006284D03*
X003479Y006555D03*
X002764Y006545D03*
X002967Y007472D03*
X002759Y007792D03*
X002666Y008548D03*
D133*
X002831Y008339D03*
X002985Y008249D03*
X002908Y008027D03*
X002905Y008027D03*
X002902Y008027D03*
X002898Y008027D03*
X002838Y008027D03*
X002834Y008027D03*
X002985Y007611D03*
X003372Y007180D03*
X003492Y007070D03*
X003492Y007451D03*
X003492Y008185D03*
X002762Y006776D03*
X002838Y006649D03*
X002842Y006649D03*
X002846Y006649D03*
X002849Y006649D03*
X002889Y006649D03*
X002892Y006649D03*
X002895Y006649D03*
X002898Y006649D03*
X002902Y006649D03*
X003418Y006544D03*
X003492Y006067D03*
D134*
X003369Y006065D03*
X003431Y006552D03*
X003482Y006955D03*
X002958Y006339D03*
X002914Y006339D03*
X002911Y006339D03*
X002998Y007620D03*
X002991Y007932D03*
X002886Y008163D03*
X003369Y008184D03*
X003492Y008051D03*
X003482Y007902D03*
D135*
X003492Y007899D03*
X003366Y007900D03*
X003492Y007580D03*
X003362Y007448D03*
X003366Y007180D03*
X003366Y006953D03*
X003492Y006952D03*
X002988Y007612D03*
X002918Y007708D03*
X002772Y007609D03*
X002766Y007932D03*
X002838Y008156D03*
X002908Y008156D03*
X002988Y008249D03*
X002834Y008339D03*
X003422Y008524D03*
X003366Y006179D03*
X003362Y006177D03*
X003362Y006065D03*
D136*
X003492Y007315D03*
X002926Y008152D03*
D137*
X002994Y008355D03*
X003354Y007345D03*
X003492Y007265D03*
X003354Y006385D03*
X003354Y005961D03*
D138*
X003486Y006068D03*
X003434Y006301D03*
X003492Y006762D03*
X002954Y006338D03*
X002951Y006338D03*
X002948Y006338D03*
X002922Y006338D03*
X002918Y006338D03*
X003362Y005628D03*
X003369Y007448D03*
X002889Y008162D03*
X002858Y008162D03*
X003372Y008532D03*
D139*
X003474Y008504D03*
X003378Y008217D03*
X003478Y008153D03*
X003474Y008009D03*
X003382Y007806D03*
X003378Y007600D03*
X003398Y007600D03*
X003449Y007547D03*
X003474Y007547D03*
X003474Y007340D03*
X003465Y007107D03*
X003382Y007100D03*
X003375Y006980D03*
X003471Y006987D03*
X003492Y006643D03*
X003438Y006584D03*
X003474Y006526D03*
X003474Y006100D03*
X003382Y006030D03*
X003378Y005747D03*
X003465Y005676D03*
X002798Y006443D03*
X002862Y007824D03*
X002865Y007824D03*
X002868Y007824D03*
X002871Y007824D03*
X002874Y007824D03*
X002878Y007824D03*
X002882Y007824D03*
X002886Y007824D03*
X002889Y007824D03*
X002892Y007824D03*
X002895Y007824D03*
X002898Y007824D03*
X002902Y007824D03*
X002905Y007824D03*
X002778Y008140D03*
X002951Y008249D03*
D140*
X002954Y007474D03*
X002958Y007474D03*
X002815Y007474D03*
X003486Y006759D03*
X003492Y006548D03*
X003492Y006287D03*
X003369Y005631D03*
D141*
X003492Y005882D03*
X002758Y006676D03*
X002975Y006952D03*
X002766Y007530D03*
X002766Y008074D03*
X002812Y008244D03*
X002978Y008348D03*
X003478Y007607D03*
D142*
X003482Y007304D03*
X002972Y007470D03*
X003366Y008046D03*
X003369Y008400D03*
X002908Y006507D03*
X003486Y005920D03*
X003369Y005784D03*
X003492Y005627D03*
D143*
X002974Y006343D03*
X002897Y006343D03*
X002796Y006343D03*
X002770Y006343D03*
X002996Y006567D03*
X003484Y008047D03*
X003490Y008527D03*
X002873Y008167D03*
D144*
X002841Y008157D03*
X002906Y008157D03*
X002990Y007613D03*
X003490Y008186D03*
X002770Y006546D03*
X003356Y005623D03*
D145*
X002961Y006340D03*
X002910Y006340D03*
X003479Y007903D03*
X003490Y008050D03*
X003370Y008183D03*
X002884Y008164D03*
X002863Y008164D03*
D146*
X002993Y008250D03*
X003490Y007900D03*
X003490Y006952D03*
X003364Y006554D03*
D147*
X003481Y006301D03*
X003490Y007301D03*
X002964Y007472D03*
X003001Y007624D03*
D148*
X002759Y007939D03*
X002860Y008163D03*
X002887Y008163D03*
X002759Y008241D03*
X003484Y008185D03*
X003481Y007902D03*
X003484Y007451D03*
X003490Y006761D03*
X003476Y006308D03*
X003356Y006281D03*
X003484Y006067D03*
X003364Y005628D03*
X002959Y006339D03*
X002956Y006339D03*
X002913Y006339D03*
X002900Y006512D03*
X002756Y006784D03*
D149*
X002774Y006342D03*
X002790Y006342D03*
X002793Y006342D03*
X002900Y006342D03*
X002970Y006342D03*
X003479Y006304D03*
X003490Y006289D03*
X003490Y006548D03*
X003484Y006758D03*
X002876Y008166D03*
X002870Y008166D03*
X002999Y008248D03*
D150*
X002836Y008338D03*
X002764Y008242D03*
X002770Y007802D03*
X002844Y007708D03*
X002847Y007708D03*
X002850Y007708D03*
X002913Y007708D03*
X002916Y007708D03*
X003436Y007919D03*
X003436Y006972D03*
X002990Y006565D03*
X002759Y006778D03*
X003441Y006301D03*
X003490Y006068D03*
D151*
X003479Y005922D03*
X003484Y005920D03*
X003370Y005783D03*
X003367Y005784D03*
X003490Y005628D03*
X002910Y006506D03*
X003367Y006757D03*
X003426Y006959D03*
X003481Y007304D03*
X002974Y007469D03*
X003426Y007906D03*
X003367Y008045D03*
X003370Y008399D03*
D152*
X003489Y008528D03*
X003362Y008048D03*
X002975Y006344D03*
X002895Y006344D03*
X002798Y006344D03*
X003482Y006299D03*
X003486Y006296D03*
D153*
X003369Y006954D03*
X003369Y007069D03*
X003489Y007580D03*
X003489Y008186D03*
X003425Y008527D03*
D154*
X003372Y008184D03*
X003489Y008049D03*
X003482Y007451D03*
X002865Y008164D03*
X002994Y006566D03*
X002902Y006510D03*
X002766Y006545D03*
X002778Y006340D03*
X002782Y006340D03*
X002905Y006340D03*
X002966Y006340D03*
X003358Y006283D03*
X003478Y006305D03*
X003372Y006065D03*
D155*
X003489Y007301D03*
X003486Y008528D03*
D156*
X003428Y008528D03*
X002982Y008556D03*
X002978Y008556D03*
X002975Y008556D03*
X002972Y008556D03*
X002969Y008556D03*
X002966Y008556D03*
X002962Y008556D03*
X002958Y008556D03*
X002954Y008556D03*
X002951Y008556D03*
X002948Y008556D03*
X002945Y008556D03*
X002942Y008556D03*
X002938Y008556D03*
X002935Y008556D03*
X002932Y008556D03*
X002929Y008556D03*
X002926Y008556D03*
X002922Y008556D03*
X002918Y008556D03*
X002914Y008556D03*
X002911Y008556D03*
X002908Y008556D03*
X002905Y008556D03*
X002902Y008556D03*
X002898Y008556D03*
X002895Y008556D03*
X002892Y008556D03*
X002889Y008556D03*
X002886Y008556D03*
X002882Y008556D03*
X002878Y008556D03*
X002874Y008556D03*
X002871Y008556D03*
X002868Y008556D03*
X002865Y008556D03*
X002862Y008556D03*
X002858Y008556D03*
X002855Y008556D03*
X002852Y008556D03*
X002849Y008556D03*
X002846Y008556D03*
X002842Y008556D03*
X002838Y008556D03*
X002834Y008556D03*
X002831Y008556D03*
X002828Y008556D03*
X002825Y008556D03*
X002822Y008556D03*
X002818Y008556D03*
X002815Y008556D03*
X002812Y008556D03*
X002809Y008556D03*
X002806Y008556D03*
X002802Y008556D03*
X002798Y008556D03*
X002794Y008556D03*
X002791Y008556D03*
X002788Y008556D03*
X002785Y008556D03*
X002782Y008556D03*
X002778Y008556D03*
X002775Y008556D03*
X002772Y008556D03*
X002769Y008556D03*
X002766Y008556D03*
X002762Y008556D03*
X002758Y008556D03*
X002754Y008556D03*
X002751Y008556D03*
X002748Y008556D03*
X002745Y008556D03*
X002742Y008556D03*
X002738Y008556D03*
X002735Y008556D03*
X002732Y008556D03*
X002729Y008556D03*
X002726Y008556D03*
X002722Y008556D03*
X002718Y008556D03*
X002714Y008556D03*
X002711Y008556D03*
X002708Y008556D03*
X002705Y008556D03*
X002702Y008556D03*
X002698Y008556D03*
X002695Y008556D03*
X002692Y008556D03*
X002689Y008556D03*
X002686Y008556D03*
X002682Y008556D03*
X002766Y007799D03*
X002769Y007608D03*
X002855Y007479D03*
X002858Y007479D03*
X002862Y007479D03*
X002865Y007479D03*
X002868Y007479D03*
X002871Y007479D03*
X002905Y007479D03*
X002908Y007479D03*
X002911Y007479D03*
X002914Y007479D03*
X002918Y007479D03*
X002994Y007618D03*
X002951Y007325D03*
X003372Y006954D03*
X003489Y006952D03*
X003486Y007578D03*
X003372Y007901D03*
D157*
X002948Y007476D03*
X002945Y007476D03*
X002828Y007476D03*
X002825Y007476D03*
X002809Y007469D03*
X002762Y007796D03*
X003489Y006760D03*
X003482Y006068D03*
X003366Y005629D03*
D158*
X003489Y006292D03*
X003489Y006549D03*
X003482Y006757D03*
X003362Y006759D03*
X003431Y006962D03*
X002962Y007472D03*
X002758Y007418D03*
X003002Y007792D03*
X003431Y007909D03*
D159*
X003369Y007901D03*
X002991Y007615D03*
X002902Y007708D03*
X002898Y007708D03*
X002895Y007708D03*
X002892Y007708D03*
X002889Y007708D03*
X002886Y007708D03*
X002882Y007708D03*
X002878Y007708D03*
X002874Y007708D03*
X002871Y007708D03*
X002868Y007708D03*
X002865Y007708D03*
X002862Y007708D03*
X002858Y007708D03*
X002846Y008159D03*
X002762Y008242D03*
X003372Y007071D03*
X003489Y006068D03*
D160*
X003489Y005919D03*
X003362Y006285D03*
X003486Y006551D03*
X002978Y006344D03*
X002769Y006344D03*
X002754Y006789D03*
X002969Y007471D03*
X003486Y007303D03*
D161*
X003425Y006958D03*
X003422Y006958D03*
X003418Y006958D03*
X003415Y006958D03*
X003372Y006755D03*
X002762Y006545D03*
X002975Y007468D03*
X002758Y007788D03*
X003415Y007905D03*
X003418Y007905D03*
X003422Y007905D03*
X003425Y007905D03*
X003489Y005628D03*
D162*
X003487Y006294D03*
X003484Y006297D03*
X003481Y006553D03*
X003481Y006756D03*
X002977Y006344D03*
X002799Y006344D03*
X003481Y008046D03*
X003487Y008528D03*
X003479Y008532D03*
D163*
X003487Y008186D03*
X002996Y008250D03*
X002894Y008160D03*
X003426Y006549D03*
X003361Y005626D03*
D164*
X003364Y005785D03*
X003481Y005921D03*
X002980Y006345D03*
X002890Y006345D03*
X002767Y006345D03*
X003479Y007305D03*
X003487Y007302D03*
X003367Y007776D03*
X003364Y008048D03*
X003364Y008401D03*
X003484Y008529D03*
D165*
X003430Y007908D03*
X003364Y007776D03*
X002756Y007944D03*
X003430Y006960D03*
X003364Y006759D03*
X003487Y006549D03*
X002906Y006508D03*
X002894Y006344D03*
X002801Y006344D03*
X003487Y005919D03*
D166*
X003487Y006068D03*
X003367Y006554D03*
X003484Y007072D03*
X003484Y007578D03*
X002999Y007794D03*
X002919Y007479D03*
X002916Y007479D03*
X002913Y007479D03*
X002910Y007479D03*
X002906Y007479D03*
X002903Y007479D03*
X002873Y007479D03*
X002870Y007479D03*
X002866Y007479D03*
X002863Y007479D03*
X002860Y007479D03*
X002857Y007479D03*
X002761Y008242D03*
X002761Y008556D03*
X002759Y008556D03*
X002756Y008556D03*
X002753Y008556D03*
X002750Y008556D03*
X002746Y008556D03*
X002743Y008556D03*
X002740Y008556D03*
X002737Y008556D03*
X002734Y008556D03*
X002730Y008556D03*
X002727Y008556D03*
X002724Y008556D03*
X002721Y008556D03*
X002719Y008556D03*
X002716Y008556D03*
X002713Y008556D03*
X002710Y008556D03*
X002706Y008556D03*
X002703Y008556D03*
X002700Y008556D03*
X002697Y008556D03*
X002694Y008556D03*
X002690Y008556D03*
X002687Y008556D03*
X002684Y008556D03*
X002681Y008556D03*
X002679Y008556D03*
X002764Y008556D03*
X002767Y008556D03*
X002770Y008556D03*
X002774Y008556D03*
X002777Y008556D03*
X002780Y008556D03*
X002783Y008556D03*
X002786Y008556D03*
X002790Y008556D03*
X002793Y008556D03*
X002796Y008556D03*
X002799Y008556D03*
X002801Y008556D03*
X002804Y008556D03*
X002807Y008556D03*
X002810Y008556D03*
X002814Y008556D03*
X002817Y008556D03*
X002820Y008556D03*
X002823Y008556D03*
X002826Y008556D03*
X002830Y008556D03*
X002833Y008556D03*
X002836Y008556D03*
X002839Y008556D03*
X002841Y008556D03*
X002844Y008556D03*
X002847Y008556D03*
X002850Y008556D03*
X002854Y008556D03*
X002857Y008556D03*
X002860Y008556D03*
X002863Y008556D03*
X002866Y008556D03*
X002870Y008556D03*
X002873Y008556D03*
X002876Y008556D03*
X002879Y008556D03*
X002881Y008556D03*
X002884Y008556D03*
X002887Y008556D03*
X002890Y008556D03*
X002894Y008556D03*
X002897Y008556D03*
X002900Y008556D03*
X002903Y008556D03*
X002906Y008556D03*
X002910Y008556D03*
X002913Y008556D03*
X002916Y008556D03*
X002919Y008556D03*
X002921Y008556D03*
X002924Y008556D03*
X002927Y008556D03*
X002930Y008556D03*
X002934Y008556D03*
X002937Y008556D03*
X002940Y008556D03*
X002943Y008556D03*
X002946Y008556D03*
X002950Y008556D03*
X002953Y008556D03*
X002956Y008556D03*
X002959Y008556D03*
X002961Y008556D03*
X002964Y008556D03*
X002967Y008556D03*
X002970Y008556D03*
X002974Y008556D03*
X002977Y008556D03*
X002980Y008556D03*
D167*
X002761Y008108D03*
X003374Y008042D03*
X003374Y006754D03*
X002764Y006348D03*
X003481Y005634D03*
X003487Y005629D03*
D168*
X002945Y006337D03*
X002942Y006337D03*
X002938Y006337D03*
X002935Y006337D03*
X002932Y006337D03*
X002929Y006337D03*
X002926Y006337D03*
X003372Y006553D03*
X003375Y006553D03*
X003428Y006550D03*
X003486Y006953D03*
X003434Y006968D03*
X003482Y007073D03*
X003486Y007451D03*
X003486Y007900D03*
X003486Y008185D03*
X003375Y008531D03*
X003369Y008532D03*
X002892Y008161D03*
X002855Y008161D03*
X002806Y007465D03*
D169*
X002978Y007468D03*
X002911Y006504D03*
X002886Y006348D03*
X002985Y006348D03*
X003369Y006288D03*
X003486Y005629D03*
D170*
X002953Y006338D03*
X002950Y006338D03*
X002921Y006338D03*
X002919Y006338D03*
X002916Y006338D03*
X002759Y007418D03*
X002807Y007468D03*
X002857Y008162D03*
X002890Y008162D03*
X003484Y007901D03*
D171*
X003367Y008400D03*
X002970Y007470D03*
X003484Y007304D03*
X003484Y006550D03*
X003364Y006286D03*
D172*
X003484Y006425D03*
X003473Y006102D03*
X003473Y005958D03*
X003380Y005745D03*
X003380Y005668D03*
X002850Y006536D03*
X003380Y007099D03*
X003383Y007102D03*
X003473Y007272D03*
X003380Y007414D03*
X003473Y007484D03*
X003476Y007548D03*
X003399Y007598D03*
X003377Y007598D03*
X003470Y007936D03*
X003476Y008078D03*
X003380Y008361D03*
X002999Y008136D03*
X002980Y008136D03*
X002777Y008139D03*
X003470Y006988D03*
X003476Y006788D03*
D173*
X002913Y006504D03*
X003484Y005630D03*
X002980Y007467D03*
X003001Y008246D03*
D174*
X003366Y008401D03*
X003482Y008529D03*
X003366Y007776D03*
X003366Y006758D03*
X002892Y006345D03*
X002802Y006345D03*
X003366Y005785D03*
X003482Y005921D03*
D175*
X002962Y006340D03*
X002908Y006340D03*
X002882Y008164D03*
X002862Y008164D03*
X003482Y008186D03*
D176*
X003482Y008047D03*
X003362Y007776D03*
X002766Y007607D03*
X002794Y006343D03*
X002898Y006343D03*
D177*
X002889Y006346D03*
X002982Y006346D03*
X002998Y006567D03*
X002766Y006346D03*
X003366Y006287D03*
X003482Y006551D03*
X003369Y006756D03*
X003428Y006959D03*
X003369Y007775D03*
X003428Y007906D03*
X003369Y008045D03*
X003375Y008397D03*
X003372Y008399D03*
X002998Y007935D03*
X002665Y008546D03*
X003372Y005783D03*
X003375Y005781D03*
D178*
X003482Y005631D03*
X002988Y006349D03*
X002882Y006349D03*
X002982Y007466D03*
D179*
X002996Y007935D03*
X003481Y008532D03*
D180*
X003374Y008210D03*
X003353Y008183D03*
X002967Y008140D03*
X002767Y008130D03*
X002814Y007916D03*
X002820Y007820D03*
X002823Y007820D03*
X002924Y007916D03*
X002927Y007916D03*
X002943Y007820D03*
X002946Y007820D03*
X002974Y007805D03*
X002934Y007596D03*
X002930Y007596D03*
X002823Y007596D03*
X002820Y007596D03*
X002786Y007432D03*
X002783Y007431D03*
X002993Y006948D03*
X002956Y006869D03*
X003004Y006840D03*
X002804Y006866D03*
X002801Y006655D03*
X002863Y006532D03*
X003377Y006784D03*
X003473Y006424D03*
X003374Y006092D03*
X003353Y006064D03*
X003476Y005892D03*
X003374Y005605D03*
X003374Y007421D03*
X003481Y007424D03*
X003441Y007554D03*
X003439Y007556D03*
D181*
X003407Y007592D03*
X003374Y007475D03*
X003353Y007448D03*
X003476Y007275D03*
X003476Y007099D03*
X003476Y006982D03*
X003479Y006785D03*
X002900Y006862D03*
X002796Y006545D03*
X003476Y005668D03*
X002927Y007595D03*
X002924Y007595D03*
X002830Y007595D03*
X002826Y007595D03*
X002961Y007708D03*
X002921Y007915D03*
X002919Y007915D03*
X002916Y007915D03*
X002820Y007915D03*
X002817Y007915D03*
X002786Y008142D03*
X003377Y008008D03*
X003479Y008075D03*
D182*
X003370Y008044D03*
X003417Y007905D03*
X003420Y007905D03*
X003423Y007905D03*
X002977Y007468D03*
X003417Y006958D03*
X003420Y006958D03*
X003423Y006958D03*
X003370Y006755D03*
X003367Y006288D03*
X003374Y005782D03*
X003479Y005635D03*
X003374Y008398D03*
D183*
X003225Y008516D03*
X003438Y007911D03*
X003478Y007898D03*
X003478Y007308D03*
X003478Y006951D03*
X003378Y006248D03*
X003378Y006245D03*
X003378Y006242D03*
D184*
X003375Y006096D03*
X003378Y006718D03*
X003478Y006724D03*
X003375Y007419D03*
X003375Y007478D03*
X003478Y007481D03*
X002926Y007822D03*
X002922Y007822D03*
X002846Y007822D03*
X002842Y007822D03*
X002838Y007822D03*
X002772Y008136D03*
X002802Y007441D03*
X002798Y007438D03*
X002791Y007435D03*
X002855Y006534D03*
D185*
X003478Y007335D03*
X002954Y007818D03*
X002815Y007818D03*
X002812Y007818D03*
X003375Y008012D03*
D186*
X003354Y008183D03*
X002954Y008143D03*
X002958Y008036D03*
X002945Y007919D03*
X002798Y007919D03*
X002806Y007708D03*
X002802Y007599D03*
X002951Y007599D03*
X002775Y007426D03*
X002812Y007346D03*
X002911Y006866D03*
X002911Y006764D03*
X002908Y006764D03*
X002905Y006764D03*
X002902Y006764D03*
X002898Y006764D03*
X002895Y006764D03*
X002892Y006764D03*
X002889Y006764D03*
X002886Y006764D03*
X002882Y006764D03*
X002878Y006764D03*
X002874Y006764D03*
X002871Y006764D03*
X002868Y006764D03*
X002865Y006764D03*
X002862Y006764D03*
X002858Y006764D03*
X002855Y006764D03*
X002852Y006764D03*
X002849Y006764D03*
X002846Y006764D03*
X002842Y006764D03*
X002838Y006764D03*
X002834Y006764D03*
X002831Y006764D03*
X002828Y006764D03*
X002825Y006764D03*
X002822Y006764D03*
X002818Y006764D03*
X002815Y006764D03*
X002812Y006764D03*
X002809Y006764D03*
X002914Y006764D03*
X002918Y006764D03*
X002922Y006764D03*
X002926Y006764D03*
X002929Y006764D03*
X002932Y006764D03*
X002935Y006764D03*
X002938Y006764D03*
X002942Y006764D03*
X002945Y006764D03*
X002948Y006764D03*
X002958Y006764D03*
X002962Y006764D03*
X002994Y006754D03*
X002788Y006546D03*
X003375Y006783D03*
X003354Y007064D03*
X003478Y007279D03*
X003425Y007572D03*
X003462Y006424D03*
X003375Y006263D03*
X003478Y005895D03*
D187*
X003478Y005952D03*
X002865Y006531D03*
X002969Y006761D03*
X003375Y007092D03*
X002809Y007345D03*
X002818Y007819D03*
X002948Y007819D03*
X002951Y007819D03*
X002975Y007804D03*
D188*
X002918Y008249D03*
X002831Y008243D03*
X003438Y007923D03*
X003478Y005924D03*
D189*
X003476Y007036D03*
D190*
X003474Y007034D03*
X002994Y006837D03*
X002966Y006874D03*
X003002Y008061D03*
D191*
X002969Y008139D03*
X002922Y007915D03*
X002918Y007915D03*
X002822Y007915D03*
X002818Y007915D03*
X002825Y007595D03*
X002828Y007595D03*
X002926Y007595D03*
X002929Y007595D03*
X002785Y007432D03*
X002991Y006948D03*
X002962Y006665D03*
X002798Y006545D03*
X003474Y006425D03*
X003378Y008075D03*
X003378Y008428D03*
D192*
X002770Y008075D03*
X003473Y006915D03*
D193*
X002999Y006752D03*
X002930Y006653D03*
X002983Y006564D03*
X002956Y006474D03*
X002777Y006546D03*
X002814Y006653D03*
X003473Y006320D03*
X002977Y007607D03*
X002993Y007796D03*
X002974Y007927D03*
X002937Y008031D03*
X002934Y008031D03*
X002927Y008151D03*
X002820Y008151D03*
X002814Y008031D03*
X002823Y008340D03*
D194*
X002772Y008076D03*
X003438Y007916D03*
X003471Y007860D03*
X003471Y006912D03*
D195*
X003463Y006425D03*
X002953Y006868D03*
X002906Y006865D03*
X002790Y006545D03*
X002810Y007345D03*
X002807Y007598D03*
X002946Y007598D03*
X002940Y007918D03*
X002801Y007918D03*
X003001Y008142D03*
X003417Y007582D03*
D196*
X003356Y007761D03*
X002953Y007708D03*
X002959Y007601D03*
X002961Y007601D03*
X002790Y007604D03*
X002790Y007921D03*
X002956Y007921D03*
X002946Y008145D03*
X002940Y006868D03*
X002937Y006868D03*
X002934Y006868D03*
X002930Y006868D03*
X002927Y006868D03*
X002924Y006868D03*
X003454Y006425D03*
D197*
X003450Y006424D03*
X003454Y006312D03*
X002959Y006472D03*
X002970Y006557D03*
X002974Y006559D03*
X002950Y006658D03*
X002783Y006546D03*
X002959Y007328D03*
X002964Y007602D03*
X002786Y007605D03*
X002810Y007708D03*
X002986Y007800D03*
X002786Y007922D03*
X002953Y008036D03*
X002943Y008146D03*
X002804Y008146D03*
X002780Y008242D03*
D198*
X002785Y007810D03*
X003358Y008183D03*
X002772Y006770D03*
X002778Y006546D03*
X002982Y006564D03*
X003449Y006303D03*
D199*
X003412Y006336D03*
X003409Y006336D03*
X003402Y006453D03*
X003391Y006456D03*
X003412Y007493D03*
X003442Y007493D03*
X003394Y007733D03*
X003391Y007733D03*
X003388Y007936D03*
X002998Y008133D03*
X002988Y008133D03*
D200*
X002911Y008156D03*
X002766Y008242D03*
X002834Y007708D03*
X002838Y007708D03*
X002922Y007708D03*
X002926Y007708D03*
X003369Y007181D03*
X002886Y006648D03*
X002882Y006648D03*
X002878Y006648D03*
X002874Y006648D03*
X002871Y006648D03*
X002868Y006648D03*
X002865Y006648D03*
X002862Y006648D03*
X002858Y006648D03*
X002855Y006648D03*
X002852Y006648D03*
X002988Y006565D03*
X003369Y006178D03*
X003372Y006178D03*
X003442Y006301D03*
X003354Y005621D03*
D201*
X003407Y006336D03*
X003410Y006336D03*
X003414Y006336D03*
X003401Y006453D03*
X003393Y006456D03*
X002894Y006856D03*
X003439Y007493D03*
X003396Y007733D03*
X003393Y007733D03*
X003390Y007733D03*
X003386Y007936D03*
X002990Y008133D03*
D202*
X003438Y006964D03*
D203*
X003369Y006555D03*
X002929Y007478D03*
X002926Y007478D03*
X002922Y007478D03*
X002852Y007478D03*
X002849Y007478D03*
X002846Y007478D03*
X003434Y007915D03*
X002991Y008555D03*
X002988Y008555D03*
X002985Y008555D03*
X002671Y008555D03*
D204*
X002790Y008243D03*
X002961Y008249D03*
X002964Y008140D03*
X002934Y007916D03*
X002930Y007916D03*
X002810Y007916D03*
X002807Y007916D03*
X002814Y007596D03*
X002817Y007596D03*
X002937Y007596D03*
X002940Y007596D03*
X003353Y007569D03*
X003374Y007593D03*
X003377Y007803D03*
X003377Y008073D03*
X003377Y008427D03*
X003353Y008526D03*
X003433Y008553D03*
X002903Y006864D03*
X002961Y006664D03*
X003374Y006040D03*
D205*
X002953Y007475D03*
X002950Y007475D03*
X002820Y007475D03*
X003433Y007912D03*
D206*
X002998Y008250D03*
X002998Y008554D03*
X002994Y008554D03*
X003431Y008530D03*
X002935Y007477D03*
X002932Y007477D03*
X002842Y007477D03*
X002838Y007477D03*
X002898Y006512D03*
D207*
X002761Y006776D03*
X003361Y006552D03*
X002897Y008026D03*
X002894Y008026D03*
X002890Y008026D03*
X002887Y008026D03*
X002884Y008026D03*
X002881Y008026D03*
X002879Y008026D03*
X002876Y008026D03*
X002873Y008026D03*
X002870Y008026D03*
X002866Y008026D03*
X002863Y008026D03*
X002860Y008026D03*
X002857Y008026D03*
X002854Y008026D03*
X002850Y008026D03*
X002847Y008026D03*
X002844Y008026D03*
X003420Y008524D03*
D208*
X003418Y008522D03*
X002914Y008028D03*
X002911Y008028D03*
X002831Y008028D03*
X002828Y008028D03*
X002775Y007805D03*
X002831Y007708D03*
X002929Y007708D03*
X002932Y007708D03*
X003375Y007181D03*
X003375Y006178D03*
D209*
X003418Y007580D03*
X002966Y007813D03*
X002806Y007816D03*
X002966Y008250D03*
D210*
X002921Y008249D03*
X002830Y008243D03*
X003350Y007897D03*
X003350Y007571D03*
X003350Y007449D03*
X003350Y006950D03*
X003410Y006544D03*
X003350Y006300D03*
D211*
X002962Y006470D03*
X002988Y006756D03*
X002958Y006870D03*
X003358Y007163D03*
X003406Y007593D03*
X002972Y007806D03*
X002942Y007820D03*
X002938Y007820D03*
X002828Y007820D03*
X002825Y007820D03*
X002769Y008132D03*
X002794Y008243D03*
X002958Y008249D03*
X002788Y007433D03*
X003378Y005812D03*
D212*
X003385Y008567D03*
D213*
X002969Y007708D03*
X002762Y006682D03*
X003385Y006588D03*
D214*
X003383Y007735D03*
X002983Y008135D03*
D215*
X002938Y008249D03*
X002982Y008350D03*
X002985Y008350D03*
X002991Y008353D03*
X003382Y008563D03*
X002794Y007344D03*
X002972Y006953D03*
D216*
X002966Y006468D03*
X003382Y006585D03*
X003375Y007545D03*
X002988Y008352D03*
D217*
X002967Y008036D03*
X002767Y008074D03*
X002767Y007530D03*
X003377Y007543D03*
X003350Y008032D03*
D218*
X003359Y008436D03*
X002817Y008243D03*
X003377Y007040D03*
X002959Y006956D03*
D219*
X002914Y006867D03*
X002958Y006550D03*
X002954Y007600D03*
X002982Y007803D03*
X002948Y007920D03*
X002794Y007920D03*
X002806Y008030D03*
X002798Y008144D03*
X002785Y008243D03*
X002951Y008144D03*
X003375Y008070D03*
D220*
X003372Y008043D03*
X003375Y007772D03*
D221*
X003374Y007773D03*
X003370Y007773D03*
D222*
X003372Y007773D03*
D223*
X003372Y007448D03*
X002758Y007941D03*
X002762Y008104D03*
X002868Y008165D03*
X002878Y008165D03*
X002902Y006341D03*
X002969Y006341D03*
X002788Y006341D03*
X002785Y006341D03*
X002775Y006341D03*
D224*
X002854Y006648D03*
X002857Y006648D03*
X002860Y006648D03*
X002863Y006648D03*
X002866Y006648D03*
X002870Y006648D03*
X002873Y006648D03*
X002876Y006648D03*
X002879Y006648D03*
X002881Y006648D03*
X002884Y006648D03*
X003367Y006178D03*
X003370Y006178D03*
X003370Y007181D03*
X003367Y007181D03*
X002986Y007612D03*
X002924Y007708D03*
X002841Y007708D03*
X002839Y007708D03*
X002836Y007708D03*
X002767Y007932D03*
X002836Y008156D03*
X003361Y008532D03*
D225*
X002676Y008556D03*
X002673Y008556D03*
X003370Y006953D03*
D226*
X002983Y006347D03*
X002887Y006347D03*
X003370Y006289D03*
D227*
X003362Y006554D03*
X003366Y007068D03*
X003366Y007572D03*
X002998Y007794D03*
X002914Y007708D03*
X002911Y007708D03*
X002849Y007708D03*
X002846Y007708D03*
X002842Y007708D03*
X002985Y007932D03*
X003362Y008532D03*
X002892Y006516D03*
D228*
X003362Y005785D03*
X002966Y007472D03*
X003362Y008401D03*
D229*
X002828Y008153D03*
X003362Y006953D03*
D230*
X002910Y006650D03*
X002906Y006650D03*
X002903Y006650D03*
X002836Y006650D03*
X002833Y006650D03*
X002774Y006546D03*
X002983Y007610D03*
X002980Y007930D03*
X002916Y008154D03*
X002830Y008154D03*
X002830Y008340D03*
X003361Y008183D03*
X003359Y008530D03*
X003361Y007570D03*
D231*
X003359Y007569D03*
X003359Y007448D03*
X003361Y007763D03*
X003361Y007900D03*
X002980Y008249D03*
X002930Y008030D03*
X002817Y008030D03*
X002774Y007928D03*
X002780Y007808D03*
X002823Y007707D03*
X003359Y007065D03*
X003361Y006953D03*
X002927Y006652D03*
X002924Y006652D03*
X002817Y006652D03*
X002767Y006772D03*
D232*
X002854Y007350D03*
X002857Y007350D03*
X003359Y008033D03*
X002930Y008150D03*
X002817Y008150D03*
D233*
X002977Y008250D03*
X003359Y007900D03*
D234*
X002961Y007473D03*
X002959Y007473D03*
X002761Y007793D03*
X002999Y008550D03*
X003359Y006283D03*
D235*
X003358Y008436D03*
D236*
X002942Y008032D03*
X002932Y008149D03*
X002815Y008149D03*
X002775Y008242D03*
X002818Y008341D03*
X002778Y007925D03*
X002969Y007925D03*
X002991Y007797D03*
X002945Y007708D03*
X002972Y007605D03*
X002958Y007328D03*
X003358Y007064D03*
X002938Y006655D03*
X003358Y006064D03*
D237*
X003358Y006795D03*
X002998Y006838D03*
D238*
X002778Y006768D03*
X003358Y006744D03*
D239*
X002876Y006525D03*
X002777Y006768D03*
X002780Y007608D03*
X002790Y007812D03*
X003356Y008528D03*
D240*
X002764Y006684D03*
X003356Y006200D03*
D241*
X003350Y006744D03*
D242*
X003281Y006639D03*
D243*
X003225Y007446D03*
D244*
X003223Y007447D03*
D245*
X003222Y007447D03*
D246*
X003220Y007447D03*
D247*
X003218Y007446D03*
D248*
X003217Y007447D03*
D249*
X003215Y007446D03*
D250*
X003214Y007447D03*
D251*
X003212Y007446D03*
D252*
X003210Y007446D03*
D253*
X003209Y007447D03*
D254*
X003207Y007446D03*
D255*
X003206Y007446D03*
D256*
X003204Y007447D03*
D257*
X003202Y007447D03*
D258*
X003201Y007446D03*
D259*
X003199Y007446D03*
X002559Y007446D03*
D260*
X003198Y007446D03*
D261*
X003196Y007446D03*
D262*
X003194Y007446D03*
D263*
X003193Y007447D03*
D264*
X003191Y007447D03*
D265*
X003190Y007446D03*
D266*
X003188Y007446D03*
D267*
X003186Y007446D03*
D268*
X003185Y007447D03*
D269*
X003183Y007446D03*
D270*
X003182Y007446D03*
D271*
X003180Y007447D03*
D272*
X003178Y007446D03*
D273*
X003177Y007446D03*
D274*
X003175Y007447D03*
D275*
X003174Y007446D03*
D276*
X003172Y007446D03*
X002585Y007446D03*
D277*
X002590Y007446D03*
X003170Y007446D03*
D278*
X003169Y007446D03*
X002588Y007446D03*
D279*
X002593Y007446D03*
X003167Y007446D03*
D280*
X003166Y007446D03*
X002591Y007446D03*
D281*
X003164Y007447D03*
D282*
X003162Y007446D03*
D283*
X003161Y007446D03*
X002596Y007446D03*
D284*
X003159Y007447D03*
D285*
X003158Y007446D03*
X002602Y007446D03*
D286*
X002601Y007446D03*
X002599Y007446D03*
X003156Y007446D03*
D287*
X003154Y007447D03*
D288*
X003153Y007446D03*
X003150Y007446D03*
X002607Y007446D03*
D289*
X002606Y007446D03*
X002609Y007446D03*
X003151Y007446D03*
D290*
X003148Y007447D03*
X002612Y007447D03*
D291*
X002610Y007447D03*
X003146Y007447D03*
D292*
X003145Y007446D03*
X003142Y007446D03*
X002618Y007446D03*
X002615Y007446D03*
D293*
X002614Y007446D03*
X002617Y007446D03*
X003140Y007446D03*
X003143Y007446D03*
D294*
X003138Y007447D03*
X003135Y007447D03*
X003129Y007447D03*
X003126Y007447D03*
X002625Y007447D03*
X002622Y007447D03*
D295*
X002623Y007447D03*
X002620Y007447D03*
X003134Y007447D03*
X003137Y007447D03*
D296*
X003132Y007446D03*
X003122Y007446D03*
X003118Y007446D03*
X003114Y007446D03*
X003111Y007446D03*
X003108Y007446D03*
X003105Y007446D03*
X002638Y007446D03*
X002634Y007446D03*
X002631Y007446D03*
X002628Y007446D03*
D297*
X002626Y007446D03*
X002630Y007446D03*
X002633Y007446D03*
X002636Y007446D03*
X002639Y007446D03*
X002641Y007446D03*
X003103Y007446D03*
X003106Y007446D03*
X003110Y007446D03*
X003113Y007446D03*
X003116Y007446D03*
X003119Y007446D03*
X003121Y007446D03*
X003124Y007446D03*
X003127Y007446D03*
X003130Y007446D03*
D298*
X003102Y008354D03*
D299*
X003102Y007186D03*
D300*
X003100Y008357D03*
X003097Y008357D03*
X003094Y008357D03*
X003090Y008357D03*
X003087Y008357D03*
X003084Y008357D03*
D301*
X003100Y007183D03*
D302*
X003098Y008357D03*
X003095Y008357D03*
X003092Y008357D03*
X003089Y008357D03*
X003086Y008357D03*
X003082Y008357D03*
D303*
X003098Y007180D03*
D304*
X003097Y007180D03*
D305*
X003095Y007179D03*
X003092Y007179D03*
X003089Y007179D03*
X003086Y007179D03*
X003082Y007179D03*
X003078Y007179D03*
X003074Y007179D03*
X003071Y007179D03*
X003068Y007179D03*
X003065Y007179D03*
X003062Y007179D03*
X003058Y007179D03*
X003055Y007179D03*
X003052Y007179D03*
X003049Y007179D03*
X003046Y007179D03*
X003042Y007179D03*
X003038Y007179D03*
X003034Y007179D03*
X003031Y007179D03*
X003028Y007179D03*
X003025Y007179D03*
X003022Y007179D03*
X003018Y007179D03*
X003015Y007179D03*
X003012Y007179D03*
X003009Y007179D03*
D306*
X003010Y007179D03*
X003007Y007179D03*
X003014Y007179D03*
X003017Y007179D03*
X003020Y007179D03*
X003023Y007179D03*
X003026Y007179D03*
X003030Y007179D03*
X003033Y007179D03*
X003036Y007179D03*
X003039Y007179D03*
X003041Y007179D03*
X003044Y007179D03*
X003047Y007179D03*
X003050Y007179D03*
X003054Y007179D03*
X003057Y007179D03*
X003060Y007179D03*
X003063Y007179D03*
X003066Y007179D03*
X003070Y007179D03*
X003073Y007179D03*
X003076Y007179D03*
X003079Y007179D03*
X003081Y007179D03*
X003084Y007179D03*
X003087Y007179D03*
X003090Y007179D03*
X003094Y007179D03*
D307*
X003081Y008358D03*
X003079Y008358D03*
X003076Y008358D03*
X003073Y008358D03*
X003070Y008358D03*
X003066Y008358D03*
X003063Y008358D03*
X003060Y008358D03*
X003057Y008358D03*
X003054Y008358D03*
X003050Y008358D03*
X003047Y008358D03*
X003044Y008358D03*
X003041Y008358D03*
X003039Y008358D03*
X003036Y008358D03*
X003033Y008358D03*
X003030Y008358D03*
X003026Y008358D03*
X003023Y008358D03*
X003020Y008358D03*
X003017Y008358D03*
X003014Y008358D03*
X003010Y008358D03*
X003007Y008358D03*
X003004Y008358D03*
D308*
X003002Y008358D03*
X003006Y008358D03*
X003009Y008358D03*
X003012Y008358D03*
X003015Y008358D03*
X003018Y008358D03*
X003022Y008358D03*
X003025Y008358D03*
X003028Y008358D03*
X003031Y008358D03*
X003034Y008358D03*
X003038Y008358D03*
X003042Y008358D03*
X003046Y008358D03*
X003049Y008358D03*
X003052Y008358D03*
X003055Y008358D03*
X003058Y008358D03*
X003062Y008358D03*
X003065Y008358D03*
X003068Y008358D03*
X003071Y008358D03*
X003074Y008358D03*
X003078Y008358D03*
X002702Y008134D03*
D309*
X002942Y008387D03*
X003006Y007939D03*
X002855Y007192D03*
X002852Y007192D03*
X002849Y007192D03*
X002846Y007192D03*
X002855Y006366D03*
X002754Y006366D03*
D310*
X002758Y006356D03*
X002871Y006356D03*
X002991Y007461D03*
X003006Y007791D03*
X002772Y008397D03*
D311*
X003006Y007524D03*
D312*
X003006Y007106D03*
D313*
X002951Y007008D03*
X002948Y007008D03*
X002945Y007008D03*
X002942Y007008D03*
X002938Y007008D03*
X002935Y007008D03*
X002932Y007008D03*
X002929Y007008D03*
X002926Y007008D03*
X002922Y007008D03*
X003006Y006748D03*
X002918Y006502D03*
X002878Y006352D03*
X002991Y006352D03*
D314*
X002838Y006377D03*
X003006Y006568D03*
X002991Y007200D03*
X002905Y008376D03*
X002849Y008376D03*
D315*
X002922Y008381D03*
X002982Y007196D03*
X002868Y006988D03*
X002766Y006988D03*
X003006Y006372D03*
D316*
X002940Y006502D03*
X003004Y007937D03*
D317*
X003004Y007792D03*
X002986Y006348D03*
X002884Y006348D03*
D318*
X003004Y007526D03*
D319*
X003004Y007108D03*
D320*
X002881Y007193D03*
X002879Y007193D03*
X002820Y007193D03*
X002817Y007193D03*
X002814Y007193D03*
X003004Y006568D03*
X002854Y006368D03*
X002937Y008385D03*
D321*
X002999Y007460D03*
X002876Y007192D03*
X002873Y007192D03*
X002870Y007192D03*
X002866Y007192D03*
X002863Y007192D03*
X002860Y007192D03*
X002857Y007192D03*
X002844Y007192D03*
X002841Y007192D03*
X002839Y007192D03*
X002836Y007192D03*
X002833Y007192D03*
X002830Y007192D03*
X002826Y007192D03*
X002823Y007192D03*
X003004Y006367D03*
D322*
X003002Y007936D03*
D323*
X003002Y007527D03*
D324*
X003002Y007106D03*
D325*
X002886Y006999D03*
X002802Y006999D03*
X002778Y006999D03*
X003002Y006567D03*
X002954Y006508D03*
X002951Y006506D03*
X002948Y006504D03*
X002865Y006360D03*
X002791Y008392D03*
X002958Y008392D03*
D326*
X002948Y008389D03*
X002998Y007460D03*
X003002Y006364D03*
D327*
X002924Y006500D03*
X002759Y008110D03*
X003001Y008537D03*
D328*
X003001Y007936D03*
X002950Y007008D03*
X002946Y007008D03*
X002943Y007008D03*
X002940Y007008D03*
X002937Y007008D03*
X002934Y007008D03*
X002930Y007008D03*
X002927Y007008D03*
X002924Y007008D03*
D329*
X002940Y007476D03*
X002943Y007476D03*
X002833Y007476D03*
X002830Y007476D03*
X003001Y007793D03*
D330*
X003001Y007462D03*
X002844Y006374D03*
D331*
X003001Y007188D03*
D332*
X002903Y007004D03*
X003001Y006568D03*
X002873Y006355D03*
X002770Y008398D03*
X002767Y008398D03*
D333*
X002761Y008392D03*
X002793Y008392D03*
X002956Y008392D03*
X002884Y006998D03*
X002807Y006998D03*
X002777Y006998D03*
X002863Y006361D03*
X003001Y006361D03*
D334*
X002999Y007935D03*
D335*
X002999Y007201D03*
D336*
X002999Y006567D03*
X002916Y006503D03*
X002879Y006351D03*
X002761Y006351D03*
D337*
X002866Y006359D03*
X002999Y006359D03*
X002943Y006503D03*
X002937Y006501D03*
X002890Y007000D03*
X002790Y007000D03*
X002786Y007000D03*
X002783Y007000D03*
X002783Y008394D03*
D338*
X002865Y008371D03*
X002889Y008371D03*
X002766Y007208D03*
X002998Y007204D03*
X002825Y006382D03*
X002822Y006382D03*
X002812Y006382D03*
X002809Y006382D03*
D339*
X002975Y006560D03*
X002998Y006947D03*
X002825Y007347D03*
X002966Y007603D03*
X002812Y007707D03*
X002988Y007800D03*
X002785Y007923D03*
X002809Y008030D03*
X002942Y008147D03*
X002778Y008243D03*
D340*
X002815Y008342D03*
X002975Y008249D03*
X002945Y008033D03*
X002966Y007924D03*
X002788Y007811D03*
X002815Y007707D03*
X002775Y006769D03*
X002809Y006656D03*
X002942Y006656D03*
X002998Y006753D03*
X002878Y006524D03*
D341*
X002932Y006501D03*
X002935Y006501D03*
X002998Y006357D03*
X002895Y007002D03*
X002778Y008396D03*
D342*
X002996Y007460D03*
D343*
X002996Y007203D03*
X002767Y007206D03*
X002759Y006979D03*
X002804Y006380D03*
X002860Y008372D03*
X002894Y008372D03*
D344*
X002953Y008144D03*
X002956Y008036D03*
X002950Y007920D03*
X002946Y007920D03*
X002807Y007707D03*
X002801Y007600D03*
X002799Y007600D03*
X002953Y007600D03*
X002796Y008144D03*
X002996Y006947D03*
X002913Y006867D03*
X002801Y006440D03*
D345*
X002927Y006501D03*
X002996Y006356D03*
X002900Y007004D03*
X002774Y008397D03*
D346*
X002994Y007460D03*
D347*
X002994Y007202D03*
X002769Y007205D03*
D348*
X002908Y007005D03*
X002922Y006501D03*
X002874Y006354D03*
X002994Y006354D03*
D349*
X002870Y006357D03*
X002934Y006501D03*
X002894Y007002D03*
X002993Y007461D03*
D350*
X002993Y007200D03*
D351*
X002956Y007007D03*
X002953Y007007D03*
X002921Y007007D03*
X002919Y007007D03*
X002916Y007007D03*
X002919Y006501D03*
X002993Y006352D03*
X002759Y006352D03*
D352*
X002833Y007348D03*
X002836Y007348D03*
X002946Y007708D03*
X002990Y007798D03*
X002937Y008148D03*
X002814Y008148D03*
D353*
X002990Y007463D03*
X002906Y007005D03*
D354*
X002990Y007199D03*
D355*
X002990Y006350D03*
X002881Y006350D03*
D356*
X002914Y007007D03*
X002918Y007007D03*
X002954Y007007D03*
X002958Y007007D03*
X002988Y007463D03*
D357*
X002988Y007198D03*
X002782Y007200D03*
X002914Y008379D03*
D358*
X002986Y007464D03*
D359*
X002986Y007197D03*
X002866Y006986D03*
X002764Y006986D03*
X002916Y008380D03*
D360*
X002948Y008145D03*
X002802Y008145D03*
X002788Y007921D03*
X002954Y007921D03*
X002985Y007801D03*
X002788Y007604D03*
X002922Y006868D03*
X002926Y006868D03*
X002929Y006868D03*
X002932Y006868D03*
X002935Y006868D03*
X002938Y006868D03*
X002972Y006558D03*
D361*
X002985Y007464D03*
D362*
X002985Y007197D03*
X002918Y008380D03*
D363*
X002756Y007785D03*
X002983Y007465D03*
X002756Y007419D03*
X002761Y006545D03*
D364*
X002786Y007198D03*
X002983Y007196D03*
X002921Y008380D03*
X002919Y008380D03*
D365*
X002980Y007196D03*
X002847Y006372D03*
D366*
X002978Y007195D03*
D367*
X002858Y007352D03*
X002838Y007348D03*
X002834Y007348D03*
X002978Y006561D03*
X002935Y008148D03*
X002812Y008148D03*
D368*
X002977Y007195D03*
D369*
X002975Y007196D03*
X002972Y007196D03*
X002969Y007196D03*
X002798Y007196D03*
X002929Y008383D03*
D370*
X002927Y008383D03*
X002884Y007196D03*
X002799Y007196D03*
X002796Y007196D03*
X002970Y007196D03*
X002974Y007196D03*
X002870Y006989D03*
D371*
X002791Y006766D03*
X002788Y006766D03*
X002951Y006659D03*
X002969Y006556D03*
X002818Y007347D03*
X002791Y007603D03*
X002798Y007814D03*
X002954Y008036D03*
X002969Y008249D03*
X002782Y008243D03*
X002806Y008344D03*
D372*
X002924Y008382D03*
X002959Y007196D03*
X002961Y007196D03*
X002964Y007196D03*
X002967Y007196D03*
X002793Y007196D03*
D373*
X002794Y007196D03*
X002962Y007196D03*
X002966Y007196D03*
X002849Y006371D03*
X002926Y008382D03*
D374*
X002964Y007333D03*
D375*
X002826Y007347D03*
X002823Y007347D03*
X002959Y007923D03*
X002961Y007923D03*
X002940Y008147D03*
X002807Y008147D03*
D376*
X002790Y008392D03*
X002959Y008392D03*
X002804Y006999D03*
X002801Y006999D03*
X002799Y006999D03*
X002953Y006506D03*
X002950Y006504D03*
D377*
X002954Y007197D03*
X002958Y007197D03*
X002886Y007197D03*
X002791Y007197D03*
D378*
X002790Y007197D03*
X002953Y007197D03*
X002956Y007197D03*
D379*
X002882Y006997D03*
X002809Y006997D03*
X002862Y006362D03*
X002794Y008391D03*
X002954Y008391D03*
D380*
X002953Y008391D03*
X002796Y008391D03*
D381*
X002814Y007818D03*
X002953Y007818D03*
D382*
X002951Y008390D03*
X002798Y008390D03*
X002812Y006996D03*
X002775Y006996D03*
D383*
X002812Y007472D03*
X002818Y007475D03*
X002822Y007475D03*
X002951Y007475D03*
D384*
X002951Y007198D03*
X002788Y007198D03*
X002846Y006372D03*
D385*
X002814Y006996D03*
X002774Y006996D03*
X002879Y006996D03*
X002950Y008389D03*
X002801Y008389D03*
X002759Y008389D03*
D386*
X002950Y007244D03*
D387*
X002948Y007245D03*
D388*
X002946Y008388D03*
D389*
X002946Y007245D03*
D390*
X002887Y007000D03*
X002796Y007000D03*
X002793Y007000D03*
X002780Y007000D03*
X002946Y006504D03*
X002756Y006360D03*
X002786Y008393D03*
D391*
X002945Y008388D03*
X002878Y006995D03*
D392*
X002945Y007246D03*
D393*
X002889Y007000D03*
X002798Y007000D03*
X002794Y007000D03*
X002782Y007000D03*
X002945Y006504D03*
X002788Y008393D03*
D394*
X002943Y008388D03*
X002764Y007588D03*
X002876Y006994D03*
X002756Y006544D03*
X002857Y006365D03*
D395*
X002943Y007247D03*
D396*
X002942Y008250D03*
D397*
X002942Y007247D03*
D398*
X002791Y007000D03*
X002788Y007000D03*
X002785Y007000D03*
X002758Y006544D03*
X002938Y006501D03*
X002942Y006503D03*
X002785Y008394D03*
X002762Y008394D03*
D399*
X002940Y008387D03*
X002854Y007192D03*
X002850Y007192D03*
X002847Y007192D03*
D400*
X002820Y007708D03*
X002940Y007708D03*
X002881Y006522D03*
D401*
X002940Y007248D03*
D402*
X002874Y007192D03*
X002871Y007192D03*
X002868Y007192D03*
X002865Y007192D03*
X002862Y007192D03*
X002858Y007192D03*
X002842Y007192D03*
X002838Y007192D03*
X002834Y007192D03*
X002831Y007192D03*
X002828Y007192D03*
X002825Y007192D03*
X002822Y007192D03*
X002874Y006992D03*
X002938Y008386D03*
D403*
X002938Y007248D03*
D404*
X002937Y007248D03*
X002934Y007248D03*
D405*
X002878Y007193D03*
X002818Y007193D03*
X002815Y007193D03*
X002812Y007193D03*
X002758Y008385D03*
X002935Y008385D03*
D406*
X002935Y007248D03*
D407*
X002810Y007194D03*
X002807Y007194D03*
X002934Y008384D03*
D408*
X002932Y008384D03*
X002882Y007194D03*
X002809Y007194D03*
X002806Y007194D03*
X002852Y006368D03*
D409*
X002929Y007249D03*
X002932Y007249D03*
D410*
X002804Y007195D03*
X002801Y007195D03*
X002767Y006990D03*
X002850Y006369D03*
X002930Y008384D03*
D411*
X002930Y007249D03*
X002927Y007249D03*
D412*
X002897Y007003D03*
X002930Y006500D03*
X002777Y008396D03*
X002764Y008396D03*
D413*
X002929Y008249D03*
X002769Y008075D03*
X002769Y007531D03*
X002889Y006846D03*
D414*
X002898Y007003D03*
X002929Y006500D03*
X002775Y008396D03*
D415*
X002825Y008340D03*
X002818Y008029D03*
X002926Y008029D03*
X002778Y007807D03*
X002766Y006773D03*
X002775Y006546D03*
D416*
X002922Y007250D03*
X002926Y007250D03*
D417*
X002754Y007780D03*
X002926Y006500D03*
D418*
X002924Y008152D03*
X002823Y008152D03*
D419*
X002919Y007250D03*
X002921Y007250D03*
X002924Y007250D03*
D420*
X002921Y008153D03*
X002919Y008153D03*
D421*
X002759Y006545D03*
X002921Y006502D03*
D422*
X002911Y006650D03*
X002908Y006650D03*
X002905Y006650D03*
X002834Y006650D03*
X002831Y006650D03*
X002769Y007930D03*
X002831Y008154D03*
X002918Y008154D03*
D423*
X002918Y007251D03*
X002914Y007251D03*
X002911Y007251D03*
X002908Y007251D03*
X002905Y007251D03*
D424*
X002906Y007251D03*
X002910Y007251D03*
X002913Y007251D03*
X002916Y007251D03*
D425*
X002914Y008155D03*
X002834Y008155D03*
D426*
X002914Y006504D03*
D427*
X002913Y008378D03*
D428*
X002913Y007006D03*
X002910Y007006D03*
X002876Y006353D03*
D429*
X002842Y006375D03*
X002865Y006984D03*
X002911Y008378D03*
D430*
X002911Y007006D03*
D431*
X002777Y007201D03*
X002841Y006376D03*
X002910Y008377D03*
D432*
X002908Y008377D03*
X002889Y007201D03*
X002778Y007201D03*
X002762Y006984D03*
X002754Y006544D03*
D433*
X002839Y006376D03*
X002863Y006983D03*
X002844Y008376D03*
X002906Y008376D03*
D434*
X002769Y008398D03*
X002766Y008398D03*
X002902Y007004D03*
X002905Y007004D03*
D435*
X002890Y007203D03*
X002774Y007203D03*
X002759Y007587D03*
X002847Y008376D03*
X002903Y008376D03*
D436*
X002903Y007252D03*
X002900Y007252D03*
D437*
X002902Y008375D03*
D438*
X002902Y007252D03*
X002898Y007252D03*
D439*
X002761Y006981D03*
X002836Y006378D03*
X002850Y008375D03*
X002900Y008375D03*
D440*
X002898Y008374D03*
X002852Y008374D03*
X002862Y006980D03*
X002834Y006379D03*
D441*
X002833Y006380D03*
X002857Y008373D03*
X002897Y008373D03*
D442*
X002897Y007225D03*
D443*
X002895Y008373D03*
X002855Y008373D03*
D444*
X002895Y007214D03*
D445*
X002894Y007209D03*
X002870Y008369D03*
D446*
X002894Y006515D03*
D447*
X002831Y006380D03*
X002892Y007206D03*
X002892Y008372D03*
X002858Y008372D03*
D448*
X002782Y008395D03*
X002892Y007001D03*
X002868Y006358D03*
D449*
X002830Y006381D03*
X002860Y006978D03*
X002890Y008372D03*
D450*
X002887Y008371D03*
X002863Y008371D03*
X002826Y006382D03*
X002823Y006382D03*
X002810Y006382D03*
X002807Y006382D03*
D451*
X002783Y007199D03*
X002887Y007199D03*
X002761Y007588D03*
D452*
X002868Y008370D03*
X002886Y008370D03*
X002818Y006383D03*
X002815Y006383D03*
D453*
X002814Y006383D03*
X002817Y006383D03*
X002820Y006383D03*
X002866Y008370D03*
X002884Y008370D03*
D454*
X002882Y008369D03*
X002858Y006976D03*
X002758Y006976D03*
D455*
X002873Y008368D03*
X002879Y008368D03*
X002881Y008368D03*
D456*
X002799Y008390D03*
X002810Y006996D03*
X002881Y006996D03*
X002860Y006363D03*
D457*
X002874Y008368D03*
X002878Y008368D03*
D458*
X002876Y008368D03*
D459*
X002873Y006992D03*
D460*
X002871Y008368D03*
D461*
X002762Y007587D03*
X002802Y007195D03*
X002871Y006990D03*
D462*
X002828Y006381D03*
X002806Y006381D03*
X002862Y008372D03*
D463*
X002858Y006364D03*
D464*
X002857Y006972D03*
D465*
X002855Y007350D03*
X002852Y007350D03*
X002818Y008150D03*
D466*
X002855Y006968D03*
D467*
X002770Y007204D03*
X002854Y008374D03*
D468*
X002854Y006953D03*
X002850Y006953D03*
X002847Y006953D03*
X002844Y006953D03*
X002841Y006953D03*
X002839Y006953D03*
X002836Y006953D03*
X002833Y006953D03*
X002830Y006953D03*
X002826Y006953D03*
X002823Y006953D03*
X002820Y006953D03*
D469*
X002822Y006953D03*
X002825Y006953D03*
X002828Y006953D03*
X002831Y006953D03*
X002834Y006953D03*
X002838Y006953D03*
X002842Y006953D03*
X002846Y006953D03*
X002849Y006953D03*
X002852Y006953D03*
D470*
X002846Y008376D03*
D471*
X002818Y006954D03*
X002815Y006954D03*
D472*
X002817Y006954D03*
D473*
X002783Y006767D03*
X002810Y008343D03*
D474*
X002809Y008343D03*
X002794Y007813D03*
X002785Y006767D03*
D475*
X002806Y006998D03*
D476*
X002802Y007492D03*
D477*
X002796Y008028D03*
D478*
X002785Y007199D03*
D479*
X002780Y008395D03*
D480*
X002780Y007200D03*
D481*
X002775Y007202D03*
D482*
X002772Y007532D03*
X002766Y006685D03*
D483*
X002772Y007204D03*
D484*
X002772Y006994D03*
D485*
X002770Y006993D03*
D486*
X002769Y006992D03*
D487*
X002764Y007208D03*
D488*
X002762Y007210D03*
D489*
X002754Y007948D03*
X002762Y006348D03*
D490*
X002761Y007212D03*
D491*
X002759Y007213D03*
D492*
X002758Y008166D03*
D493*
X002758Y007588D03*
D494*
X002758Y007216D03*
D495*
X002756Y008249D03*
D496*
X002756Y007587D03*
D497*
X002756Y007219D03*
D498*
X002756Y006972D03*
D499*
X002754Y008245D03*
D500*
X002754Y007523D03*
D501*
X002754Y007224D03*
D502*
X002754Y006966D03*
D503*
X002753Y008176D03*
X002750Y008176D03*
X002746Y008176D03*
X002743Y008176D03*
X002740Y008176D03*
X002737Y008176D03*
X002734Y008176D03*
X002730Y008176D03*
X002727Y008176D03*
X002724Y008176D03*
X002721Y008176D03*
X002719Y008176D03*
X002716Y008176D03*
X002713Y008176D03*
X002710Y008176D03*
X002706Y008176D03*
D504*
X002706Y007480D03*
X002703Y007480D03*
X002700Y007480D03*
X002697Y007480D03*
X002694Y007480D03*
X002690Y007480D03*
X002687Y007480D03*
X002673Y007480D03*
X002710Y007480D03*
X002713Y007480D03*
X002716Y007480D03*
X002719Y007480D03*
X002721Y007480D03*
X002724Y007480D03*
X002727Y007480D03*
X002730Y007480D03*
X002734Y007480D03*
X002737Y007480D03*
X002740Y007480D03*
X002743Y007480D03*
X002746Y007480D03*
X002750Y007480D03*
X002753Y007480D03*
D505*
X002753Y006902D03*
X002750Y006902D03*
X002746Y006902D03*
X002743Y006902D03*
X002740Y006902D03*
X002737Y006902D03*
X002734Y006902D03*
X002730Y006902D03*
X002727Y006902D03*
X002724Y006902D03*
X002721Y006902D03*
X002719Y006902D03*
X002716Y006902D03*
X002713Y006902D03*
X002710Y006902D03*
X002706Y006902D03*
X002703Y006902D03*
X002700Y006902D03*
X002697Y006902D03*
X002694Y006902D03*
X002690Y006902D03*
X002687Y006902D03*
X002684Y006902D03*
X002681Y006902D03*
X002679Y006902D03*
X002673Y006904D03*
X002670Y006904D03*
D506*
X002670Y006490D03*
X002673Y006490D03*
X002676Y006490D03*
X002679Y006490D03*
X002681Y006490D03*
X002684Y006490D03*
X002687Y006490D03*
X002690Y006490D03*
X002694Y006490D03*
X002697Y006490D03*
X002700Y006490D03*
X002703Y006490D03*
X002706Y006490D03*
X002710Y006490D03*
X002713Y006490D03*
X002716Y006490D03*
X002719Y006490D03*
X002721Y006490D03*
X002724Y006490D03*
X002727Y006490D03*
X002730Y006490D03*
X002734Y006490D03*
X002737Y006490D03*
X002740Y006490D03*
X002743Y006490D03*
X002746Y006490D03*
X002750Y006490D03*
X002753Y006490D03*
X002666Y006490D03*
X002663Y006490D03*
X002660Y006490D03*
D507*
X002705Y008176D03*
X002708Y008176D03*
X002711Y008176D03*
X002714Y008176D03*
X002718Y008176D03*
X002722Y008176D03*
X002726Y008176D03*
X002729Y008176D03*
X002732Y008176D03*
X002735Y008176D03*
X002738Y008176D03*
X002742Y008176D03*
X002745Y008176D03*
X002748Y008176D03*
X002751Y008176D03*
D508*
X002751Y007480D03*
X002748Y007480D03*
X002745Y007480D03*
X002742Y007480D03*
X002738Y007480D03*
X002735Y007480D03*
X002732Y007480D03*
X002729Y007480D03*
X002726Y007480D03*
X002722Y007480D03*
X002718Y007480D03*
X002714Y007480D03*
X002711Y007480D03*
X002708Y007480D03*
X002705Y007480D03*
X002702Y007480D03*
X002698Y007480D03*
X002695Y007480D03*
X002692Y007480D03*
X002689Y007480D03*
D509*
X002674Y006904D03*
X002671Y006904D03*
X002682Y006902D03*
X002686Y006902D03*
X002689Y006902D03*
X002692Y006902D03*
X002695Y006902D03*
X002698Y006902D03*
X002702Y006902D03*
X002705Y006902D03*
X002708Y006902D03*
X002711Y006902D03*
X002714Y006902D03*
X002718Y006902D03*
X002722Y006902D03*
X002726Y006902D03*
X002729Y006902D03*
X002732Y006902D03*
X002735Y006902D03*
X002738Y006902D03*
X002742Y006902D03*
X002745Y006902D03*
X002748Y006902D03*
X002751Y006902D03*
D510*
X002751Y006490D03*
X002748Y006490D03*
X002745Y006490D03*
X002742Y006490D03*
X002738Y006490D03*
X002735Y006490D03*
X002732Y006490D03*
X002729Y006490D03*
X002726Y006490D03*
X002722Y006490D03*
X002718Y006490D03*
X002714Y006490D03*
X002711Y006490D03*
X002708Y006490D03*
X002705Y006490D03*
X002702Y006490D03*
X002698Y006490D03*
X002695Y006490D03*
X002692Y006490D03*
X002689Y006490D03*
X002686Y006490D03*
X002682Y006490D03*
X002678Y006490D03*
X002674Y006490D03*
X002671Y006490D03*
X002668Y006490D03*
X002665Y006490D03*
X002662Y006490D03*
D511*
X002703Y008138D03*
D512*
X002700Y008133D03*
D513*
X002698Y008132D03*
D514*
X002697Y008132D03*
D515*
X002695Y008131D03*
D516*
X002694Y008131D03*
D517*
X002692Y008130D03*
X002689Y008130D03*
D518*
X002690Y008130D03*
D519*
X002687Y008129D03*
X002684Y008129D03*
X002681Y008129D03*
D520*
X002682Y008129D03*
X002686Y008129D03*
D521*
X002686Y007481D03*
X002682Y007481D03*
X002678Y007481D03*
X002674Y007481D03*
D522*
X002676Y007481D03*
X002679Y007481D03*
X002681Y007481D03*
X002684Y007481D03*
X002644Y008238D03*
D523*
X002666Y008129D03*
X002670Y008129D03*
X002673Y008129D03*
X002676Y008129D03*
X002679Y008129D03*
D524*
X002678Y008556D03*
X002674Y008556D03*
D525*
X002674Y008129D03*
X002671Y008129D03*
X002668Y008129D03*
X002665Y008129D03*
X002678Y008129D03*
D526*
X002678Y006903D03*
D527*
X002676Y006903D03*
D528*
X002671Y007480D03*
D529*
X002670Y007479D03*
D530*
X002668Y007478D03*
D531*
X002668Y006904D03*
X002665Y006904D03*
D532*
X002666Y007476D03*
D533*
X002666Y006904D03*
D534*
X002665Y007474D03*
D535*
X002663Y008247D03*
X002660Y008247D03*
X002657Y008247D03*
D536*
X002663Y007468D03*
D537*
X002663Y006906D03*
D538*
X002662Y008247D03*
X002658Y008247D03*
D539*
X002658Y007291D03*
X002662Y007291D03*
D540*
X002660Y007291D03*
X002657Y007291D03*
D541*
X002658Y006491D03*
X002655Y006491D03*
X002652Y006491D03*
D542*
X002654Y006491D03*
X002657Y006491D03*
X002650Y006491D03*
D543*
X002655Y008246D03*
D544*
X002655Y007290D03*
D545*
X002654Y008246D03*
D546*
X002654Y007290D03*
D547*
X002652Y008245D03*
D548*
X002652Y007290D03*
D549*
X002650Y008244D03*
D550*
X002650Y007289D03*
D551*
X002649Y008244D03*
D552*
X002649Y007288D03*
D553*
X002649Y006492D03*
X002646Y006492D03*
D554*
X002647Y008243D03*
D555*
X002647Y007287D03*
D556*
X002647Y006492D03*
X002644Y006492D03*
D557*
X002646Y008241D03*
D558*
X002646Y007285D03*
D559*
X002644Y007283D03*
D560*
X002642Y008233D03*
D561*
X002642Y007279D03*
D562*
X002642Y006492D03*
D563*
X002604Y007447D03*
D564*
X002598Y007447D03*
D565*
X002594Y007447D03*
D566*
X002586Y007447D03*
D567*
X002583Y007447D03*
D568*
X002582Y007446D03*
D569*
X002580Y007446D03*
D570*
X002578Y007447D03*
D571*
X002577Y007446D03*
D572*
X002575Y007446D03*
D573*
X002574Y007447D03*
D574*
X002572Y007446D03*
D575*
X002570Y007446D03*
D576*
X002569Y007447D03*
D577*
X002567Y007447D03*
D578*
X002566Y007446D03*
D579*
X002564Y007446D03*
D580*
X002562Y007446D03*
D581*
X002561Y007446D03*
D582*
X002558Y007446D03*
D583*
X002556Y007446D03*
D584*
X002554Y007447D03*
D585*
X002553Y007446D03*
D586*
X002551Y007446D03*
D587*
X002550Y007447D03*
D588*
X002548Y007446D03*
D589*
X002546Y007447D03*
D590*
X002545Y007446D03*
D591*
X002543Y007446D03*
D592*
X002542Y007446D03*
D593*
X002540Y007446D03*
D594*
X002538Y007446D03*
D595*
X002537Y007446D03*
D596*
X002535Y007447D03*
D597*
X002534Y007447D03*
M02*
