G75*
G70*
%OFA0B0*%
%FSLAX24Y24*%
%IPPOS*%
%LPD*%
%AMOC8*
5,1,8,0,0,1.08239X$1,22.5*
%
%ADD10C,0.0080*%
%ADD11C,0.0040*%
%ADD12C,0.0050*%
D10*
X003860Y003680D02*
X003950Y003590D01*
X004080Y003670D01*
X004210Y003620D01*
X004240Y003470D01*
X004370Y003470D01*
X004390Y003620D01*
X004520Y003680D01*
X004650Y003590D01*
X004740Y003680D01*
X004650Y003810D01*
X004700Y003930D01*
X004860Y003960D01*
X004860Y004090D01*
X004700Y004120D01*
X004650Y004240D01*
X004740Y004380D01*
X004650Y004470D01*
X004520Y004380D01*
X004400Y004430D01*
X004370Y004580D01*
X004240Y004580D01*
X004210Y004440D01*
X004080Y004380D01*
X003950Y004470D01*
X003860Y004380D01*
X003940Y004260D01*
X003910Y004200D01*
X004140Y004110D01*
X004140Y003950D02*
X003910Y003850D01*
X003940Y003800D01*
X003860Y003680D01*
X004140Y003950D02*
X004153Y003928D01*
X004169Y003908D01*
X004188Y003890D01*
X004210Y003875D01*
X004233Y003864D01*
X004258Y003856D01*
X004283Y003852D01*
X004309Y003851D01*
X004335Y003854D01*
X004360Y003861D01*
X004383Y003872D01*
X004405Y003885D01*
X004425Y003902D01*
X004442Y003921D01*
X004457Y003943D01*
X004467Y003967D01*
X004475Y003991D01*
X004479Y004017D01*
X004479Y004043D01*
X004475Y004069D01*
X004467Y004093D01*
X004457Y004117D01*
X004442Y004139D01*
X004425Y004158D01*
X004405Y004175D01*
X004383Y004188D01*
X004360Y004199D01*
X004335Y004206D01*
X004309Y004209D01*
X004283Y004208D01*
X004258Y004204D01*
X004233Y004196D01*
X004210Y004185D01*
X004188Y004170D01*
X004169Y004152D01*
X004153Y004132D01*
X004140Y004110D01*
X006500Y002411D02*
X006920Y002411D01*
X006920Y002621D01*
X006850Y002691D01*
X006710Y002691D01*
X006640Y002621D01*
X006640Y002411D01*
X006640Y002231D02*
X006920Y001950D01*
X007060Y001770D02*
X007060Y001490D01*
X006640Y001490D01*
X006640Y001770D01*
X006850Y001630D02*
X006850Y001490D01*
X006640Y001950D02*
X006920Y002231D01*
X007060Y002871D02*
X007060Y002941D01*
X006640Y002941D01*
X006640Y002871D02*
X006640Y003011D01*
X006710Y003178D02*
X006640Y003248D01*
X006640Y003388D01*
X006710Y003458D01*
X006850Y003458D01*
X006920Y003388D01*
X006920Y003248D01*
X006850Y003178D01*
X006710Y003178D01*
X006640Y003638D02*
X006920Y003638D01*
X006780Y003638D02*
X006920Y003779D01*
X006920Y003849D01*
X006850Y004022D02*
X006710Y004022D01*
X006640Y004092D01*
X006640Y004232D01*
X006780Y004302D02*
X006780Y004022D01*
X006850Y004022D02*
X006920Y004092D01*
X006920Y004232D01*
X006850Y004302D01*
X006780Y004302D01*
X006640Y004943D02*
X006640Y005223D01*
X006710Y005403D02*
X006780Y005473D01*
X006780Y005684D01*
X006850Y005684D02*
X006640Y005684D01*
X006640Y005473D01*
X006710Y005403D01*
X006920Y005473D02*
X006920Y005614D01*
X006850Y005684D01*
X006920Y005864D02*
X006920Y006074D01*
X006850Y006144D01*
X006710Y006144D01*
X006640Y006074D01*
X006640Y005864D01*
X007060Y005864D01*
X006850Y006324D02*
X006920Y006394D01*
X006920Y006604D01*
X006780Y006534D02*
X006780Y006394D01*
X006850Y006324D01*
X006640Y006324D02*
X006640Y006534D01*
X006710Y006604D01*
X006780Y006534D01*
X006640Y004943D02*
X007060Y004943D01*
D11*
X003780Y003564D02*
X003780Y003443D01*
X003620Y003443D01*
X003700Y003346D02*
X003700Y003186D01*
X003660Y003186D02*
X003740Y003186D01*
X003780Y003226D01*
X003780Y003306D01*
X003740Y003346D01*
X003700Y003346D01*
X003620Y003306D02*
X003620Y003226D01*
X003660Y003186D01*
X003660Y003088D02*
X003620Y003048D01*
X003620Y002928D01*
X003540Y002928D02*
X003780Y002928D01*
X003780Y003048D01*
X003740Y003088D01*
X003660Y003088D01*
X003440Y002928D02*
X003200Y002928D01*
X003320Y002928D02*
X003360Y002968D01*
X003360Y003048D01*
X003320Y003088D01*
X003200Y003088D01*
X003240Y003186D02*
X003200Y003226D01*
X003200Y003346D01*
X003320Y003346D01*
X003360Y003306D01*
X003360Y003226D01*
X003280Y003226D02*
X003280Y003346D01*
X003280Y003444D02*
X003360Y003524D01*
X003360Y003564D01*
X003320Y003658D02*
X003240Y003658D01*
X003200Y003698D01*
X003200Y003819D01*
X003440Y003819D01*
X003360Y003819D02*
X003360Y003698D01*
X003320Y003658D01*
X003360Y003444D02*
X003200Y003444D01*
X003280Y003226D02*
X003240Y003186D01*
X003620Y002790D02*
X003660Y002830D01*
X003740Y002830D01*
X003780Y002790D01*
X003780Y002710D01*
X003740Y002670D01*
X003660Y002670D01*
X003620Y002710D01*
X003620Y002790D01*
X003780Y003564D02*
X003740Y003604D01*
X003620Y003604D01*
X003640Y003870D02*
X003680Y003910D01*
X003680Y004030D01*
X003600Y003990D02*
X003600Y003910D01*
X003640Y003870D01*
X003520Y003870D02*
X003520Y003990D01*
X003560Y004030D01*
X003600Y003990D01*
X003560Y004128D02*
X003520Y004168D01*
X003520Y004248D01*
X003560Y004288D01*
X003640Y004288D01*
X003680Y004248D01*
X003680Y004168D01*
X003640Y004128D01*
X003560Y004128D01*
X003360Y004076D02*
X003240Y004076D01*
X003200Y004036D01*
X003240Y003996D01*
X003200Y003956D01*
X003240Y003916D01*
X003360Y003916D01*
X003240Y004174D02*
X003200Y004214D01*
X003200Y004334D01*
X003320Y004334D01*
X003360Y004294D01*
X003360Y004214D01*
X003280Y004214D02*
X003280Y004334D01*
X003280Y004432D02*
X003360Y004512D01*
X003360Y004552D01*
X003360Y004432D02*
X003200Y004432D01*
X003240Y004647D02*
X003200Y004687D01*
X003200Y004767D01*
X003280Y004807D02*
X003280Y004647D01*
X003240Y004647D02*
X003320Y004647D01*
X003360Y004687D01*
X003360Y004767D01*
X003320Y004807D01*
X003280Y004807D01*
X003520Y004898D02*
X003520Y005018D01*
X003560Y005116D02*
X003640Y005116D01*
X003680Y005156D01*
X003680Y005236D01*
X003640Y005276D01*
X003600Y005276D01*
X003600Y005116D01*
X003560Y005116D02*
X003520Y005156D01*
X003520Y005236D01*
X003680Y005018D02*
X003680Y004898D01*
X003640Y004858D01*
X003560Y004858D01*
X003520Y004898D01*
X003680Y004764D02*
X003680Y004724D01*
X003600Y004643D01*
X003520Y004643D02*
X003680Y004643D01*
X003680Y004546D02*
X003520Y004546D01*
X003520Y004426D01*
X003560Y004386D01*
X003680Y004386D01*
X003280Y004214D02*
X003240Y004174D01*
D12*
X000825Y001355D02*
X000825Y001175D01*
X001095Y001175D01*
X000960Y001470D02*
X000870Y001470D01*
X000825Y001515D01*
X000825Y001605D01*
X000870Y001650D01*
X000960Y001650D01*
X001005Y001605D01*
X001005Y001515D01*
X000960Y001470D01*
X000960Y001764D02*
X000870Y001764D01*
X000825Y001809D01*
X000825Y001944D01*
X000780Y001944D02*
X000735Y001899D01*
X000735Y001854D01*
X000780Y001944D02*
X001005Y001944D01*
X001005Y001809D01*
X000960Y001764D01*
X001005Y002059D02*
X001005Y002104D01*
X000825Y002104D01*
X000825Y002059D02*
X000825Y002149D01*
X000870Y002255D02*
X000825Y002300D01*
X000825Y002436D01*
X001005Y002436D02*
X001005Y002300D01*
X000960Y002255D01*
X000870Y002255D01*
X001095Y002104D02*
X001140Y002104D01*
X001425Y002375D02*
X001425Y002510D01*
X001470Y002555D01*
X001515Y002555D01*
X001560Y002510D01*
X001560Y002375D01*
X001425Y002375D02*
X001695Y002375D01*
X001695Y002510D01*
X001650Y002555D01*
X001605Y002555D01*
X001560Y002510D01*
X001605Y002670D02*
X001605Y002715D01*
X001425Y002715D01*
X001425Y002670D02*
X001425Y002760D01*
X001470Y002866D02*
X001425Y002911D01*
X001425Y003046D01*
X001695Y003046D01*
X001605Y003046D02*
X001605Y002911D01*
X001560Y002866D01*
X001470Y002866D01*
X001695Y002715D02*
X001740Y002715D01*
X001605Y003161D02*
X001605Y003206D01*
X001425Y003206D01*
X001425Y003161D02*
X001425Y003251D01*
X001425Y003357D02*
X001605Y003357D01*
X001515Y003357D02*
X001605Y003447D01*
X001605Y003492D01*
X001560Y003603D02*
X001470Y003603D01*
X001425Y003648D01*
X001425Y003738D01*
X001515Y003783D02*
X001515Y003603D01*
X001560Y003603D02*
X001605Y003648D01*
X001605Y003738D01*
X001560Y003783D01*
X001515Y003783D01*
X001470Y003897D02*
X001425Y003942D01*
X001425Y004078D01*
X001470Y004237D02*
X001425Y004282D01*
X001470Y004237D02*
X001650Y004237D01*
X001605Y004192D02*
X001605Y004282D01*
X001605Y004388D02*
X001605Y004433D01*
X001425Y004433D01*
X001425Y004388D02*
X001425Y004479D01*
X001470Y004585D02*
X001425Y004630D01*
X001425Y004720D01*
X001470Y004765D01*
X001560Y004765D01*
X001605Y004720D01*
X001605Y004630D01*
X001560Y004585D01*
X001470Y004585D01*
X001695Y004433D02*
X001740Y004433D01*
X001605Y004078D02*
X001605Y003942D01*
X001560Y003897D01*
X001470Y003897D01*
X001095Y004023D02*
X001095Y004068D01*
X000825Y004068D01*
X000825Y004023D02*
X000825Y004113D01*
X000915Y003909D02*
X000915Y003729D01*
X000870Y003729D02*
X000960Y003729D01*
X001005Y003774D01*
X001005Y003864D01*
X000960Y003909D01*
X000915Y003909D01*
X000825Y003864D02*
X000825Y003774D01*
X000870Y003729D01*
X001005Y003614D02*
X000825Y003524D01*
X001005Y003434D01*
X000960Y003319D02*
X000915Y003319D01*
X000915Y003139D01*
X000870Y003139D02*
X000960Y003139D01*
X001005Y003184D01*
X001005Y003274D01*
X000960Y003319D01*
X000825Y003274D02*
X000825Y003184D01*
X000870Y003139D01*
X000825Y003025D02*
X000825Y002845D01*
X001095Y002845D01*
X001695Y003206D02*
X001740Y003206D01*
X001050Y004514D02*
X000870Y004514D01*
X000825Y004559D01*
X000825Y004650D01*
X000870Y004695D01*
X000870Y004809D02*
X000825Y004854D01*
X000825Y004944D01*
X000870Y004989D01*
X000960Y004989D01*
X001005Y004944D01*
X001005Y004854D01*
X000960Y004809D01*
X000870Y004809D01*
X001050Y004695D02*
X001095Y004650D01*
X001095Y004559D01*
X001050Y004514D01*
X001425Y004880D02*
X001605Y004880D01*
X001605Y005015D01*
X001560Y005060D01*
X001425Y005060D01*
X001470Y005174D02*
X001425Y005219D01*
X001425Y005354D01*
X001560Y005354D01*
X001605Y005309D01*
X001605Y005219D01*
X001515Y005219D02*
X001515Y005354D01*
X001425Y005469D02*
X001425Y005559D01*
X001425Y005514D02*
X001695Y005514D01*
X001695Y005469D01*
X001515Y005219D02*
X001470Y005174D01*
X001005Y005239D02*
X001005Y005104D01*
X000825Y005104D01*
X000825Y005284D02*
X000960Y005284D01*
X001005Y005239D01*
X001005Y005398D02*
X000825Y005488D01*
X001005Y005578D01*
X000960Y005693D02*
X001005Y005738D01*
X001005Y005828D01*
X000960Y005873D01*
X000915Y005873D01*
X000915Y005693D01*
X000870Y005693D02*
X000960Y005693D01*
X000870Y005693D02*
X000825Y005738D01*
X000825Y005828D01*
X000825Y005988D02*
X001005Y005988D01*
X001005Y006078D02*
X001005Y006123D01*
X001005Y006078D02*
X000915Y005988D01*
X001005Y006233D02*
X001005Y006323D01*
X001050Y006278D02*
X000870Y006278D01*
X000825Y006323D01*
X000870Y006430D02*
X000960Y006430D01*
X001005Y006475D01*
X001005Y006565D01*
X000960Y006610D01*
X000915Y006610D01*
X000915Y006430D01*
X000870Y006430D02*
X000825Y006475D01*
X000825Y006565D01*
X000825Y006724D02*
X001005Y006724D01*
X000915Y006724D02*
X001005Y006814D01*
X001005Y006859D01*
M02*
