G75*
G70*
%OFA0B0*%
%FSLAX24Y24*%
%IPPOS*%
%LPD*%
%AMOC8*
5,1,8,0,0,1.08239X$1,22.5*
%
%ADD10C,0.0080*%
%ADD11R,0.0300X0.0180*%
%ADD12R,0.0300X0.0200*%
%ADD13C,0.0040*%
D10*
X002000Y001300D02*
X002250Y001050D01*
X002750Y001050D01*
X003000Y001300D01*
X003000Y001800D01*
X002750Y002050D01*
X002250Y002050D01*
X002000Y001800D01*
X002000Y001300D01*
X002250Y002050D02*
X002000Y002300D01*
X002000Y002800D01*
X002250Y003050D01*
X002750Y003050D01*
X003000Y002800D01*
X003000Y002300D01*
X002750Y002050D01*
X002750Y003050D02*
X003000Y003300D01*
X003000Y003800D01*
X002750Y004050D01*
X003000Y004300D01*
X003000Y004800D01*
X002750Y005050D01*
X003000Y005300D01*
X003000Y005800D01*
X002750Y006050D01*
X003000Y006300D01*
X003000Y006800D01*
X002750Y007050D01*
X002250Y007050D01*
X002000Y006800D01*
X002000Y006300D01*
X002250Y006050D01*
X002000Y005800D01*
X002000Y005300D01*
X002250Y005050D01*
X002000Y004800D01*
X002000Y004300D01*
X002250Y004050D01*
X002000Y003800D01*
X002000Y003300D01*
X002250Y003050D01*
X003961Y002599D02*
X004276Y002599D01*
X004276Y002835D01*
X004276Y003465D02*
X004276Y003701D01*
X003961Y003701D01*
X003961Y004399D02*
X004276Y004399D01*
X004276Y004635D01*
X004276Y005265D02*
X004276Y005501D01*
X003961Y005501D01*
X003961Y006199D02*
X004276Y006199D01*
X004276Y006435D01*
X004276Y007065D02*
X004276Y007301D01*
X003961Y007301D01*
X005000Y006800D02*
X005000Y006300D01*
X005250Y006050D01*
X005000Y005800D01*
X005000Y005300D01*
X005250Y005050D01*
X005000Y004800D01*
X005000Y004300D01*
X005250Y004050D01*
X005000Y003800D01*
X005000Y003300D01*
X005250Y003050D01*
X005000Y002800D01*
X005000Y002300D01*
X005250Y002050D01*
X005000Y001800D01*
X005000Y001300D01*
X005250Y001050D01*
X005750Y001050D01*
X006000Y001300D01*
X006000Y001800D01*
X005750Y002050D01*
X005250Y002050D01*
X005750Y002050D02*
X006000Y002300D01*
X006000Y002800D01*
X005750Y003050D01*
X005250Y003050D01*
X005750Y003050D02*
X006000Y003300D01*
X006000Y003800D01*
X005750Y004050D01*
X006000Y004300D01*
X006000Y004800D01*
X005750Y005050D01*
X006000Y005300D01*
X006000Y005800D01*
X005750Y006050D01*
X006000Y006300D01*
X006000Y006800D01*
X005750Y007050D01*
X005250Y007050D01*
X005000Y006800D01*
X004276Y001901D02*
X003961Y001901D01*
X004276Y001901D02*
X004276Y001665D01*
X004276Y001035D02*
X004276Y000799D01*
X003961Y000799D01*
D11*
X001200Y003150D03*
X001200Y004950D03*
X001200Y006750D03*
X006800Y006750D03*
X006800Y004950D03*
X006800Y003150D03*
X006800Y001350D03*
D12*
X001200Y001350D03*
D13*
X000845Y001500D02*
X000845Y001620D01*
X000815Y001650D01*
X000725Y001650D01*
X000725Y001470D01*
X000815Y001470D01*
X000845Y001500D01*
X000643Y001470D02*
X000643Y001650D01*
X000523Y001650D02*
X000643Y001470D01*
X000523Y001470D02*
X000523Y001650D01*
X000440Y001620D02*
X000410Y001650D01*
X000350Y001650D01*
X000320Y001620D01*
X000320Y001500D01*
X000350Y001470D01*
X000410Y001470D01*
X000440Y001500D01*
X000440Y001560D01*
X000380Y001560D01*
X000320Y002470D02*
X000480Y002470D01*
X000578Y002590D02*
X000738Y002590D01*
X000698Y002470D02*
X000698Y002710D01*
X000578Y002590D01*
X000320Y002710D02*
X000320Y002470D01*
X000320Y003470D02*
X000480Y003470D01*
X000578Y003510D02*
X000618Y003470D01*
X000698Y003470D01*
X000738Y003510D01*
X000738Y003550D01*
X000698Y003590D01*
X000658Y003590D01*
X000698Y003590D02*
X000738Y003630D01*
X000738Y003670D01*
X000698Y003710D01*
X000618Y003710D01*
X000578Y003670D01*
X000320Y003710D02*
X000320Y003470D01*
X000320Y004470D02*
X000480Y004470D01*
X000578Y004470D02*
X000738Y004630D01*
X000738Y004670D01*
X000698Y004710D01*
X000618Y004710D01*
X000578Y004670D01*
X000578Y004470D02*
X000738Y004470D01*
X000320Y004470D02*
X000320Y004710D01*
X000320Y005470D02*
X000480Y005470D01*
X000578Y005470D02*
X000738Y005470D01*
X000658Y005470D02*
X000658Y005710D01*
X000578Y005630D01*
X000320Y005710D02*
X000320Y005470D01*
X000320Y006470D02*
X000480Y006470D01*
X000578Y006550D02*
X000658Y006470D01*
X000738Y006550D01*
X000738Y006710D01*
X000578Y006710D02*
X000578Y006550D01*
X000320Y006470D02*
X000320Y006710D01*
X007220Y001570D02*
X007220Y001450D01*
X007250Y001420D01*
X007310Y001420D01*
X007340Y001450D01*
X007340Y001510D01*
X007280Y001510D01*
X007220Y001570D02*
X007250Y001600D01*
X007310Y001600D01*
X007340Y001570D01*
X007423Y001600D02*
X007543Y001420D01*
X007543Y001600D01*
X007625Y001600D02*
X007715Y001600D01*
X007745Y001570D01*
X007745Y001450D01*
X007715Y001420D01*
X007625Y001420D01*
X007625Y001600D01*
X007423Y001600D02*
X007423Y001420D01*
X007480Y002520D02*
X007480Y002760D01*
X007480Y002640D02*
X007320Y002640D01*
X007320Y002520D02*
X007320Y002760D01*
X007578Y002640D02*
X007738Y002640D01*
X007698Y002520D02*
X007698Y002760D01*
X007578Y002640D01*
X007618Y003420D02*
X007578Y003460D01*
X007618Y003420D02*
X007698Y003420D01*
X007738Y003460D01*
X007738Y003500D01*
X007698Y003540D01*
X007658Y003540D01*
X007698Y003540D02*
X007738Y003580D01*
X007738Y003620D01*
X007698Y003660D01*
X007618Y003660D01*
X007578Y003620D01*
X007480Y003660D02*
X007480Y003420D01*
X007480Y003540D02*
X007320Y003540D01*
X007320Y003420D02*
X007320Y003660D01*
X007320Y004420D02*
X007320Y004660D01*
X007320Y004540D02*
X007480Y004540D01*
X007480Y004660D02*
X007480Y004420D01*
X007578Y004420D02*
X007738Y004580D01*
X007738Y004620D01*
X007698Y004660D01*
X007618Y004660D01*
X007578Y004620D01*
X007578Y004420D02*
X007738Y004420D01*
X007738Y005520D02*
X007578Y005520D01*
X007658Y005520D02*
X007658Y005760D01*
X007578Y005680D01*
X007480Y005640D02*
X007320Y005640D01*
X007320Y005520D02*
X007320Y005760D01*
X007480Y005760D02*
X007480Y005520D01*
X007480Y006420D02*
X007480Y006660D01*
X007578Y006660D02*
X007578Y006500D01*
X007658Y006420D01*
X007738Y006500D01*
X007738Y006660D01*
X007480Y006540D02*
X007320Y006540D01*
X007320Y006420D02*
X007320Y006660D01*
M02*
