G75*
G70*
%OFA0B0*%
%FSLAX24Y24*%
%IPPOS*%
%LPD*%
%AMOC8*
5,1,8,0,0,1.08239X$1,22.5*
%
%ADD10R,0.0354X0.0315*%
%ADD11R,0.0394X0.0433*%
%ADD12R,0.0740X0.0740*%
%ADD13C,0.0740*%
%ADD14C,0.0100*%
D10*
X003606Y000976D03*
X003606Y001724D03*
X004433Y001350D03*
X003606Y002776D03*
X003606Y003524D03*
X004433Y003150D03*
X003606Y004576D03*
X003606Y005324D03*
X004433Y004950D03*
X003606Y006376D03*
X003606Y007124D03*
X004433Y006750D03*
D11*
X001200Y001015D03*
X001200Y001685D03*
X001200Y002815D03*
X001200Y003485D03*
X001200Y004615D03*
X001200Y005285D03*
X001200Y006415D03*
X001200Y007085D03*
X006800Y007085D03*
X006800Y006415D03*
X006800Y005285D03*
X006800Y004615D03*
X006800Y003485D03*
X006800Y002815D03*
X006800Y001685D03*
X006800Y001015D03*
D12*
X005500Y006550D03*
X002500Y006550D03*
D13*
X002500Y005550D03*
X002500Y004550D03*
X002500Y003550D03*
X002500Y002550D03*
X002500Y001550D03*
X005500Y001550D03*
X005500Y002550D03*
X005500Y003550D03*
X005500Y004550D03*
X005500Y005550D03*
D14*
X006000Y005550D01*
X006800Y006350D01*
X006800Y006415D01*
X007200Y006650D02*
X007200Y004850D01*
X007200Y003050D01*
X006800Y003450D01*
X006800Y003485D01*
X007200Y003050D02*
X007200Y001450D01*
X006800Y001050D01*
X006800Y001015D01*
X006800Y001685D02*
X006800Y001750D01*
X006000Y001750D01*
X006000Y001850D01*
X005500Y002350D01*
X005500Y002550D01*
X005500Y002350D02*
X004500Y001350D01*
X004433Y001350D01*
X004000Y002050D02*
X004000Y003150D01*
X004000Y004950D01*
X003700Y005250D01*
X003606Y005324D01*
X003700Y005350D01*
X004000Y005650D01*
X004000Y006750D01*
X003700Y007050D01*
X003606Y007124D01*
X003600Y007050D01*
X002500Y007050D01*
X001200Y007050D01*
X001200Y007085D01*
X001200Y007050D02*
X000800Y006650D01*
X000800Y005750D01*
X001200Y005350D01*
X001200Y005285D01*
X001200Y005250D01*
X000800Y004850D01*
X000800Y003050D01*
X001200Y003450D01*
X001200Y003485D01*
X000800Y003050D02*
X000800Y001450D01*
X001200Y001050D01*
X001200Y001015D01*
X001200Y001685D02*
X001200Y001750D01*
X002000Y002550D01*
X002500Y002550D01*
X003000Y002050D01*
X003000Y001650D01*
X003600Y001050D01*
X003606Y000976D01*
X003606Y001724D02*
X003700Y001750D01*
X004000Y002050D01*
X003606Y002776D02*
X003600Y002850D01*
X002900Y003550D01*
X002500Y003550D01*
X002000Y003050D01*
X002000Y002850D01*
X001200Y002850D01*
X001200Y002815D01*
X001200Y004550D02*
X001200Y004615D01*
X001200Y004550D02*
X002500Y004550D01*
X003600Y004550D01*
X003606Y004576D01*
X004433Y004950D02*
X005500Y004950D01*
X005500Y004650D01*
X005500Y004550D01*
X005500Y004650D02*
X006800Y004650D01*
X006800Y004615D01*
X007200Y004850D02*
X006800Y005250D01*
X006800Y005285D01*
X005500Y005550D02*
X005000Y006050D01*
X005000Y006250D01*
X004500Y006750D01*
X004433Y006750D01*
X003606Y006376D02*
X003600Y006350D01*
X002800Y005550D01*
X002500Y005550D01*
X002000Y005550D01*
X001200Y006350D01*
X001200Y006415D01*
X002500Y006550D02*
X002500Y007050D01*
X005500Y007050D02*
X005500Y006550D01*
X005500Y007050D02*
X006800Y007050D01*
X006800Y007085D01*
X006800Y007050D02*
X007200Y006650D01*
X005500Y003550D02*
X005500Y003350D01*
X006000Y002850D01*
X006800Y002850D01*
X006800Y002815D01*
X005500Y003150D02*
X005500Y003350D01*
X005500Y003150D02*
X004433Y003150D01*
X004000Y003150D02*
X003700Y003450D01*
X003606Y003524D01*
M02*
